<?xml version="1.0" standalone="no"?>
<!DOCTYPE svg PUBLIC "-//W3C//DTD SVG 20010904//EN"
 "http://www.w3.org/TR/2001/REC-SVG-20010904/DTD/svg10.dtd">
<svg version="1.0" xmlns="http://www.w3.org/2000/svg"
 width="478.000000pt" height="404.000000pt" viewBox="0 0 478.000000 404.000000"
 preserveAspectRatio="xMidYMid meet">

<g transform="translate(0.000000,404.000000) scale(0.100000,-0.100000)"
fill="#000000" stroke="none">
<path d="M4740 3688 c0 -9 5 -20 10 -23 13 -8 13 5 0 25 -8 13 -10 13 -10 -2z"/>
<path d="M4750 3645 c-5 -18 -8 -30 -9 -43 -1 -9 -12 -12 -33 -10 -29 3 -33 0
-32 -20 0 -13 -4 -21 -10 -19 -15 6 -34 -15 -28 -32 3 -8 0 -11 -5 -8 -5 3 -9
-2 -9 -12 0 -14 6 -12 31 11 16 15 47 42 68 61 30 25 38 38 34 57 -2 14 -6 21
-7 15z"/>
<path d="M4530 3396 c-30 -24 -58 -42 -61 -40 -3 1 -13 -10 -23 -27 -9 -16
-22 -29 -27 -29 -6 0 -8 -4 -5 -9 3 -5 -6 -12 -20 -15 -15 -4 -24 -10 -20 -13
3 -4 -4 -18 -16 -32 l-23 -26 30 25 c16 14 47 42 68 63 21 20 42 37 46 37 4 0
31 25 61 55 30 30 52 55 50 55 -3 -1 -30 -20 -60 -44z"/>
<path d="M4316 3207 c5 -15 -31 -44 -49 -39 -4 1 -10 -5 -13 -13 -4 -8 -12
-15 -20 -15 -7 0 -11 -6 -8 -14 3 -8 -6 -26 -21 -40 -30 -31 -37 -32 -28 -8 5
14 4 15 -8 4 -8 -7 -14 -20 -14 -29 0 -9 -7 -18 -15 -20 -12 -4 -12 -3 -1 5 7
5 9 11 5 14 -5 2 -23 -11 -41 -29 -17 -18 -29 -33 -26 -33 9 0 -64 -67 -114
-105 -25 -19 -50 -32 -55 -29 -5 4 -8 -4 -6 -17 4 -29 -17 -56 -57 -74 -16 -7
-44 -27 -61 -44 -18 -16 -44 -33 -58 -37 -14 -3 -26 -10 -26 -14 0 -11 -217
-228 -260 -260 -53 -39 -95 -80 -84 -80 6 0 75 54 155 120 163 136 151 126
184 163 13 15 26 26 29 25 5 -3 91 73 196 173 37 36 99 90 136 120 38 29 117
101 177 160 96 93 107 107 93 118 -14 12 -16 12 -10 -2z"/>
<path d="M3240 2235 c-13 -14 -21 -25 -18 -25 10 0 51 40 46 45 -2 3 -15 -6
-28 -20z"/>
<path d="M3010 2029 c0 -5 5 -7 10 -4 6 3 10 8 10 11 0 2 -4 4 -10 4 -5 0 -10
-5 -10 -11z"/>
<path d="M2949 1973 c-8 -9 -32 -29 -53 -45 -47 -34 -40 -37 12 -4 42 26 81
66 65 66 -6 0 -17 -8 -24 -17z"/>
<path d="M2820 1880 c-9 -6 -10 -10 -3 -10 6 0 15 5 18 10 8 12 4 12 -15 0z"/>
<path d="M2671 1757 c-19 -12 -43 -27 -53 -33 -32 -19 -68 -53 -68 -65 0 -8
92 60 110 82 3 4 15 9 28 13 12 4 22 12 22 17 0 12 0 12 -39 -14z"/>
<path d="M2285 1465 c-25 -12 -26 -14 -5 -9 14 4 29 10 35 15 12 12 5 11 -30
-6z"/>
<path d="M2208 1437 c14 -17 7 -42 -9 -32 -5 4 -9 1 -9 -5 0 -7 -7 -9 -17 -6
-10 4 -14 4 -10 0 4 -4 -3 -18 -15 -31 -12 -12 -18 -26 -15 -30 4 -3 7 -1 7 5
0 7 6 12 13 12 6 0 35 21 62 45 35 32 44 45 30 43 -11 -1 -27 2 -35 7 -13 8
-13 6 -2 -8z"/>
<path d="M1971 1206 c-9 -10 -6 -12 14 -8 29 5 31 8 11 15 -8 3 -19 0 -25 -7z"/>
<path d="M1895 1165 c-16 -17 -33 -31 -37 -29 -5 3 -58 -80 -58 -91 0 -6 83
81 111 117 37 46 26 49 -16 3z"/>
<path d="M1747 1014 c-21 -14 -36 -28 -33 -31 2 -3 11 0 18 6 7 6 24 20 38 31
36 28 21 24 -23 -6z"/>
<path d="M1623 940 c-22 -21 -38 -42 -34 -46 3 -4 -2 -4 -11 -1 -20 7 -25 -9
-5 -16 8 -4 7 -6 -4 -6 -8 -1 -24 -9 -35 -19 -10 -10 -23 -19 -29 -20 -5 -1
-30 -19 -54 -40 -41 -34 -120 -100 -148 -122 -7 -6 -15 -10 -18 -10 -3 0 -13
-8 -23 -17 -72 -68 -102 -93 -111 -93 -5 0 -16 -8 -23 -18 -12 -17 -41 -34
-61 -36 -5 -1 -14 -9 -21 -18 -7 -10 -17 -18 -22 -18 -5 0 -15 -9 -22 -20 -7
-11 -19 -20 -28 -20 -8 0 -12 -5 -9 -10 3 -6 -4 -14 -17 -19 -15 -6 -17 -10
-7 -10 9 -1 25 7 37 17 11 9 44 33 71 52 82 57 210 157 285 224 39 35 83 69
97 77 28 15 99 72 155 125 18 16 48 41 68 55 41 28 51 44 27 46 -9 1 -35 -16
-58 -37z m57 26 c0 -2 -7 -7 -16 -10 -8 -3 -12 -2 -9 4 6 10 25 14 25 6z"/>
<path d="M411 784 c0 -11 3 -14 6 -6 3 7 2 16 -1 19 -3 4 -6 -2 -5 -13z"/>
<path d="M118 543 c-42 -17 -48 -29 -18 -38 25 -8 43 3 36 21 -3 8 0 11 8 8 7
-3 16 2 19 10 8 19 2 19 -45 -1z"/>
<path d="M748 244 c-21 -13 -38 -29 -38 -35 0 -12 13 -3 60 39 32 28 25 27
-22 -4z"/>
</g>
</svg>
