{
  "accessors": [
    {
      "bufferView": 2,
      "componentType": 5126,
      "count": 2616,
      "max": [
        6.383616924285889,
        0.35534316301345825,
        5.715600490570068
      ],
      "min": [
        -6.383616924285889,
        -0.35534316301345825,
        -5.715600490570068
      ],
      "type": "VEC3"
    },
    {
      "bufferView": 2,
      "byteOffset": 31392,
      "componentType": 5126,
      "count": 2616,
      "max": [
        0.9999450445175171,
        0.9997460246086121,
        0.9998010396957397
      ],
      "min": [
        -0.9999450445175171,
        -0.9997460246086121,
        -0.9998010396957397
      ],
      "type": "VEC3"
    },
    {
      "bufferView": 1,
      "componentType": 5126,
      "count": 2616,
      "max": [
        0.7914901971817017,
        0.9917700290679932
      ],
      "min": [
        0.008230000734329224,
        0.008230090141296387
      ],
      "type": "VEC2"
    },
    {
      "bufferView": 0,
      "componentType": 5125,
      "count": 12960,
      "type": "SCALAR"
    },
    {
      "bufferView": 2,
      "byteOffset": 62784,
      "componentType": 5126,
      "count": 564,
      "max": [
        5.907598972320557,
        3.9206042289733887,
        5.907597541809082
      ],
      "min": [
        -5.907598972320557,
        -4.124502182006836,
        -5.907597064971924
      ],
      "type": "VEC3"
    },
    {
      "bufferView": 2,
      "byteOffset": 69552,
      "componentType": 5126,
      "count": 564,
      "max": [
        0.9976482391357422,
        1.0,
        0.9976482391357422
      ],
      "min": [
        -0.9976483583450317,
        -1.0,
        -0.997648298740387
      ],
      "type": "VEC3"
    },
    {
      "bufferView": 1,
      "byteOffset": 20928,
      "componentType": 5126,
      "count": 564,
      "max": [
        0.9927682280540466,
        0.9690422415733337
      ],
      "min": [
        0.0,
        0.0
      ],
      "type": "VEC2"
    },
    {
      "bufferView": 1,
      "byteOffset": 25440,
      "componentType": 5126,
      "count": 564,
      "max": [
        0.9927682280540466,
        0.9690422415733337
      ],
      "min": [
        0.0,
        0.0
      ],
      "type": "VEC2"
    },
    {
      "bufferView": 0,
      "byteOffset": 51840,
      "componentType": 5125,
      "count": 3024,
      "type": "SCALAR"
    },
    {
      "bufferView": 2,
      "byteOffset": 76320,
      "componentType": 5126,
      "count": 16848,
      "max": [
        55.38201141357422,
        12.112532615661621,
        54.81058883666992
      ],
      "min": [
        -55.34349822998047,
        -20.338594436645508,
        -55.067867279052734
      ],
      "type": "VEC3"
    },
    {
      "bufferView": 2,
      "byteOffset": 278496,
      "componentType": 5126,
      "count": 16848,
      "max": [
        0.999966025352478,
        0.9999977350234985,
        0.9997384548187256
      ],
      "min": [
        -0.9999900460243225,
        -0.9999098777770996,
        -0.9999797940254211
      ],
      "type": "VEC3"
    },
    {
      "bufferView": 1,
      "byteOffset": 29952,
      "componentType": 5126,
      "count": 16848,
      "max": [
        1.0,
        1.0
      ],
      "min": [
        0.0,
        0.0
      ],
      "type": "VEC2"
    },
    {
      "bufferView": 0,
      "byteOffset": 63936,
      "componentType": 5125,
      "count": 51840,
      "type": "SCALAR"
    },
    {
      "bufferView": 2,
      "byteOffset": 480672,
      "componentType": 5126,
      "count": 2210,
      "max": [
        6.945863246917725,
        1.2427583932876587,
        7.098459720611572
      ],
      "min": [
        -6.945863246917725,
        -1.2427583932876587,
        -7.098459720611572
      ],
      "type": "VEC3"
    },
    {
      "bufferView": 2,
      "byteOffset": 507192,
      "componentType": 5126,
      "count": 2210,
      "max": [
        0.9890987277030945,
        0.9999921917915344,
        0.9989100098609924
      ],
      "min": [
        -0.8335785269737244,
        -0.9746845960617065,
        -0.9988763332366943
      ],
      "type": "VEC3"
    },
    {
      "bufferView": 1,
      "byteOffset": 164736,
      "componentType": 5126,
      "count": 2210,
      "max": [
        0.9434859156608582,
        0.9653827548027039
      ],
      "min": [
        0.06904873251914978,
        0.048558712005615234
      ],
      "type": "VEC2"
    },
    {
      "bufferView": 0,
      "byteOffset": 271296,
      "componentType": 5125,
      "count": 12288,
      "type": "SCALAR"
    },
    {
      "bufferView": 2,
      "byteOffset": 533712,
      "componentType": 5126,
      "count": 600,
      "max": [
        6.279952049255371,
        0.6992850303649902,
        6.493271827697754
      ],
      "min": [
        -6.276075839996338,
        -0.6992850303649902,
        -6.493271827697754
      ],
      "type": "VEC3"
    },
    {
      "bufferView": 2,
      "byteOffset": 540912,
      "componentType": 5126,
      "count": 600,
      "max": [
        0.9995340704917908,
        0.999724805355072,
        0.9988328814506531
      ],
      "min": [
        -0.9995340704917908,
        -0.999724805355072,
        -0.9995591044425964
      ],
      "type": "VEC3"
    },
    {
      "bufferView": 1,
      "byteOffset": 182416,
      "componentType": 5126,
      "count": 600,
      "max": [
        1.037052035331726,
        1.031056523323059
      ],
      "min": [
        -0.029587075114250183,
        -0.04053044319152832
      ],
      "type": "VEC2"
    },
    {
      "bufferView": 0,
      "byteOffset": 320448,
      "componentType": 5125,
      "count": 2772,
      "type": "SCALAR"
    },
    {
      "bufferView": 2,
      "byteOffset": 548112,
      "componentType": 5126,
      "count": 222,
      "max": [
        60.719722747802734,
        10.206787109375,
        62.97665023803711
      ],
      "min": [
        -60.719722747802734,
        -0.08302371948957443,
        -62.97665023803711
      ],
      "type": "VEC3"
    },
    {
      "bufferView": 2,
      "byteOffset": 550776,
      "componentType": 5126,
      "count": 222,
      "max": [
        0.9605948328971863,
        1.0,
        0.9466691017150879
      ],
      "min": [
        -0.9719001054763794,
        -1.0,
        -0.9498008489608765
      ],
      "type": "VEC3"
    },
    {
      "bufferView": 1,
      "byteOffset": 187216,
      "componentType": 5126,
      "count": 222,
      "max": [
        1.0022258758544922,
        1.0
      ],
      "min": [
        0.0,
        0.0
      ],
      "type": "VEC2"
    },
    {
      "bufferView": 0,
      "byteOffset": 331536,
      "componentType": 5125,
      "count": 1188,
      "type": "SCALAR"
    },
    {
      "bufferView": 2,
      "byteOffset": 553440,
      "componentType": 5126,
      "count": 5900,
      "max": [
        6.068045616149902,
        0.5499915480613708,
        6.4598708152771
      ],
      "min": [
        -6.068045616149902,
        -0.5499915480613708,
        -6.4598708152771
      ],
      "type": "VEC3"
    },
    {
      "bufferView": 2,
      "byteOffset": 624240,
      "componentType": 5126,
      "count": 5900,
      "max": [
        0.9982553720474243,
        0.9999990463256836,
        0.9985578060150146
      ],
      "min": [
        -0.9975177645683289,
        -0.9999984502792358,
        -0.9969685673713684
      ],
      "type": "VEC3"
    },
    {
      "bufferView": 1,
      "byteOffset": 188992,
      "componentType": 5126,
      "count": 5900,
      "max": [
        0.9718692302703857,
        0.9720956683158875
      ],
      "min": [
        0.0326261892914772,
        0.03332376480102539
      ],
      "type": "VEC2"
    },
    {
      "bufferView": 0,
      "byteOffset": 336288,
      "componentType": 5125,
      "count": 29940,
      "type": "SCALAR"
    }
  ],
  "asset": {
    "extras": {
      "author": "Fnafmaster (https://sketchfab.com/nadzlucy)",
      "license": "CC-BY-4.0 (http://creativecommons.org/licenses/by/4.0/)",
      "source": "https://sketchfab.com/3d-models/whopper-dbf8c8806eb44a488c7a5dd3e5372fa2",
      "title": "Whopper"
    },
    "generator": "Sketchfab-15.37.0",
    "version": "2.0"
  },
  "bufferViews": [
    {
      "buffer": 0,
      "byteLength": 456048,
      "name": "floatBufferViews",
      "target": 34963
    },
    {
      "buffer": 0,
      "byteLength": 236192,
      "byteOffset": 456048,
      "byteStride": 8,
      "name": "floatBufferViews",
      "target": 34962
    },
    {
      "buffer": 0,
      "byteLength": 695040,
      "byteOffset": 692240,
      "byteStride": 12,
      "name": "floatBufferViews",
      "target": 34962
    }
  ],
  "buffers": [
    {
      "byteLength": 1387280,
      "uri": "scene.bin"
    }
  ],
  "extensionsRequired": [
    "KHR_materials_pbrSpecularGlossiness"
  ],
  "extensionsUsed": [
    "KHR_materials_pbrSpecularGlossiness"
  ],
  "images": [
    {
      "uri": "textures/Sementes_diffuse.jpeg"
    },
    {
      "uri": "textures/material_diffuse.jpeg"
    },
    {
      "uri": "textures/material_occlusion.png"
    },
    {
      "uri": "textures/Alface_diffuse.jpeg"
    },
    {
      "uri": "textures/Tomate_diffuse.jpeg"
    },
    {
      "uri": "textures/Burger_diffuse.jpeg"
    },
    {
      "uri": "textures/Pickles_diffuse.jpeg"
    }
  ],
  "materials": [
    {
      "doubleSided": true,
      "extensions": {
        "KHR_materials_pbrSpecularGlossiness": {
          "diffuseFactor": [
            1.0,
            1.0,
            1.0,
            1.0
          ],
          "diffuseTexture": {
            "index": 0
          },
          "glossinessFactor": 0.4,
          "specularFactor": [
            0.0,
            0.0,
            0.0
          ]
        }
      },
      "name": "Sementes"
    },
    {
      "doubleSided": true,
      "extensions": {
        "KHR_materials_pbrSpecularGlossiness": {
          "diffuseFactor": [
            1.0,
            1.0,
            1.0,
            1.0
          ],
          "diffuseTexture": {
            "index": 1
          },
          "glossinessFactor": 0.4,
          "specularFactor": [
            0.0,
            0.0,
            0.0
          ]
        }
      },
      "name": "material",
      "occlusionTexture": {
        "index": 2
      }
    },
    {
      "doubleSided": true,
      "extensions": {
        "KHR_materials_pbrSpecularGlossiness": {
          "diffuseFactor": [
            1.0,
            1.0,
            1.0,
            1.0
          ],
          "diffuseTexture": {
            "index": 0
          },
          "glossinessFactor": 0.4,
          "specularFactor": [
            0.0,
            0.0,
            0.0
          ]
        }
      },
      "name": "Sementes_0"
    },
    {
      "doubleSided": true,
      "extensions": {
        "KHR_materials_pbrSpecularGlossiness": {
          "diffuseFactor": [
            1.0,
            1.0,
            1.0,
            1.0
          ],
          "diffuseTexture": {
            "index": 3
          },
          "glossinessFactor": 0.4,
          "specularFactor": [
            0.0,
            0.0,
            0.0
          ]
        }
      },
      "name": "Alface"
    },
    {
      "doubleSided": true,
      "extensions": {
        "KHR_materials_pbrSpecularGlossiness": {
          "diffuseFactor": [
            1.0,
            1.0,
            1.0,
            1.0
          ],
          "diffuseTexture": {
            "index": 4
          },
          "glossinessFactor": 0.4,
          "specularFactor": [
            0.0,
            0.0,
            0.0
          ]
        }
      },
      "name": "Tomate"
    },
    {
      "doubleSided": true,
      "extensions": {
        "KHR_materials_pbrSpecularGlossiness": {
          "diffuseFactor": [
            1.0,
            1.0,
            1.0,
            1.0
          ],
          "diffuseTexture": {
            "index": 5
          },
          "glossinessFactor": 0.4,
          "specularFactor": [
            0.0,
            0.0,
            0.0
          ]
        }
      },
      "name": "Burger"
    },
    {
      "doubleSided": true,
      "extensions": {
        "KHR_materials_pbrSpecularGlossiness": {
          "diffuseFactor": [
            1.0,
            1.0,
            1.0,
            1.0
          ],
          "diffuseTexture": {
            "index": 6
          },
          "glossinessFactor": 0.4,
          "specularFactor": [
            0.0,
            0.0,
            0.0
          ]
        }
      },
      "name": "Pickles"
    }
  ],
  "meshes": [
    {
      "name": "Object_0",
      "primitives": [
        {
          "attributes": {
            "NORMAL": 1,
            "POSITION": 0,
            "TEXCOORD_0": 2
          },
          "indices": 3,
          "material": 0,
          "mode": 4
        }
      ]
    },
    {
      "name": "Object_1",
      "primitives": [
        {
          "attributes": {
            "NORMAL": 5,
            "POSITION": 4,
            "TEXCOORD_0": 6,
            "TEXCOORD_1": 7
          },
          "indices": 8,
          "material": 1,
          "mode": 4
        }
      ]
    },
    {
      "name": "Object_2",
      "primitives": [
        {
          "attributes": {
            "NORMAL": 10,
            "POSITION": 9,
            "TEXCOORD_0": 11
          },
          "indices": 12,
          "material": 2,
          "mode": 4
        }
      ]
    },
    {
      "name": "Object_3",
      "primitives": [
        {
          "attributes": {
            "NORMAL": 14,
            "POSITION": 13,
            "TEXCOORD_0": 15
          },
          "indices": 16,
          "material": 3,
          "mode": 4
        }
      ]
    },
    {
      "name": "Object_4",
      "primitives": [
        {
          "attributes": {
            "NORMAL": 18,
            "POSITION": 17,
            "TEXCOORD_0": 19
          },
          "indices": 20,
          "material": 4,
          "mode": 4
        }
      ]
    },
    {
      "name": "Object_5",
      "primitives": [
        {
          "attributes": {
            "NORMAL": 22,
            "POSITION": 21,
            "TEXCOORD_0": 23
          },
          "indices": 24,
          "material": 5,
          "mode": 4
        }
      ]
    },
    {
      "name": "Object_6",
      "primitives": [
        {
          "attributes": {
            "NORMAL": 26,
            "POSITION": 25,
            "TEXCOORD_0": 27
          },
          "indices": 28,
          "material": 6,
          "mode": 4
        }
      ]
    }
  ],
  "nodes": [
    {
      "children": [
        1
      ],
      "matrix": [
        1.0,
        0.0,
        0.0,
        0.0,
        0.0,
        2.220446049250313e-16,
        -1.0,
        0.0,
        0.0,
        1.0,
        2.220446049250313e-16,
        0.0,
        0.0,
        0.0,
        0.0,
        1.0
      ],
      "name": "Sketchfab_model"
    },
    {
      "children": [
        2
      ],
      "name": "root"
    },
    {
      "children": [
        3
      ],
      "matrix": [
        1.0,
        0.0,
        0.0,
        0.0,
        0.0,
        2.220446049250313e-16,
        1.0,
        0.0,
        0.0,
        -1.0,
        2.220446049250313e-16,
        0.0,
        0.0,
        0.0,
        0.0,
        1.0
      ],
      "name": "GLTF_SceneRootNode"
    },
    {
      "children": [
        4
      ],
      "matrix": [
        1.0,
        0.0,
        0.0,
        0.0,
        0.0,
        2.220446049250313e-16,
        -1.0,
        0.0,
        0.0,
        1.0,
        2.220446049250313e-16,
        0.0,
        0.0,
        0.0,
        0.0,
        1.0
      ],
      "name": "Sketchfab_model_0"
    },
    {
      "children": [
        5
      ],
      "matrix": [
        1.0,
        0.0,
        0.0,
        0.0,
        0.0,
        0.0,
        1.0,
        0.0,
        0.0,
        -1.0,
        0.0,
        0.0,
        0.0,
        0.0,
        0.0,
        1.0
      ],
      "name": "987df33f37a24daaaaa3a30e3242900b.fbx_1"
    },
    {
      "children": [
        6,
        9,
        12,
        15,
        18,
        21,
        24
      ],
      "name": "RootNode_2"
    },
    {
      "children": [
        7
      ],
      "matrix": [
        1.0,
        0.0,
        0.0,
        0.0,
        0.0,
        1.0,
        0.0,
        0.0,
        0.0,
        0.0,
        1.0,
        0.0,
        0.07577590644359589,
        -0.21403957903385162,
        0.11953610926866531,
        1.0
      ],
      "name": "Cebola_5"
    },
    {
      "children": [
        8
      ],
      "name": "Cebola_Sementes_0_6"
    },
    {
      "mesh": 0,
      "name": "Object_8"
    },
    {
      "children": [
        10
      ],
      "matrix": [
        1.0,
        0.0,
        0.0,
        0.0,
        0.0,
        1.0,
        0.0,
        0.0,
        0.0,
        0.0,
        1.0,
        0.0,
        0.14213226735591888,
        0.9899652004241943,
        -0.19608467817306519,
        1.0
      ],
      "name": "Pao_7"
    },
    {
      "children": [
        11
      ],
      "name": "Pao_Pao_0_8"
    },
    {
      "mesh": 1,
      "name": "Object_11"
    },
    {
      "children": [
        13
      ],
      "matrix": [
        0.10000000149011612,
        0.0,
        0.0,
        0.0,
        0.0,
        0.10000000149011612,
        0.0,
        0.0,
        0.0,
        0.0,
        0.10000000149011612,
        0.0,
        0.09278863668441772,
        3.728795289993286,
        -0.1856987327337265,
        1.0
      ],
      "name": "Sementes_9"
    },
    {
      "children": [
        14
      ],
      "name": "Sementes_Sementes_0_10"
    },
    {
      "mesh": 2,
      "name": "Object_14"
    },
    {
      "children": [
        16
      ],
      "matrix": [
        1.0,
        0.0,
        0.0,
        0.0,
        0.0,
        1.0,
        0.0,
        0.0,
        0.0,
        0.0,
        1.0,
        0.0,
        0.21066147089004517,
        1.139438509941101,
        0.30850401520729065,
        1.0
      ],
      "name": "Alface_11"
    },
    {
      "children": [
        17
      ],
      "name": "Alface_Alface_0_12"
    },
    {
      "mesh": 3,
      "name": "Object_17"
    },
    {
      "children": [
        19
      ],
      "matrix": [
        1.0,
        0.0,
        0.0,
        0.0,
        0.0,
        1.0,
        0.0,
        0.0,
        0.0,
        0.0,
        1.0,
        0.0,
        0.446006178855896,
        0.5760928988456726,
        -0.19485045969486237,
        1.0
      ],
      "name": "Tomate_13"
    },
    {
      "children": [
        20
      ],
      "name": "Tomate_Tomate_0_14"
    },
    {
      "mesh": 4,
      "name": "Object_20"
    },
    {
      "children": [
        22
      ],
      "matrix": [
        0.10000000149011612,
        0.0,
        0.0,
        0.0,
        0.0,
        0.10000000149011612,
        0.0,
        0.0,
        0.0,
        0.0,
        0.10000000149011612,
        0.0,
        0.1142921969294548,
        -1.8225637674331665,
        -0.29199710488319397,
        1.0
      ],
      "name": "Hamburguer_15"
    },
    {
      "children": [
        23
      ],
      "name": "Hamburguer_Burger_0_16"
    },
    {
      "mesh": 5,
      "name": "Object_23"
    },
    {
      "children": [
        25
      ],
      "matrix": [
        1.0,
        0.0,
        0.0,
        0.0,
        0.0,
        1.0,
        0.0,
        0.0,
        0.0,
        0.0,
        1.0,
        0.0,
        -0.08475849777460098,
        -0.5424947738647461,
        -0.19188480079174042,
        1.0
      ],
      "name": "Pikcles_17"
    },
    {
      "children": [
        26
      ],
      "name": "Pikcles_Pickles_0_18"
    },
    {
      "mesh": 6,
      "name": "Object_26"
    }
  ],
  "samplers": [
    {
      "magFilter": 9729,
      "minFilter": 9987,
      "wrapS": 10497,
      "wrapT": 10497
    }
  ],
  "scene": 0,
  "scenes": [
    {
      "name": "Sketchfab_Scene",
      "nodes": [
        0
      ]
    }
  ],
  "textures": [
    {
      "sampler": 0,
      "source": 0
    },
    {
      "sampler": 0,
      "source": 1
    },
    {
      "sampler": 0,
      "source": 2
    },
    {
      "sampler": 0,
      "source": 3
    },
    {
      "sampler": 0,
      "source": 4
    },
    {
      "sampler": 0,
      "source": 5
    },
    {
      "sampler": 0,
      "source": 6
    }
  ]
}
