<svg width="189" height="271" viewBox="0 0 189 271" fill="none" xmlns="http://www.w3.org/2000/svg">
<g clip-path="url(#clip0_125_2)">
<path d="M69.8094 2.95741L70.2602 4.47546V6.66362L70.4993 7.40555L73.2829 9.22105L75.8034 10.3664L76.3499 10.9237L78.1806 11.5152L78.8944 11.293L80.2469 10.0724L82.0775 10.257L82.0536 9.33045L82.484 8.32868L82.1732 4.91993L82.6274 4.62589L83.4573 4.55067L84.1473 4.99515L85.7867 5.55245L86.62 5.33021L87.4534 4.81052L87.7129 4.88232L90.0696 6.51319L91.5177 7.85002L91.3777 8.47912L90.1618 10.5545L90.78 10.8485L91.3777 11.7374L92.4467 12.3323L92.8736 12.9614L91.7807 13.4811L90.4726 14.8146L90.0696 15.8881L89.7827 17.4062L89.9261 17.813H91.709L92.8258 18.4421L93.8504 19.7003L94.513 20.1824L95.7255 20.0354L95.1312 22.1073L93.6352 22.8868L93.1366 24.0322L93.0649 24.8835V25.4408L93.3005 25.8853L94.11 25.6631L95.3942 25.9571L95.4659 26.5862L94.8955 27.6598L94.513 28.0325V28.3641L95.5137 29.3283L95.5615 29.8069L95.3703 30.2514L95.0629 30.4736L93.4918 30.5112L93.3723 30.6959L93.3483 31.4344L93.5635 32.1763L94.1817 32.6926L94.7999 32.7678L94.9911 32.99L94.9433 33.8037L94.5847 34.2482L94.1578 34.3952L92.8975 33.9508L92.2554 33.879L91.9958 34.0636L91.7568 34.6927L91.709 36.0979L92.2076 36.9492L92.2793 38.3921L92.2076 38.6143L91.6133 38.5015L91.3059 38.7613L90.2813 40.4264L90.4009 41.2777L90.7595 41.6094L91.019 41.7564L91.7807 41.7188L92.1359 41.5341L92.375 40.905L91.7568 40.5358L91.8524 40.0195L92.3032 39.428H92.7302L93.8948 40.3135L94.11 40.758L94.0861 41.1649L92.1598 42.9052L91.9958 44.2728L91.6133 44.307L90.4248 43.459L89.8305 43.7155L89.3079 46.0096L89.8544 47.302L90.3769 47.4524L90.8278 47.3396L91.1386 47.0456L91.3059 45.8626L91.4938 45.6028L92.3271 45.5275L92.8736 45.972L92.8258 46.9704L92.112 48.2286V48.673L95.2268 52.9229L95.2507 53.9212L94.373 56.9505L96.2036 58.2428L97.1292 58.6121L97.7474 59.0566L98.0104 59.5352L98.106 60.1267L97.9386 60.5336L96.4632 62.6021L95.8211 62.8619V63.1184L96.0602 63.4534L96.9413 63.9321H98.1299L98.7003 64.2637L99.0316 64.5612L99.0794 65.7066L97.4878 68.6982L97.2009 68.77L96.6305 68.2537L96.1558 68.1067L95.8928 68.4007L95.9645 69.2145L96.7501 69.9906L97.7235 69.9154L98.4851 70.1376L98.9598 70.8761L99.3663 71.9839L100.148 72.8318L100.862 73.0164L101.979 72.8694L103.051 73.348L103.123 73.8643L102.051 76.8559L102.027 79.1433L102.597 80.1382L102.481 80.7297L103.075 81.6528L103.789 82.0939L104.524 82.2067L104.81 84.7505L104.978 85.2325L105.333 85.6018L105.927 85.7112L107.307 85.1949L107.806 84.5316V84.2342L106.928 83.6461L106.785 83.3863L106.235 81.393L107.331 79.8818L108.28 79.8066L108.615 80.1758L108.591 81.3588L109.09 82.6136L108.994 84.3094L109.78 85.971L110.183 87.26L110.35 87.2224L110.518 86.819L110.921 85.3796L111.826 84.6787L112.372 84.7881L112.584 85.0479L113.298 86.5591H115.89V87.0378L114.582 88.4772L114.606 88.7712L115.699 89.6226L116.911 91.3184V91.5406L116.201 92.2381L116.628 94.416L115.344 95.5204L114.725 95.7426V96.2589L114.773 96.5529L115.152 96.8845L117.553 97.476L117.864 98.0299L118.458 100.057L118.434 100.461L117.888 101.052L117.126 100.977L117.007 101.124L117.673 102.119L118.458 105.07L120.146 106.212L121.621 106.43L122.215 107.354L122.311 108.126L122.526 108.495L123.428 109.268L124.165 110.226L124.855 111.993L125.638 112.215L128.09 113.58H128.469L129.326 112.841L129.873 112.879L130.774 114.058H131.584L132.082 114.315L132.345 116.045L133.486 117.334L134.009 117.371L135.508 116.229L135.863 116.12L136.338 116.082L137.052 116.414L137.41 117.002L137.527 117.631L137.386 119.067L137.574 119.727L135.696 120.684L136.314 121.754L136.601 124.329L134.914 124.623L133.841 123.85L133.367 123.741L132.605 124.11H131.416L130.726 124.404L126.874 123.594L125.187 125.177L125.901 126.281L127.113 126.575L123.237 130.699L123.428 132.425L123.643 133.051L124.425 133.42L126.946 134.083L126.806 135.222L126.734 135.663L126.495 135.701L126.092 136.179H125.617L125.805 136.73L125.45 137.171L125.593 137.872L124.118 138.056L122.977 137.834L123.213 138.056L124.401 140.665L123.499 141.513L123.26 141.954L121.122 143.13L120.979 144.234L122.239 145.592L122.642 146.771L121.836 147.1L121.194 145.961L120.48 146.881L119.91 146.549L119.1 146.44L118.79 144.491L118.387 143.865L118.195 144.05L117.816 142.983L115.962 143.646L115.559 143.94L115.391 144.894L114.964 144.857L114.582 145.558L113.274 144.785L112.516 144.122L111.921 142.761L111.491 142.433L110.992 142.395L110.565 142.063L109.971 141.916L110.159 141.66L109.992 141.585L110.019 141.219L109.445 141.072L108.755 140.371L108.639 140.593L108.164 140.556L108.424 140.115L107.901 140.005L107.71 139.417L108.233 138.238L108.328 136.99L108.093 135.81L107.57 135.037L107.474 133.492L106.761 133.273L103.977 134.155L102.553 133.605L101.34 133.492L100.91 133.899L98.6285 135.222L98.509 134.302L98.6764 134.118L98.4851 133.789L98.4373 133.088L97.843 132.022L97.5595 132.097L97.44 131.875L94.2295 134.193L93.8948 134.928L93.707 134.743L91.9241 136.217L88.9732 138.09L88.1672 136.767L86.7635 136.326L85.6705 136.179L85.3358 135.629L85.6944 135.075L85.6705 134.709L85.0523 133.639L84.2907 133.53L84.1951 133.345L82.9587 133.53L80.3425 132.425L80.223 132.206L80.462 131.064L80.3664 130.88L80.0112 130.699L78.1566 130.552L78.061 129.775L78.3684 129.372L78.061 129.078L77.7502 129.594L77.8458 130.145L77.4667 130.699L76.9203 130.846L74.9223 132.059L75.0896 132.463L74.6115 132.794L73.5185 132.022L72.9243 131.984L72.4495 132.244L72.5451 133.311L71.9031 133.42L70.571 134.487L70.4993 135.037L69.6181 136.99L69.7138 137.393L69.5703 137.981L70.1885 138.385L70.0724 138.901L72.0226 140.371L70.998 140.446L69.7138 141.328L67.5279 142.286L67.8114 142.945L66.435 143.424L66.5272 144.306L66.3633 145.004L65.8168 145.373L66.0047 145.705L66.0286 146.549L64.1023 146.477L63.508 146.771L62.5824 147.725L62.6063 148.129L62.3434 148.498L62.8181 149.195L63.1528 150.225L62.702 150.85L63.0572 151.144L63.6754 151.216L63.5319 151.804L63.0572 151.77L62.7703 152.064L62.176 152.136L61.9403 152.392L62.1282 152.908L62.6063 153.055L62.2477 153.35L62.176 153.753L62.3194 154.744L62.4868 154.782L62.8181 155.739L61.7491 156.252L61.8925 156.399L61.37 157.059L61.2982 157.538L60.2053 158.382L60.3214 158.786L60.014 159.155L60.2736 159.521L60.3453 160.147L59.775 160.403L59.4676 160.882L60.038 161.176L60.704 162.205L59.9901 162.755L60.3214 163.012L60.2975 163.306L61.4417 162.902L61.7491 163.453L62.3194 163.083L62.2238 162.865L62.3673 162.793L63.2962 164.444H63.6515L64.4609 165.032L64.2935 165.398L63.1289 165.986L63.9827 167.015L63.6515 167.969L64.2457 168.629L63.8427 168.814L63.9623 169.255L63.2484 169.586L63.6754 170.431L60.6561 171.422L60.2975 171.163V169.877H59.8228L58.6342 170.284L58.1117 170.797L57.3022 171.128L56.0898 171.163L55.5911 170.578L55.3998 171.31L53.9756 172.12L52.5241 173.402L51.8342 173.734L51.5234 174.394L51.0725 174.763L51.0008 175.423L49.9318 175.494L48.5759 176.78L46.3422 177.881L44.4876 178.066L42.2506 177.515L41.1815 176.045L41.4445 174.431L41.1337 174.065L40.1842 174.431H39.064L39.1835 173.952L38.4253 173.771L36.9021 174.688L36.236 174.725L35.4983 175.091L34.4293 173.477L33.6438 172.964L33.1212 172.267L33.1451 172.045L33.4764 171.788L33.3364 171.275L33.4081 170.759L33.2646 170.65L32.1 170.759L31.5535 169.621L31.2427 169.327L30.1976 168.923L29.4121 168.776L28.9373 168.889L28.2474 169.402L27.3663 169.621L25.8942 170.612L24.5144 170.503L23.6332 169.877L22.8033 169.915L21.6113 170.284L21.3278 169.586L21.543 168.595L21.28 167.2L21.8026 166.355L21.6113 165.289L21.7548 164.369L22.612 163.525L22.4208 162.571L22.5642 161.213L22.0416 160.441L20.6857 160.331L19.5928 158.714L18.9985 156.29L17.6665 154.488L17.4514 152.799L17.0483 151.623L16.5258 150.666L15.4294 149.893L14.9069 148.095L13.7183 146.99L13.6705 145.482L13.0762 144.087L12.6493 143.534L12.0072 143.24L11.6042 143.424L10.8187 144.453L10.4839 144.491L9.74963 143.865L9.24757 143.828L8.62938 144.269L6.27617 144.6L4.58896 145.117L4.20644 144.05L4.25425 143.24L3.92296 142.139L3.63607 139.892L3.32868 139.157L3.51994 136.914L3.04179 136.289L2.63877 136.07L2.11622 134.709L2.18794 134.449L3.16133 133.458L3.20914 132.941L2.28357 130.401L1.47412 129.481L1.28286 129.003L1.30677 128.49L1.7576 127.789L2.16403 127.717L3.0657 127.902L3.56434 127.604L3.65998 127.016L3.18523 125.765L3.40041 124.698L4.54115 125.249L5.25497 124.883L5.51454 124.404L5.49063 123.484L4.80072 122.637L2.97006 122.452L2.83003 122.12L2.92567 121.936L3.58825 121.826L4.66069 121.31L5.63408 121.348L6.061 120.831L6.04051 120.465L4.84853 119.139L5.20715 117.409L4.37379 116.305L4.80072 115.125L5.27887 115.053L6.25226 116.192L6.96608 116.452L7.39301 116.192L8.05901 115.347L8.36981 115.234L8.65329 115.494L8.988 116.893L9.41492 117.002L9.72572 116.67L10.1287 115.31L10.986 115.347L11.6281 115.016L11.5325 114.575L10.5318 114.021L10.4361 113.764L10.6752 113.651L11.3412 114.058L11.6725 112.732L11.2934 112.14L10.5557 111.627L10.3917 110.964L10.0809 110.67L8.988 110.41L8.44153 109.709L7.15734 109.084L5.20715 108.714L3.04179 107.648L2.02058 106.653L1.23504 106.577L0.333377 106.099L0.0942993 105.217L1.23504 103.89L1.16332 103.521L2.0684 103.114L2.99397 101.493L5.99269 99.5753L6.61088 98.8778L6.46743 98.471L6.58697 97.2538L6.46743 96.5153L6.87045 96.2212L6.67919 95.7426L7.0378 93.4211L8.22636 93.1236L8.15464 92.4979L8.48935 91.4278L9.41492 90.6551L9.29538 89.9542L8.65329 88.6618L8.94018 88.2208L8.39372 87.0036L8.72501 85.971L9.24757 85.4172L9.36711 84.8257L9.08363 83.9401L9.654 83.4991L9.70182 82.4631L10.723 81.8751L11.0543 81.9127L11.6725 82.4631L13.0045 82.1315L13.2914 81.7622L13.2197 81.3588L14.5517 80.5075L15.4294 81.393L16.3345 81.3588L17.0483 81.5434L17.4992 81.2836L17.8339 80.8049L17.6665 79.957L17.9978 79.3655L17.95 78.8492L18.1891 78.4424H19.7123L20.1632 78.2201L21.1844 77.0782L21.8026 77.1124L22.9433 76.5585L24.2275 75.0473L24.6339 74.1242L24.7501 71.9463L24.4905 71.3924L24.1797 71.2077L22.8716 71.3548L22.2773 70.2094L20.9009 68.9922L20.5184 68.1067L20.5662 67.3306L20.3066 66.6297L20.4706 65.6313L20.0436 64.3013L20.1871 63.8945L20.0915 63.303L20.8053 62.7491L22.1373 62.6773L22.5403 62.0482L23.1107 61.8636L23.442 61.3097L24.3949 61.1251L24.8696 61.2721L25.3204 61.2003L26.608 60.2396L27.8444 59.6105L27.7249 58.5027L28.1757 58.2052L28.2474 57.7984L29.7673 57.2821L29.6751 56.5812L29.2925 55.9897L29.1252 54.5469L29.6033 53.9212L30.4572 53.4391L30.4333 52.663L31.4818 51.9245L31.5979 51.2578L32.0522 51.0014L32.1 50.6663L31.6936 49.4115L31.1471 48.673L30.505 48.0063L29.2925 47.7841L28.4831 46.119L28.9852 44.9019L29.2686 43.6061L29.7912 42.6453L30.4811 42.3855L31.2905 41.794L31.6218 41.0555L31.9805 40.758L34.501 39.7973L34.9758 40.1289L36.3556 39.1682L36.5673 38.5015L36.5468 37.1339L36.2121 34.9149L36.7586 33.3593L38.1862 30.6583L38.4253 29.2154L38.4458 27.0307L38.6371 26.552L39.064 26.2546L39.8495 25.1434L41.7758 24.0322L42.4179 23.3655L43.5348 23.1467L46.3183 21.4782L49.2897 20.4422L50.9769 20.22L52.145 19.6661L53.7844 19.2935L53.3779 16.442L53.9961 15.1462L53.5453 12.1101L53.9517 11.6656L54.4265 11.5152L55.2564 10.8143L54.4982 8.58853L54.1396 8.36629L54.6177 7.1081L54.7817 4.43785L56.2093 3.17965L62.9615 2.95741L64.5087 2.36251L68.7165 0.102539L69.0717 0.399993" fill="white"/>
<path d="M139.381 124.404L138.954 125.693L138.978 126.722L139.525 127.604L140.477 128.268L140.928 128.343L141.949 128.049L143.114 127.092L143.544 124.442L144.139 123.703L145.635 123.191L147.134 123.043L148.893 123.006L149.774 123.338L150.939 124.921L151.485 125.95L153.719 128.381L154.409 129.481L156.574 132.131L157.408 133.752L157.978 134.155L160.925 135.297L163.992 135.81L164.395 137.137L165.181 137.725L165.704 137.762L167.821 136.511L168.248 137.284L168.723 137.465H170.84L171.698 136.658L172.838 135.113L174.929 133.345L176.759 134.559L177.449 135.26L178.02 136.511L179.14 137.284L179.662 137.465L180.97 137.355L183.156 138.46L184.177 140.778L184.68 141.072L185.298 140.703L185.82 139.783L186.175 138.569L186.319 137.171L187.292 137.099L188.197 137.725L188.46 138.091L188.911 139.527L188.816 139.892L188.15 140.556L187.152 142.248L186.247 143.168L183.918 144.416L183.204 145.079L183.3 145.889L183.631 146.402L184.061 146.843L185.486 147.541L185.772 147.872L185.82 148.313L184.843 149.674L184.56 150.334L184.417 151.363L184.584 151.842L185.82 153.274L186.056 155.37L185.677 156.362L184.249 157.5L182.61 158.382L182.231 158.786L182.039 159.08L181.872 160.331V160.735L182.347 161.911L182.231 165.436L182.371 166.646L183.276 167.603L185.677 169.292L185.725 169.952L185.083 170.54L184.273 170.578L183.204 169.292L182.299 168.557L181.517 168.41L180.947 168.595L180.755 168.889L180.684 169.877L181.753 171.053L183.324 172.301L183.467 172.705L183.324 173.221L180.994 174.907L177.736 179.054L176.783 179.898L175.642 180.268L174.833 180.743L172.244 181.515L171.65 182.175L171.363 183.239L169.628 186.1L168.535 187.311L165.157 189.878L164.232 191.711L164.324 192.446L164.611 192.959H166.749L167.654 193.766L167.725 194.829L167.275 196.515L164.894 201.941L163.47 206.922L162.971 207.985L162.353 208.792L161.52 209.305L160.307 210.587L159.119 212.307L158.712 213.261L158.094 213.993L157.312 214.506L156.028 214.943L154.931 215.018L154.265 215.456L152.435 217.473L151.984 218.386L152.056 220.143L152.483 221.022L153.388 221.754L153.695 222.998L153.507 223.368L153.172 223.621H152.65L152.175 223.439L151.27 222.708L150.273 222.855L148.917 223.621L147.896 225.012L147.872 225.781L148.726 226.879L151.058 228.452L153.172 230.171L153.695 230.978L153.627 231.601L152.817 233.539L151.724 234.784L150.058 237.122L148.869 238.039L147.8 239.758L147.561 240.562L147.585 241.146L150.058 249.41L150.105 254.159L150.556 255.77L150.225 258.58L150.129 262.382L150.321 266.068L149.511 266.399L149.18 266.286L148.107 265.521L146.611 263.77L146.205 263.695L145.184 264.098L144.115 263.185L143.708 263.476L143.234 263.295L142.332 263.657L141.973 263.404L141.786 262.963L141.283 262.744L140.713 261.869L139.122 260.153L137.55 259.859L137.386 259.349L136.884 259.312L135.412 260.081L133.558 259.021L133.104 258.618L133.127 258.218L134.104 256.354L133.701 256.06L133.271 256.354L132.345 256.388L132.035 257.377L131.536 257.339L130.942 256.023L130.61 255.66L130.491 255.038L130.563 254.71L131.44 254.929L131.655 253.978L131.181 253.797L130.276 254.197L129.705 254.087L129.418 253.722L129.207 252.699L129.347 251.164L129.159 250.689H128.66L127.659 250.285L125.33 250.395L125.091 250.032V249.52L124.165 248.973L123.998 247.875L123.356 247.837L121.904 248.607L121.358 248.275L120.955 247.434L120.409 247.253L119.934 246.631L119.814 245.865L119.384 245.461L118.957 245.389L118.933 244.73L118.721 244.583L119.647 242.719L118.674 241.475L119.743 240.599L118.861 239.427L118.674 239.574L118.127 239.098L117.768 238.476L117.673 237.929H117.15L117.318 237.013L116.959 236.794L117.198 236.138L116.911 235.844L117.365 235.368L117.15 235.074L116.771 235.331L116.296 234.527L116.508 234.418L116.177 234.271L115.033 232.513L114.869 231.672L116.604 230.722L117.485 232.26L118.195 231.929L118.482 232.223L118.697 232.038L118.769 231.891L118.079 231.272L117.577 230.356L118.008 229.44L117.721 228.855L118.219 227.867L117.84 227.135L118.031 226.954L117.649 226.588L117.601 225.819L118.031 226.075L119.34 226L119.958 226.954L120.193 227.064L121.454 227.098L122.833 226.845L124.094 226.11L123.428 225.378L123.499 224.318L124.094 223.074L124.401 222.889L125.733 222.998V222.598L126.235 222.561L126.14 222.085L126.447 221.354L126.399 221.097L126.898 220.694L128.517 220.509L130.347 219.962H132.533L133.534 220.475L134.412 221.388L134.531 221.279L134.746 220.803L134.722 219.962L134.412 218.533L134.08 218.277V217.764L133.247 216.776L132.868 215.456L131.751 215.347L131.536 215.2L131.321 214.506L130.726 214.396L130.539 214.14L129.49 214.211L129.063 214.468L128.732 214.396L128.684 214.615L128.158 214.762L127.922 214.506L128.684 213.186L132.441 208.936L134.914 205.859L135.744 205.127L135.983 204.799L135.935 203.513L135.672 202.966L134.938 202.563L134.627 201.5L134.436 201.571L134.364 201.428L133.558 201.794L132.964 201.718L132.94 201.059L132.321 201.096L131.679 200.18L131.751 198.898L131.512 198.053L131.632 197.872L131.369 197.431L131.56 197.322L131.369 196.881L130.06 196.183L129.777 195.855L129.657 193.766L129.374 193.8L129.347 193.653L130.539 193.397L130.726 191.27L129.657 191.236L129.183 191.383L128.92 189.803L129.063 189.509L129.087 187.164L128.824 186.613L127.496 187.639L127.209 186.723L126.853 186.688L126.686 187.126L126.447 187.201L126.235 185.512L125.829 184.852L125.733 184.34L124.592 184.008L123.903 183.495L123.855 183.714L123.073 183.936L122.714 183.827L122.594 184.117L121.86 183.714L119.316 184.524L118.79 184.487L118.363 183.861L117.84 184.008L117.222 183.936L116.935 183.68L116.556 183.789L116.081 184.34L115.842 183.789L114.035 183.899L113.346 182.394L111.16 182.726L109.732 182.76L109.445 183.054L109.469 183.348L109.899 183.936L108.711 184.852L108.185 184.302L106.023 183.936H105.692L105.524 184.449L105.333 184.377L105.524 183.348L104.336 183.386L104.025 183.68H103.383L102.693 183.276L103.977 182.357L104.691 182.1L104.954 182.394L105.333 181.919L105.476 182.028L105.736 181.919L105.975 181.184L106.286 180.965L105.453 180.045L105.476 179.789L106.522 179.091L106.832 177.037L107.379 176.23L106.996 175.57L107.259 175.019L107.307 173.771L106.785 172.965L109.469 171.128L110.231 171.053L111.04 170.578L110.921 169.99L112.229 169.658L112.253 169.364L111.682 168.667L112.444 168.154L113.752 167.822L113.656 167.491L114.988 166.243L115.012 165.949L115.818 164.738L115.89 163.709L116.911 160.478L117.031 160.365L117.553 160.844L118.721 160.991L120.05 161.47L121.597 161.579L122.335 161.801L124.831 161.689L125.474 161.983L125.617 161.911L125.781 161.066L127.448 159.046L127.588 157.353L128.445 156.803L129.039 155.517L128.278 155.333L128.09 154.82L129.278 153.644L129.254 153.24L128.541 153.274L128.206 152.686L127.707 152.724L126.782 153.24H126.59L126.423 152.98L126.14 153.127L126.163 152.871L125.805 153.093L125.426 153.056L125.211 151.144L124.879 150.3L125.354 150.19L125.163 149.418L124.07 149.931L123.189 149.599L122.454 150.262L121.501 148.792L121.31 148.901L121.194 148.717L120.764 149.049L120.409 148.313L119.196 148.607L119.1 148.204L119.934 147.948L120.289 147.541L120.979 147.469L121.836 147.1L122.642 146.771L122.239 145.592L120.979 144.235L121.122 143.13L123.26 141.954L123.499 141.513L124.401 140.665L123.213 138.056L122.977 137.834L124.118 138.056L125.593 137.872L125.45 137.171L125.805 136.73L125.617 136.179H126.092L126.495 135.701L126.734 135.663L126.806 135.222L126.946 134.083L124.425 133.42L123.643 133.051L123.428 132.425L123.237 130.699L127.113 126.575L125.901 126.281L125.187 125.177L126.874 123.594L130.726 124.404L131.416 124.11H132.605L133.367 123.741L133.841 123.85L134.914 124.623L136.601 124.329L136.314 121.755L135.696 120.684L137.574 119.727L138.575 121.495L139.381 122.305L139.501 122.746" fill="white"/>
<path d="M35.4983 175.091L36.236 174.725L36.902 174.688L38.4253 173.771L39.1835 173.953L39.064 174.431H40.1842L41.1337 174.065L41.4445 174.431L41.1815 176.045L42.2506 177.515L44.4876 178.066L46.3422 177.881L48.5759 176.78L49.9318 175.495L51.0008 175.423L51.0725 174.763L51.5234 174.394L51.8342 173.734L52.5241 173.402L53.9756 172.12L55.3998 171.31L55.5911 170.578L56.0897 171.163L57.3022 171.129L58.1117 170.797L58.6342 170.284L59.8228 169.877H60.2975V171.163L60.6561 171.423L63.6753 170.431L63.2484 169.587L63.9622 169.255L63.8427 168.814L64.2457 168.629L63.6514 167.969L63.9827 167.015L63.1289 165.986L64.2935 165.398L64.4609 165.032L63.6514 164.444H63.2962L62.3672 162.793L62.2238 162.865L62.3194 163.084L61.7491 163.453L61.4417 162.902L60.2975 163.306L60.3214 163.012L59.9901 162.755L60.7039 162.205L60.0379 161.176L59.4676 160.882L59.775 160.403L60.3453 160.147L60.2736 159.521L60.014 159.155L60.3214 158.786L60.2053 158.382L61.2982 157.538L61.3699 157.059L61.8925 156.399L61.7491 156.252L62.8181 155.74L62.4868 154.782L62.3194 154.745L62.176 153.753L62.2477 153.35L62.6063 153.056L62.1282 152.909L61.9403 152.392L62.176 152.136L62.7703 152.064L63.0572 151.77L63.5319 151.804L63.6753 151.216L63.0572 151.144L62.702 150.85L63.1528 150.225L62.8181 149.196L62.3433 148.498L62.6063 148.129L62.5824 147.725L63.508 146.772L64.1023 146.477L66.0286 146.549L66.0046 145.705L65.8168 145.373L66.3633 145.004L66.5272 144.306L66.435 143.424L67.8114 142.946L67.5279 142.286L69.7138 141.328L70.998 140.446L72.0226 140.371L70.0724 138.901L70.1885 138.385L69.5703 137.981L69.7138 137.393L69.6181 136.99L70.4993 135.037L70.571 134.487L71.903 133.42L72.5451 133.311L72.4495 132.244L72.9242 131.984L73.5185 132.022L74.6115 132.795L75.0896 132.463L74.9223 132.06L76.9203 130.846L77.4667 130.699L77.8458 130.145L77.7502 129.594L78.061 129.078L78.3684 129.372L78.061 129.776L78.1566 130.552L80.0112 130.699L80.3664 130.88L80.462 131.065L80.2229 132.207L80.3425 132.425L82.9587 133.53L84.1951 133.345L84.2907 133.53L85.0523 133.639L85.6705 134.709L85.6466 135.184L85.3358 135.479L85.6705 136.179L86.7634 136.326L88.1672 136.767L88.9732 138.091L91.9241 136.217L93.7069 134.743L93.8948 134.928L94.2295 134.193L97.44 131.875L97.5595 132.097L97.843 132.022L98.4373 133.089L98.4851 133.79L98.6763 134.118L98.509 134.302L98.6285 135.222L100.91 133.899L101.34 133.492L102.553 133.605L103.977 134.155L106.761 133.273L107.474 133.492L107.57 135.037L108.093 135.81L108.328 136.99L108.233 138.238L107.71 139.417L107.901 140.005L108.424 140.115L108.164 140.556L108.639 140.593L108.755 140.371L109.445 141.072L110.019 141.219L109.992 141.585L110.159 141.66L109.971 141.917L110.565 142.064L110.992 142.395L111.491 142.433L111.921 142.761L112.516 144.122L113.274 144.785L114.582 145.558L114.964 144.857L115.391 144.894L115.559 143.941L115.962 143.647L117.816 142.983L118.195 144.05L118.387 143.865L118.79 144.491L119.1 146.44L119.91 146.549L120.48 146.881L121.194 145.961L121.836 147.1L120.979 147.469L120.289 147.541L119.934 147.948L119.1 148.204L119.196 148.608L120.409 148.313L120.764 149.049L121.194 148.717L121.31 148.902L121.501 148.792L122.454 150.262L123.189 149.599L124.07 149.931L125.163 149.418L125.354 150.191L124.879 150.3L125.211 151.144L125.426 153.056L125.805 153.093L126.163 152.871L126.14 153.127L126.423 152.98L126.59 153.24H126.782L127.707 152.724L128.206 152.686L128.541 153.274L129.254 153.24L129.278 153.644L128.09 154.82L128.278 155.333L129.039 155.517L128.445 156.803L127.588 157.353L127.448 159.046L125.781 161.066L125.617 161.911L125.474 161.983L124.831 161.689L122.335 161.801L121.597 161.579L120.05 161.47L118.721 160.991L117.553 160.844L117.031 160.366L116.911 160.478L115.89 163.709L115.818 164.738L115.012 165.949L114.988 166.243L113.656 167.491L113.752 167.822L112.444 168.154L111.682 168.667L112.253 169.364L112.229 169.658L110.921 169.99L111.04 170.578L110.231 171.053L109.469 171.129L106.785 172.965L107.307 173.771L107.259 175.019L106.996 175.57L107.379 176.23L106.832 177.037L106.522 179.091L105.476 179.789L105.452 180.045L106.286 180.965L105.975 181.184L105.736 181.919L105.476 182.028L105.333 181.919L104.954 182.394L104.691 182.1L103.977 182.357L102.693 183.276L103.383 183.68H104.025L104.336 183.386L105.524 183.348L105.333 184.377L105.524 184.449L105.692 183.936H106.023L108.185 184.302L108.711 184.852L109.899 183.936L109.469 183.348L109.445 183.054L109.732 182.76L111.16 182.726L113.345 182.394L114.035 183.899L115.842 183.789L116.081 184.34L116.556 183.789L116.935 183.68L117.222 183.936L117.84 184.008L118.363 183.861L118.79 184.487L119.316 184.524L121.86 183.714L122.594 184.117L122.714 183.827L123.073 183.936L123.855 183.714L123.902 183.495L124.592 184.008L125.733 184.34L125.829 184.852L126.235 185.512L126.447 187.201L126.686 187.126L126.853 186.688L127.209 186.723L127.495 187.639L128.824 186.613L129.087 187.164L129.063 189.509L128.92 189.803L129.183 191.383L129.657 191.236L130.726 191.27L130.539 193.397L129.347 193.653L129.374 193.8L129.657 193.766L129.777 195.855L130.06 196.183L131.369 196.881L131.56 197.322L131.369 197.431L131.632 197.872L131.512 198.053L131.751 198.898L131.679 200.18L132.321 201.096L132.94 201.059L132.964 201.718L133.558 201.794L134.364 201.428L134.436 201.571L134.627 201.5L134.938 202.563L135.672 202.966L135.935 203.513L135.983 204.799L135.744 205.127L134.914 205.859L132.441 208.936L128.684 213.186L127.922 214.506L128.158 214.762L128.684 214.615L128.732 214.396L129.063 214.468L129.49 214.212L130.539 214.14L130.726 214.396L131.321 214.506L131.536 215.2L131.751 215.347L132.868 215.456L133.247 216.776L134.08 217.764V218.277L134.412 218.533L134.722 219.962L134.746 220.803L134.531 221.279L134.412 221.388L133.534 220.475L132.533 219.962H130.347L128.517 220.509L126.898 220.694L126.399 221.097L126.447 221.354L126.14 222.086L126.235 222.561L125.733 222.598V222.998L124.401 222.889L124.094 223.074L123.499 224.318L123.428 225.269L123.547 225.634L124.094 226.11L122.833 226.845L121.454 227.098L120.193 227.064L119.958 226.954L119.34 226L118.031 226.076L117.601 225.819L117.649 226.588L118.031 226.954L117.84 227.135L118.219 227.867L117.721 228.855L118.008 229.44L117.577 230.356L118.079 231.272L118.769 231.891L118.697 232.038L118.482 232.223L118.195 231.929L117.485 232.261L116.604 230.722L114.869 231.672L115.033 232.514L116.177 234.271L116.508 234.418L116.296 234.527L116.771 235.331L117.15 235.074L117.365 235.368L116.911 235.844L117.198 236.138L116.959 236.794L117.318 237.013L117.15 237.929H117.673L117.768 238.476L118.127 239.099L118.674 239.574L118.861 239.427L119.743 240.599L118.674 241.475L119.647 242.719L118.721 244.583L118.933 244.73L118.957 245.39L119.384 245.461L119.814 245.865L119.934 246.631H119.599L119.292 248.35L118.957 248.532L117.577 248.022L117.198 248.422L116.795 248.094L115.296 248.607L114.37 248.132L114.394 249.044L114.227 249.557L111.99 249.629L111.088 249.373L109.565 249.848L108.806 249.263L107.474 249.41L106.569 248.973L105.026 249.191L104.739 248.75V248.132L104.24 248.166L103.407 248.973L101.528 249.995L99.8649 250.251L99.4141 251.092V251.564L100.101 253.175L100.814 253.94L100.886 254.525L100.008 254.853L99.5063 254.05L99.1511 254.269L98.7242 255.038L98.246 255.219L96.6544 256.498L96.2514 256.464L96.5588 255.551L96.5349 254.891L96.0602 254.929L94.4686 255.585L94.0382 255.438L93.4679 254.453L93.0409 254.269L92.8019 255.185L92.7779 258.361L91.948 260.19L91.8285 261.541L89.7826 262.491L88.9493 261.722L88.3072 261.797L87.5968 262.197L86.8352 263.001L86.0257 265.155L86.6439 267.822L86.62 268.735L85.0762 268.588L84.0516 268.259L81.9853 266.909L81.8179 266.618L81.9136 264.683L81.6028 264.317L81.0085 264.208L80.0351 264.351L80.2708 263.951L80.1751 263.77L79.0822 264.351L78.2044 264.427L77.4906 264.389L76.4216 263.914L75.9435 264.023L74.8983 265.63L74.1845 267.128L73.8293 268.588L72.733 270.889L70.9023 270.085L69.7377 270.123L69.3586 270.304L69.1434 270.013L69.502 269.063L69.0717 268.188L68.5969 267.931L66.5033 268.444L66.0286 268.772L65.6255 268.588L65.243 268.663L64.8878 268.953L64.5087 268.844L63.5319 267.64L62.6541 267.422L58.4908 269.647L58.0638 269.429L57.7291 268.735L57.9204 267.859L58.419 267.493L59.0133 267.75H59.4676L59.8228 266.068V265.339L59.0372 265.011L58.7059 265.121L58.3268 265.849L57.8009 266.068L56.6601 264.17L56.1137 261.322L56.7079 260.443L56.8753 259.496L56.6362 258.252L55.615 257.558L55.212 256.17L55.2359 254.744L54.8056 254.125L53.9961 253.978L52.4763 254.159L51.6429 254.05L50.6217 253.137L50.1709 252.956L49.6449 252.262L48.6476 251.602L47.7664 251.455L45.8914 252.371H45.5088L42.5374 251.017L41.325 251.236L39.6378 252.405L37.5919 252.99L34.7367 251.93L33.169 252.334L32.6943 251.896L32.3117 251.858L31.6218 252.149L31.0993 251.787L30.2454 250.945L29.6511 249.848L28.4626 249.044L27.1989 248.46L27.1306 247.072L26.9154 246.34L25.5356 245.718L24.1319 244.583L23.681 243.889L23.4898 242.282L23.6571 241.769L25.4878 240.856L25.8942 240.343L24.7501 238.295L24.2514 237.051L24.3709 236.428L24.1558 236.1L22.3251 236.722L20.4227 237.782L19.4494 238.11L17.7861 236.028L17.7621 235.515L18.9268 235.221L19.1181 235.003L19.1864 235.184L19.4015 235.112L20.2827 234.052L21.1366 233.392L21.7308 233.245L22.1851 233.539L23.2302 232.845L25.013 232.37L25.44 232.076L26.0581 231.125L25.7269 229.953L26.0103 229.112L27.0589 228.708L27.8444 227.867L28.4387 227.611L29.1969 227.539L29.5077 227.211L29.6751 226.219L30.2215 226L31.4101 224.869L31.837 224.94L32.0044 224.756L31.9087 223.477L32.0522 222.817L31.3144 222.598L31.8131 221.497L32.2878 221.207L31.9804 219.74L31.2427 219.374L30.8158 220.072L30.4094 220.328H28.507L27.677 219.962L27.0828 218.899L26.7481 216.776L27.4619 215.713L29.2208 214.8L31.0754 213.152L32.4074 212.639L32.9777 212.198L33.2168 210.587L32.8582 209.633L33.169 207.948L34.5249 206.153L35.6178 205.199V204.908L35.0475 204.173L35.0236 203.698L35.9047 202.344L36.9738 202.013L38.2819 201.975L39.327 202.71L40.4438 201.571L40.6112 201.059L40.0408 200.142L40.0169 199.079L39.6139 198.823V196.809L39.4465 196.258L39.6856 195.523L40.2321 195.01L39.6139 194.022L40.256 192.85L41.3728 192.224L41.5162 191.82L41.1576 191.417L40.7785 191.345L40.1125 191.82L39.566 191.711L39.5182 191.27L39.7778 190.61L39.5421 190.429L38.7566 190.904L38.0906 190.282L37.2811 190.576L36.7347 189.841L36.1882 190.391L35.7852 190.429L34.9758 189.803L34.904 189.219L34.1185 188.483H33.0017L32.3835 187.933L31.0993 187.752L30.0542 185.731L30.1976 184.23L30.6724 182.322L30.9353 181.919L30.9558 180.965L32.1478 179.201L33.6916 177.991L34.501 176.78L35.6418 175.532" fill="white"/>
</g>
<defs>
<clipPath id="clip0_125_2">
<rect width="189" height="271" fill="white"/>
</clipPath>
</defs>
</svg>
