<svg width="142" height="284" viewBox="0 0 142 284" fill="none" xmlns="http://www.w3.org/2000/svg">
<mask id="mask0_95_50" style="mask-type:luminance" maskUnits="userSpaceOnUse" x="0" y="0" width="142" height="284">
<path d="M12.9701 249.088L17.0373 246.968L19.2089 245.526L18.8906 243.901L19.7394 241.011L20.0153 240.057L20.0506 239.937L20.1779 239.492L19.994 238.877L19.803 238.63L18.2823 236.68L17.6315 233.747L18.3035 232.751L18.2893 231.698L18.8269 229.847L18.1903 227.968L19.216 225.975L18.1974 223.311L18.3318 222.71L16.9878 220.082L17.1081 219.601L17.1647 219.361L16.8605 218.824L12.9559 215.397L12.5315 213.2L12.3052 212.733L12.1071 212.338L10.1831 210.26L8.47138 207.745L8.18136 206.565L8.45722 205.152L8.0894 203.936L8.2521 202.191L8.63405 201.513L8.72601 200.898L8.83213 200.262L9.65971 199.315L11.1451 198.262L10.5439 195.09L9.63141 192.963L9.54653 191.585L8.5209 190.589L8.15306 189.705L7.75695 188.744L5.30246 186.695L4.50317 186.307L3.90192 184.59L4.31925 182.321L4.5456 181.099L4.55975 181.007L4.85684 177.333L4.39706 174.81L3.66849 173.171L3.07432 169.476L3.50581 168.515L2.86212 166.677L3.33604 163.851L2.82675 161.654L2.76309 160.756L2.59333 158.17L2.94701 156.884L2.67821 154.891L2.94701 153.966L3.57654 153.174L3.63312 152.927L3.84533 152.009L3.25116 148.348L3.20872 147.592L3.03189 144.3L2.92578 143.685L2.86212 143.642L2.40942 143.381L2.33869 142.773L2.64284 141.968L2.78431 139.707L2.7065 139.318L2.31746 137.382L2.68528 135.736L1.43328 133.927L1.99209 132.683L2.01331 131.878L1.46865 131.213L0.860329 131.03L0.711792 130.578L1.695 128.578L1.44036 127.56L1.80818 126.26L2.28917 124.55L2.31039 124.43L2.82675 121.201L3.55531 119.187L3.58361 119.102L3.64727 118.919L3.51288 118.488L3.07432 117.117L2.90456 116.594L2.82675 116.559L2.50138 116.417L1.88599 116.601L1.70207 116.036L2.5721 115.054L3.92314 113.527L4.3334 113.068L6.1159 111.683L6.2008 111.62L6.31396 111.584L7.38914 111.245L8.44308 111.429L8.91701 112.1L10.0841 113.746L10.7207 117.286L11.6827 117.597L11.9232 118.127L12.2627 118.869L12.192 119.512L12.1001 120.445L12.6376 123.003L12.673 123.172L14.0735 123.815L15.46 123.413L15.7075 123.151L16.3795 122.423L16.3158 121.816L15.8065 121.159L14.8516 120.607L14.0311 119.371L14.2858 118.933L15.2619 118.876L15.4317 118.686L15.6792 118.403L15.5307 118.184V118.149H15.5024L13.8472 115.789L14.3494 114.997L14.0382 114.262L13.6067 113.761L13.2955 113.393L12.7579 112.121L12.1779 112.065L11.704 112.015L11.3149 111.478L11.9444 110.645L12.5598 108.836L13.253 108.814L14.0453 107.21L14.2433 106.815L13.826 105.755L14.3353 105.041L14.2787 104.151L12.8357 100.427L13.055 99.6216L12.864 99.2542L11.322 99.0917L9.54653 100.293L8.73309 100.187L7.63671 98.8232L8.16014 98.1943L8.56333 97.7138L9.04432 96.3077L9.73753 96.2441L10.7703 95.587L11.2017 96.2017L11.6474 96.2158L12.4962 94.9793L13.8401 94.9369L15.1204 96.2794L17.4688 98.7455L17.7164 98.5123L16.9737 97.1203L15.9339 96.5338L15.2619 95.6364L14.7102 94.8945V94.5695L15.4387 94.8027L16.0824 95.0076L17.3061 96.6045L17.3627 95.9615H17.8932L18.5228 96.873L18.6642 95.9897L17.1434 94.8309L15.5944 94.0607L15.5307 94.0325L14.7809 92.8454L14.7455 92.5981L15.4034 92.3649L15.6014 92.0399L15.6509 91.9621L15.4317 90.8669L15.6863 90.3511L16.6695 91.9056L17.1929 92.0752L17.7305 91.7219L18.6996 91.8632L19.1735 92.4356L19.3928 93.4107L19.9516 93.7852L20.3194 93.5944L20.2558 92.7818L20.5387 92.7465L20.956 93.0574L21.2602 93.2835L20.2699 98.7172L19.5979 100.145L19.4989 100.349L18.4945 101.339L18.0842 103.105L18.5015 104.052L18.7491 104.094L19.7182 104.25L19.987 105.635L20.0011 105.712L19.2725 108.687L20.2982 111.189L20.277 111.994L21.0409 112.206L21.3521 113.259L22.3707 113.45L22.7527 113.775L23.2337 113.4L23.361 111.994L22.8163 111.895L22.9012 111.584L23.2266 111.273L23.8561 111.217L24.1603 111.62L23.9835 112.135L23.8137 112.63L24.7969 113.994L24.3442 114.997L23.6015 115.506L22.7315 114.601L22.2434 114.75L20.5741 117.301L20.758 118.035L21.4724 118.537L20.8782 119.781L21.5785 121.003L22.0666 121.06L22.5263 120.381L22.6183 119.738L23.1134 119.223L24.6484 119.533L25.476 120.6L26.0843 120.657L26.2187 120.134L25.1081 118.777L25.2001 118.502L26.5158 119.618L26.8836 119.385L25.2708 116.891L26.8341 115.866L27.2514 115.35L27.8668 114.594L27.018 112.354L26.6148 112.263L26.438 112.708L26.8624 113.768L26.3743 113.838L25.5891 112.602L25.8862 111.923L26.7916 111.86L27.5909 111.033L26.8482 109.959L25.9216 109.768L25.766 109.401L26.3743 108.122L26.2965 107.74L26.2682 107.585L26.6572 106.751L26.4733 106.059L27.2231 105.267L27.4495 104.384L27.3575 104.186L26.9472 103.239L28.0083 101.402L28.6732 100.816L28.2841 100.279L28.0648 99.2613L29.0198 98.6395L29.4442 97.7562L29.6422 96.5056L30.0383 96.4349L30.6325 97.7492L31.7643 97.9823L32.3443 98.8938L32.4433 99.8265L33.9287 100.314L35.2939 99.4238L36.0296 98.5052L36.2842 97.8127L35.7042 96.1523L36.4893 94.9793L36.942 94.308L36.8006 93.7569L36.3267 93.7428L35.5839 94.7391L35.1878 94.8027L32.6909 94.0961L32.5282 94.3292L33.5326 94.8309L33.3699 94.9793L32.8253 94.9581L31.6653 94.2162L30.6113 94.7532L30.1162 95.0641L29.1117 94.7108L28.4893 93.7216L27.1241 93.1987L26.8058 92.7465L25.094 90.2663L24.5281 87.2986L23.8703 86.1045L24.5069 85.1082L23.9976 81.2431L23.9552 81.0806L23.4105 79.201L24.5493 77.8161L24.712 77.6183L25.3274 75.8588L25.865 75.6751L26.3814 75.1593L27.2443 74.2973L27.2868 73.1031L26.7563 72.7852L25.5467 69.3864L25.766 67.2455L26.2753 66.3693L27.3858 65.8393L28.1427 65.0479L29.3947 62.4123L29.7695 62.059L30.8235 62.3346L31.8209 63.0483L32.9172 64.3767L33.1436 65.0338L33.7378 65.4931L34.2683 67.0123L33.9004 67.7047L33.3204 68.807L33.3417 69.4147L32.8394 69.8033L32.8182 70.6512L33.9783 69.9164L35.4778 69.9588L35.7537 68.8353L37.5716 67.9591L37.9111 67.2808L37.4938 66.2138L37.5574 65.4083L38.8589 64.0658L39.0004 63.2603L38.4133 62.4689L38.7175 61.6704L38.3567 59.8333L37.8474 59.3033L37.2038 58.9995L34.919 59.1761L34.5159 58.7451L34.4097 58.6391L33.8509 58.095L33.9358 56.5971L34.431 54.7882L34.148 53.4386L34.7705 52.9722L35.4991 51.4954L35.2303 50.9584L34.3956 51.5449L33.6175 50.2236L33.8368 49.5029L34.6644 49.0365L35.5486 49.4251L36.5035 48.8457L37.2674 47.694L37.2391 47.2064L38.2294 46.6694L39.4107 45.122L39.7714 42.4581L39.3753 39.1724L39.5026 36.1411L38.7953 35.272L38.5407 32.912L38.9014 31.7108L39.6441 31.4069L40.2312 32.9049L40.3656 33.2512L40.1817 33.979L40.691 34.6008L41.2569 34.7774L41.4408 35.4345L41.8015 35.5688L42.2754 34.8127L43.5133 34.1627L44.4753 33.2582L44.5885 30.6721L46.0244 31.6825L46.3144 32.8696L45.4514 34.4665L45.6353 34.6149L45.6919 34.6573L46.2507 35.0954L47.5522 33.873L47.63 33.237L47.6583 33.0251L47.333 32.2831L46.9722 31.4635L47.1986 30.5802L46.279 30.1068L46.0809 29.7323L46.4629 26.2983L47.0571 25.3797L47.1349 24.0866L46.9439 23.5143L47.4674 22.3555L47.4108 21.0765L46.3215 20.7162V20.4689L47.9908 19.7835L51.867 18.1512L53.112 17.381L53.5081 16.3353L53.9254 16.0244L54.5196 15.233L55.0077 15.3319L55.7999 16.1657L56.3728 15.982L57.9644 14.5264L58.6788 13.8622L59.4639 14.696L59.5276 15.346L60.1713 15.7276L60.914 15.5086L61.8194 15.1694L63.7292 14.1307L64.571 13.2616L65.2854 12.3925L65.059 11.8625L65.5754 10.9016L65.4905 9.68622L66.1484 8.16704L69.4941 5.92714L69.5648 5.87768L69.8053 5.55264L70.2863 4.88844L70.1024 4.23838L70.4207 3.0301L70.838 2.79692L71.0149 3.61657L71.4181 3.78616L73.7028 3.6943L75.4782 3.06543L76.2775 3.57418L77.3456 3.40459L78.3642 2.13979L79.0574 0.945643L79.7223 0.641807L81.7241 0.500488L83.0539 2.3235L83.1812 2.12566L84.3908 2.52842L85.3457 3.32687L87.7224 3.56711H87.8073L88.1963 3.61657L89.1512 4.45742L90.8064 5.12162L91.1601 5.65863L94.4846 7.46751L98.6792 10.4776L98.0779 11.5092L98.2618 12.0816L98.0284 14.1448L98.5448 14.6889L97.9011 16.9712L98.2477 18.8932L98.4245 19.0839L100.179 20.9776L100.115 21.5853L100.582 22.5321L102.067 24.4823L103.397 25.0123L104.748 26.0298L105.031 28.8349L104.571 30.3541L105.074 31.3434L104.89 33.3218L105.632 34.3605L105.816 34.4524L108.922 36.0422L110.152 37.0526L111.815 37.3494L115.931 37.2364L117.912 36.4096L121.824 36.5368L122.474 36.4026L124.695 37.4483L125.141 38.0136L124.752 38.2892L123.748 37.7522L123.189 37.9006L127.433 41.2074L127.581 41.1014L127.093 40.4938L127.072 39.8578L128.027 40.4867L130.8 41.5113L131.804 42.0129L133.014 43.9137L133.12 46.9591L132.738 49.4605L133.742 50.6758L134.966 53.7777L135.044 55.523L135.567 57.3955L135.801 60.8366L136.19 61.7552L136.989 63.6277L136.961 66.1714L136.579 66.6448L136.133 66.553L136.275 62.801L135.369 61.5998L134.817 59.48L134.499 54.7458L134.096 54.6893L133.94 55.8622L133.466 56.8232L133.643 58.5614L133.99 59.1549L134.287 59.6708L135.85 63.7902L135.886 63.8821L135.447 65.0833L134.832 65.3942L134.634 66.6802L134.089 67.3938L133.141 67.8531L131.231 67.9238L130.199 68.5032L129.47 68.3689L129.449 69.0543L130.467 69.0755L130.58 69.3652L129.986 70.1213L129.809 70.842L130.382 70.736L132.186 68.5597L132.448 68.7222L132.589 68.8141L131.21 71.8524L131.04 73.7108L129.385 73.301L128.989 72.8911L128.932 72.0362L128.444 72.1845V71.8242L127.709 70.8773L127.129 71.3861L126.039 71.0752L125.721 69.1745L125.254 71.697L125.481 72.2693L126.11 72.4743L127.093 73.0395L127.355 73.8097L127.907 74.4315L128.565 74.3255L130.637 75.8306L131.351 76.622L131.5 77.1519L131.939 77.3568L132.328 77.4416L133.184 78.2613L133.509 78.1482L133.523 77.7454L133.94 77.4345L133.834 76.9046L132.83 76.4382L133.41 76.0072V75.6539L133.339 74.8413L133.615 74.2619L133.459 73.8309L134.959 74.4598L135.376 74.6294L135.518 76.4948L136.268 77.2084L136.367 77.7454L134.987 80.8969H134.535L134.237 81.3632L134.174 83.7091L133.127 84.9739L132.646 84.7195L132.009 84.2603L131.401 84.338L129.145 84.6418L128.798 84.1896L129.159 83.8292L130.022 83.5325L130.22 83.4618L131.104 83.5042L131.182 82.6563L130.835 82.0203L130.757 81.879L130.015 81.5964L129.795 81.1936L130.34 80.8403L130.644 80.6425L130.389 80.4164L130.022 80.4376L129.145 80.487L128.961 80.2539L127.779 80.4234L127.136 80.049L125.417 80.5648L123.882 81.448L123.769 81.4621L122.913 81.5964L121.958 82.4231L122.156 82.7481L123.917 83.6808L125.014 83.589L125.495 83.8434L124.823 84.8397L125.035 85.8501L125.65 85.6169L125.947 85.087L125.976 84.1401L126.839 83.7868L127.588 83.9282L127.447 84.6348L126.619 85.3484L126.287 86.2105L126.082 87.8568L126.244 89.4043L126.633 89.9413L127.228 90.3652L127.39 90.2451L126.626 88.408L127.008 87.7296L127.511 87.341L128.069 87.7579L129.654 87.8003L129.958 88.5351L129.413 89.3265L129.385 90.3794L129.703 91.5523L129.279 92.3084L128.805 94.626L128.388 94.9581L127.532 95.6364L125.756 96.0392L125.183 94.9016L125.24 94.202L124.78 94.0325L124.95 93.5802L123.571 93.7922L123.599 94.3575L122.948 95.9615L123.316 95.7283L123.889 95.7848L123.62 96.7105L122.962 96.8518L120.168 97.8622L119.213 100.547L119.638 101.254L119.277 102.413L119.574 104.653L120.175 104.914L120.713 104.653L120.734 105.38L119.836 107.09L119.808 107.14L119.058 108.567L119.362 109.041L119.426 109.493L119.228 109.563L118.386 111.182L117.509 112.185L116.893 115.089V115.372L117.905 116.46L118.428 116.559L119.602 117.972L119.56 120.685L120.515 121.081L121.01 120.848L122.8 122.162L123.153 123.589L123.967 124.713L124.95 127.094L124.773 128.712L125.035 129.369L124.455 131.093L125.572 135.269L125.615 135.425L125.127 136.824L125.219 138.937L124.66 139.806L124.674 143.664L124.554 145.515L124.738 146.172L125.445 146.921H126.004H126.457L126.931 147.26L127.546 148.292L127.086 148.723L126.895 149.528L125.799 149.613L124.731 150.475L124.306 150.822L124.08 151.662L124.129 151.811L124.448 152.807L126.244 153.549L127.298 153.669L127.39 153.485L127.553 153.153L128.084 153.047L128.557 153.521L129.42 154.39L130.177 154.736L130.333 154.722L131.111 154.651L131.5 153.768L131.974 153.443H132.568L133.608 153.916L134.605 155.69L135.001 155.824L135.737 155.612L136.296 155.916L136.784 157.103L137.788 157.301L138.107 156.298L138.552 156.354L138.609 156.693L138.687 157.209L138.241 158.368L137.887 160.544L137.711 160.678L136.932 161.279L137.244 163.152L137.576 165.144L139.974 167.525L140.193 167.744L140.236 167.787L140.137 169.525L140.851 173.673L140.618 174.252L139.684 175.072L139.493 174.69L139.139 174.535L138.871 175.899L138.842 176.047L139.047 177.227L140.363 178.937L140.42 179.742L140.257 180.308L140.009 181.141L140.193 182.823L140.377 184.554L140.978 184.738L140.554 185.367L140.278 186.596L140.222 186.858L140.151 187.748L140.448 188.992L140.512 189.253L139.953 190.327L139.684 191.083L138.97 191.825L138.757 193.443L138.878 194.701L139.26 195.365L139.769 198.135L140.787 200.354L141.573 200.905L141.714 201.47L141.056 203.993L140.837 204.848L138.906 208.345L136.112 208.494L135.574 208.96L134.365 211.271L134.612 211.878L135.037 212.952L135.815 212.733L135.921 213.186L133.799 216.351L131.55 221.008L129.031 223.841L128.352 224.908L126.733 227.487L124.179 229.105L123.465 229.932L122.312 233.253L121.42 234.744L120.522 236.235L119.942 237.994L120.041 240.022L118.308 243.725L118.549 246.049V246.12L118.174 247.809L113.717 254.868L111.298 263.813L110.188 265.876L109.006 266.279L108.066 267.869L107.903 268.583L106.283 268.335L104.692 269.014L102.647 268.745L102.294 271.042L101.53 272.313L101.402 273.804L102.103 274.666L101.028 276.666L101.162 277.436L100.695 278.27L99.8322 278.97L97.9152 279.839L95.9276 282.199L95.489 282.715L94.8949 282.573L94.7959 281.761L95.0859 280.072L94.909 279.217L93.8622 277.931V276.313L93.1194 275.762L94.0319 274.864L94.6402 274.765L95.5527 275.316L96.9108 273.274L97.6535 272.165L98.2194 268.201L97.9435 267.827L97.505 267.961L97.0806 269.975L96.3308 270.893L95.8569 272.257L95.4325 272.024L95.9418 271.006L96.444 265.693L95.4254 265.947L94.902 266.512L94.7039 268.095L94.3361 268.229L93.9046 267.996L93.6995 267.883L93.1619 267.593L92.8436 267.855L92.9072 268.597L91.7967 268.576L90.8842 267.678L90.3891 267.516L90.283 268.597L89.9222 268.583L88.5924 266.498L87.9558 267.07L86.8453 270.003L86.5765 269.628L86.5977 268.83L87.199 268.201L87.5385 266.555L88.1468 266.279L87.6729 261.99L87.1212 261.948L87.206 263.58L87.5243 264.456L87.1565 264.534L86.9019 264.075L86.5411 263.99L86.244 266.371L85.3457 268.258L85.3245 266.11L84.9425 265.53L84.3342 265.551L82.7002 266.385L82.6436 266.484L82.2688 267.176L80.6772 266.435L79.6586 266.851L79.0645 267.883L78.1803 267.94L77.8408 268.413L77.3386 267.834L77.862 266.505L77.7276 266.145L76.3624 268.003L76.2068 269.176L75.4217 269.72L76.129 270.391L76.1856 271.162L75.8107 271.473C75.6197 271.748 68.3411 278.461 68.0936 278.616C67.273 279.132 66.2332 279.203 65.3278 279.492C64.7761 279.669 58.5797 283.096 57.929 283.407C51.9802 282.446 36.7581 280.058 35.1737 279.591C34.4876 278.687 19.0108 260.669 18.6501 260.054C18.4874 259.771 13.4723 249.928 12.8994 249.123L12.9701 249.088Z" fill="white"/>
</mask>
<g mask="url(#mask0_95_50)">
<path d="M172.993 -6H-12.0912V288H172.993V-6Z" fill="white"/>
<path d="M-175 -6H39.0499L92.5606 10.3365L39.0499 26.673L92.5606 43.0094L39.0499 59.3459L92.5606 75.6824L39.0499 92.0189L92.5606 108.355L39.0499 124.692L92.5606 141.028L39.0499 157.365L92.5606 173.701L39.0499 190.038L92.5606 206.374L39.0499 222.711L92.5606 239.047L39.0499 255.384L92.5606 271.72L39.0499 288.057H-175V-6Z" fill="white"/>
</g>
</svg>
