<svg width="407" height="299" viewBox="0 0 407 299" fill="none" xmlns="http://www.w3.org/2000/svg">
<g clip-path="url(#clip0_113_6)">
<path d="M356.468 270.126L357.088 271.641L357.24 271.687L358.864 272.208L360.091 272.214L360.997 272.974L361.897 272.81L362.703 273.395L363.211 273.313L364.906 269.781L366.454 269.038L365.73 267.962L366.185 266.833L366.706 261.371L367.068 260.897L368.347 260.961L368.897 261.499L369.44 261.131L369.773 261.488L369.259 262.657L371.053 263.576L371.561 262.505L371 261.488L371.742 261.575L372.502 262.558L374.716 261.955L373.291 260.452L372.841 260.488L372.911 259.23L372.455 258.435L373.25 258.148L372.058 257.481L371.888 256.481L372.175 255.399L371.742 255.043L371.024 255.943L370.609 257.399L368.692 256.639L368.277 257.166L367.886 257.148L367.296 255.633L367.249 254.534L368.307 253.545L368.517 251.691L369.317 250.416L370.831 249.34L370.837 247.299L370.737 246.866L372.66 246.638L372.952 246.287L373.565 245.568L373.852 245.229L374.348 244.322L374.272 243.714L379.432 238.556L380.279 238.386L381.08 237.164L382.897 237.591L384.112 236.941L386.455 234.163L386.771 232.555L386.929 231.771L388.004 230.514L388.845 228.525L388.991 226.999L391.907 223.975L391.726 222.32L393.304 219.22L394.408 215.384L395.413 211.875L395.331 210.336L397.037 205.108L398.159 204.178L398.925 202.57L399.562 199.423L402.372 196.563L403.599 193.832L404.184 193.323L404.306 193.212L404.447 193.241L405.755 193.458L406.965 194.902L406.994 196.762L407 197.154L404.715 207.342L404.447 211.939L403.208 214.945L402.623 218.092L399.784 225.864L398.598 229.256L398.077 230.742L397.99 232.263L397.978 232.555L397.873 234.35L396.693 236.368L394.975 237.924L390.686 245.428L389.079 250.001L389.126 251.218L388.758 252.691L388.547 253.545L387.77 254.317L387.607 258.212L386.228 262.856L383.061 269.547L381.565 274.296L381.682 275.237L380.232 280.15L379.864 281.104L378.479 284.665L378.111 287.227L377.854 287.987L375.85 293.912L373.56 297.088L370.393 299L368.868 298.316L366.513 294.567L366.887 293.871L366.402 292.584L366.974 291.865L367.535 291.163L367.547 289.958L365.408 285.174L365.572 282.168L365.239 281.104L363.135 277.758L360.5 274.928L358.993 273.916L357.614 273.682L356.457 272.302L355.206 269.722L356.468 270.126Z" fill="#F5EBDC"/>
<path d="M350.239 245.305L351.344 244.486L350.806 244.071L349.673 244.451L349.375 243.726L349.404 243.538L349.69 241.93L348.206 240.316L346.739 239.474L346.278 238.789L346.062 237.462L346.196 234.274L347.108 234.076L348.656 234.473L349.445 233.467L347.3 233.52L345.004 233.075L344.887 232.555L344.461 230.683L345.693 229.654L347.02 229.941L348.86 227.952L350.386 227.753L351.461 226.537L351.876 226.069L352.892 225.958L353.079 224.595L356.328 222.963L356.825 222.706L357.467 221.56L357.754 221.057L359.735 219.729L359.828 218.969L361.844 219.074L362.306 219.864L361.932 220.501L362.802 221.039L363.03 221.987L362.516 223.168L364.66 223.987L365.321 226.227L365.116 226.87L363.854 227.402L362.522 230.245L362.533 231.666V232.169L362.405 232.555L362.06 233.625L361.534 234.035L360.868 233.894L360.19 235.07L360.827 236.742L361.528 237.275L364.795 237.883L366.232 236.204L366.963 234.099L367.816 233.929L368.523 233.257L369.826 233.982L369.463 235.549L368.914 236.292L369.276 237.959L369.177 239.713L368.47 239.281L365.835 239.363L364.479 239.626L363.866 240.526L363.761 240.678L363.749 240.696L363.322 241.316L361.488 242.211L360.968 243.497L360.208 244.065L359.641 245.299L358.531 245.135L355.639 243.667L354.184 243.702L353.827 244.117L354.511 244.919L353.593 245.369L352.875 245.17L350.403 246.469L350.134 246.182L350.239 245.305Z" fill="#F5EBDC"/>
<path d="M301.846 243.158L300.824 241.14L300.83 239.825L300.8 239.737L301.227 239.731L302.092 240.368L302.77 240.24L303.29 242.187L305.194 244.474L305.96 244.831L307.286 246.322L308.437 246.761L310.559 246.808L312.095 247.428L314.292 250.001L314.871 250.083L317.524 253.013L317.851 254.294L319.499 257.06L323.151 257.78L324.196 260.3L325.535 260.423L326.873 258.189L328.182 257.809L329.093 256.265L329.064 255.651L327.93 254.563L326.633 254.259L326.51 253.37L327.825 253.352L329.04 255.007L329.999 256.083L329.777 257.171L329.046 257.475L330.583 259.961L330.706 261.944L331.395 262.634L332.231 262.727L333.464 264.874L334.352 264.915L334.936 265.5L336.356 264.178L336.648 262.622L337.747 262.95L339.476 265.061L340.154 264.938L340.125 264.441L337.361 260.68L335.176 259.09L335.275 258.692L337.823 258.657L337.297 259.265L337.794 259.821L338.354 259.797L338.652 260.581L339.622 261.178L340.622 262.488L341.171 262.575L342.176 263.722L343.047 264.037L345.337 266.242L345.653 267.704L345.921 268.938L346.395 269.208L346.915 268.664L347.394 268.851L347.534 269.418L342.322 270.483L340.557 270.173L336.602 271.126L334.142 272.208L333.364 273.214L333.294 274.635L332.745 275.594L331.565 276.425L331.354 276.571L330.536 276.202L327.673 273.313L325.406 272.214L324.296 271.67L320.55 267.371L316.583 261.751L312.247 259.183L311.791 258.23L310.401 256.891L309.793 255.604L306.293 251.82L305.919 250.264L305.96 249.913L306.106 248.738L305.422 246.726L302.501 243.468L301.846 243.158Z" fill="#F5EBDC"/>
<path d="M231.343 108.578L233.908 110.262L235.369 110.537L236.117 110.292L237.466 109.198L237.677 108.215L238.033 107.613L239.021 105.917L238.875 102.671L237.683 101.419L237.922 101.098L239.102 101.133L241.434 101.186L244.069 99.3198L248.136 98.4426L249.714 98.7233L250.637 99.583L251.098 101.963L250.578 104.899L251.128 106.566L252.361 108.21L253.19 108.683L256.562 109.368L261.178 109.508H261.26L263.726 108.958L271.444 102.496L271.573 102.425L274.874 100.77L276.861 98.1794L277.977 97.4542L281.687 97.0682L282.213 96.6588L282.318 95.6704L284.79 95.0095L286.245 93.9801L286.321 93.9275L287.729 94.1029L288.127 92.9157L288.834 92.2899L289.593 93.1438L291.469 93.0619L293.812 91.5296L295.302 91.3191L296.593 90.4418L297.774 90.3716L299.673 90.2546L298.586 89.1668L298.732 88.4591L300.456 89.2487L301.548 87.8743L302.425 87.3655L305.194 86.4531L310.103 86.0788L310.599 85.8858L311.902 85.3886L312.796 85.7045L312.937 86.2074L311.973 86.1665L311.604 86.6987L312.2 88.4182L311.558 89.9271L311.698 91.6875L313.229 91.7577L314.912 91.0734L316.261 91.2489L316.624 90.8804L316.548 90.161L314.999 88.1141L315.303 85.5524L313.673 82.8972L314.275 82.2188L317.605 82.7568L319.674 84.1137L323.869 86.8917L328.094 88.7925L331.834 91.167L334.346 94.1965L338.273 97.3489L344.782 101.519L344.618 101.776L341.352 100.297L341.148 100.893L342.117 101.928L341.107 102.811L341.814 103.338L341.726 103.882L340.277 103.425L339.599 103.776L338.997 104.075L338.565 104.66L338.693 105.437L340.44 106.73L340.242 108.414L341.334 110.338L342.567 110.502L343.345 111.912L341.942 112.777L340.458 112.871L339.786 113.766L341.107 114.602L340.779 115.403L337.653 114.538L336.742 114.555L335.982 115.058L336.321 116.117L336.046 117.041L334.819 116.702L334.34 117.175L334.457 118.17L332.716 120.304L333.329 120.585L333.505 121.737L332.616 123.024L332.605 125.761L331.991 126.697L333.066 126.434L334.112 126.978L334.743 126.843L335.889 125.422L336.52 125.281L338.097 126.521L338.892 126.504L342.521 123.117L341.264 121.187L340.353 118.936L340.113 118.333L340.306 118.386L345.588 119.872L346.669 119.76L347.487 119.257L347.75 118.608L350.456 118.854L351.42 117.696L352.39 117.632L354.23 116.029L355.872 116.111L357.362 115.748L358.326 116.842L358.957 116.655L360.623 114.222L359.735 111.865L359.805 110.613L358.887 109.736L357.462 108.958L356.24 108.291L353.529 108.093L352.98 107.742L352.407 106.671L352.314 106.496L352.764 105.484L354.896 103.835L356.188 104.063L356.895 104.595L357.386 106.04L358.712 106.712L359.939 108.034L360.851 106.987L360.927 105.677L360.342 104.823L359.39 104.607L359.08 104.045L359.922 102.227L359.816 101.01L359.127 99.1093L357.666 96.7348L357.649 96.5418L357.503 94.5299L356.579 92.7286L356.258 91.2313L357.269 88.6989L358.18 89.0381L358.139 89.7809L357.134 91.2255L357.503 93.0327L359.53 95.84L360.021 97.2904L360.734 97.77L361.628 95.9511L361.301 94.6703L360.079 94.062L360.342 93.4655L361.488 93.3075L360.792 90.4184L360.114 89.1785L360.021 89.0147L359.7 86.5876L358.624 85.377L357.882 85.8916L355.755 85.0377L355.043 83.8095L355.265 83.5522L356.018 82.9908L356.603 83.7394L358.677 82.4936L359.291 82.6749L361.312 86.1723L363.807 89.4241L367.786 96.3312L368.213 97.0565L368.727 98.9514L371.491 101.285L372.005 102.297L371.468 103.753L371.631 104.917L373.583 109.572L376.633 112.807L378.03 116.228L377.796 117.31L376.621 118.012L373.121 117.825L372.099 118.088L371.17 118.328L369.557 119.731L367.284 120.924L366.261 121.971L365.87 123.925L364.713 124.217L364.608 124.246L363.077 123.229L361.768 123.322L361.528 124.229L361.482 124.41L360.29 124.509L359.571 124.147L357.497 121.685L355.171 120.737L353.465 121.854L352.442 121.971L352.174 122.234L350.806 123.585L350.648 123.743L350.292 125.042L349.053 124.872L348.989 124.977L348.685 125.457L352.67 130.323L353.693 130.153L354.476 129.37L353.482 123.673L354.341 122.451L355.604 122.188L356.982 122.802L357.865 124.328L360.149 124.995L361.634 126.1L362.054 126.41L364.304 125.65L364.731 125.071L365.297 124.831L365.66 124.679H366.618L368.64 126.048L373.191 131.767L374.699 132.066L376.014 134.879L380.875 139.914L381.851 142.704L383.651 144.775L384.942 147.863L385.339 148.816L386.017 151.214L387.034 154.846L387.501 156.507L389.465 158.7L392.486 161.115L392.895 161.852L391.358 163.034L389.254 163.349L388.828 162.946L389.704 162.39L388.728 161.677L388.939 160.975L387.11 159.396L386.198 159.08L383.51 158.156L383.464 158.203L382.909 158.782L383.318 159.577L382.424 160.454L380.408 160.185L378.912 160.659L377.65 160.039L377.55 160.805L378.491 161.186L382.33 161.057L383.324 161.496L384.089 162.911L383.341 164.238L383.481 165.724L384.533 168.034L385.112 170.701L387.244 176.854L386.444 180.983L386.841 183.626L385.935 188.966L385.427 190.966L384.159 192.487L382.354 200.57L382.33 202.926L380.846 206.307L381.495 207.769L379.227 209.126L378.602 211.231L378.561 213.044L376.884 215.91L371.871 218.226L371.684 217.612L369.849 217.302L368.155 218.466L366.998 218.08L364.882 218.846L363.188 219.033L362.498 218.279L359.109 217.94L358.245 219.162L356.579 220.367L355.481 221.162L355.393 221.203L350.438 223.583L346.57 224.701L345.729 225.759L344.823 225.876L341.118 224.87L340.756 224.209L340.405 223.572L339.219 222.636L338.279 222.42L335.129 222.542L332.687 222.197L330.741 222.87L326.551 220.361L326.779 219.168L325.447 217.893L324.611 216.536L324.196 217.121L324.43 217.899L323.565 218.513L322.706 219.846L321.345 220.221L320.252 219.56L319.119 219.835L317.564 219.542L317.208 219.098L316.822 218.63L317.191 218.098L316.454 217.133L314.409 216.483L313.784 215.466L312.487 214.471L312.16 213.196L310.95 212.588L309.004 212.278L305.849 210.261L304.184 208.646L302.255 209.056L301.391 209.617L303.605 211.366L304.271 213.916L302.273 215.694L301.607 216.758L302.127 217.554L301.367 218.226L300.368 218.021L299.62 217.162L299.597 216.448L298.171 213.582L297.02 213.577L295.477 213.571L293.596 212.939L291.387 211.079L290.16 210.857L288.395 211.383L286.759 212.734L284.007 214.091L282.71 214.249L282.278 213.852L281.945 212.465L282.126 211.155L283.353 208.793L283.551 206.939L284.2 206.365L285.158 206.184L285.351 206.915L286.362 206.898L287.011 206.272L288.01 204.348L288.425 203.541L288.886 203.394L289.284 204.4L289.809 204.09L290.645 204.237L291.586 203.248L292.31 203.441L292.608 203.02L293.286 202.938L294.116 203.248L295.109 202.359L296.313 201.868L296.225 201.423L294.799 200.651L294.168 198.645L293.251 197.721L292.129 195.37L291.311 195.99L290.645 194.756L290.838 192.955L289.167 190.247L288.343 187.41L287.425 186.656L285.994 188.346L285.316 188.317L284.346 189.867L283.604 190.212L280.221 190.112L279.841 190.095L276.861 188.872L274.839 188.732L274.424 187.995L274.979 186.925L274.687 185.925L273.887 185.071L271.573 184.246L270.895 184.001L270.171 183.825L270.241 183.533L269.902 182.316L267.629 180.299L264.438 179.831L263.585 180.129L262.183 179.959L261.306 179.316L260.453 177.029L258.063 175.064L256.626 174.456L257.52 172.134L257.023 170.584L255.866 169.982L255.235 168.999L255.183 168.917L256.129 167.853L256.422 166.332L256.41 157.612L255.849 154.963L254.955 153.495L254.423 151.5L254.464 150.512L255.037 150.319L256.451 151.641L257.129 151.559L257.438 151.021L257.134 150.132L255.235 149.722L254.698 149.097L253.921 147.477L254.412 146.617L253.985 146.05L253.184 147.442L252.15 148.003L251.835 148.015L250.619 148.05L248.598 147.751L245.436 146.471L243.456 145.237L242.158 145.184L241.621 144.5L241.761 142.587L242.357 141.897L245.805 141.821L248.79 140.844L249.375 140.271L249.825 139.078L249.532 137.973L248.206 137.207L246.243 134.382L244.408 133.709L244.239 133.645L242.205 133.51L241.942 133.118L243.333 132.183L244.303 132.171L245.793 132.943L246.815 132.814L247.587 132.031L247.376 130.428L244.081 128.925L244.601 127.79L246.81 127.773L247.16 127.516L246.266 125.942L244.881 125.223L244.361 124.217L244.402 123.234L245.875 123.129L244.168 121.965L243.835 123.264L243.245 123.79L240.119 121.468L240.768 120.842L242.836 121.468L242.264 120.24L241.358 120.211L240.452 118.959L239.693 119.48L238.156 119.585L236.607 118.807L234.878 116.871L234.042 113.772L233.154 113.298L231.243 113.415L230.373 113.467L229.099 111.444L227.539 110.724L226.493 108.543L226.633 107.894L227.451 107.321L228.538 107.145L229.549 107.402L230.238 107.847L231.343 108.578Z" fill="#F5EBDC"/>
<path d="M231.454 224.765L231.687 224.443L230.782 223.308L229.631 222.77L230.326 222.25L230.127 221.583L229.175 221.653L227.13 223.601L226.113 223.73L224.185 222.94L221.555 222.887L220.889 221.39L221.111 220.08L222.607 219.092L224.214 216.746L227.667 214.577L230.005 213.623L235.509 212.196L238.296 212.53L245.98 216.571L248.802 220.092L250.888 221.057L254.487 225.923L255.025 226.239L257.491 227.689H261.353L265.858 229.701L267.15 230.906L268.061 232.555L268.552 233.432L270.264 235.158L271.357 235.696L271.573 236.006L272.356 237.164L272.619 238.772L274.132 242.451L275.745 245.129L277.667 248.317L278.106 249.709L278.012 251.738L278.778 254.621L280.005 257.031L281.091 257.791L281.874 261.289L281.769 262.382L281.08 262.845L276.849 262.54L274.757 263.055L273.32 264.09L272.035 266.166L271.573 266.482L270.381 267.313H270.095L270.089 266.418L270.977 265.196L269.726 262.014L268.441 260.809L264.438 257.938L260.816 256.475L259.594 255.434L258.712 254.68L256.322 254.411L255.574 254.931L255.066 256.394L253.611 256.44L252.285 257.429L249.048 258.663L248.089 258.838L246.961 257.756L244.794 257.552L244.204 257.06L243.274 256.288L241.609 254.896L241.516 254.235L241.393 253.329L241.294 252.639L241.223 252.142L239.57 251.639L239.476 251.253L239.026 249.334L238.921 248.89L238.758 248.2L238.804 247.235L238.834 246.51L238.185 243.299L238.506 242.328L237.922 238.895L236.999 238.205L236.97 237.596L237.729 236.748L238.226 236.883L238.939 238.608L240.02 239.591L242.03 239.608L243.654 242.205L244.572 242.954L245.547 245.018L246.821 246.667L247.855 247.317L247.096 248.188L248.206 248.369L248.609 248.837L248.896 249.171L249.573 247.714L255.341 245.539L255.241 245.071L250.865 246.235L249.123 245.112L249.1 244.463L250.795 244.094L250.923 243.603L248.872 243.188L248.34 242.503L249.375 240.684L250.941 240.632L251.554 239.959L252.805 239.813L253.418 239.907L254.043 240.006L255.516 239.567L255.043 238.889L252.448 239.228L252.174 239.263L250.38 239.912L246.33 237.21L241.603 236.468L240.978 235.456L241.627 234.491L244.011 233.888L244.396 233.21L240.487 233.795L240.072 233.005L240.417 232.555L240.844 231.994L241.668 231.76L242.205 231.613L242.901 230.923L242.34 229.701L238.477 229.601L236.771 230.186L231.787 230.257L229.975 230.742L228.976 230.531L227.007 229.297L225.505 227.712L223.974 226.823L223.612 226.151L224.717 225.098L227.317 224.595L228.76 223.449L229.543 223.589L229.742 223.887L230.227 224.601L231.454 224.765Z" fill="#F5EBDC"/>
<path d="M28.9003 108.361L33.049 113.263L33.8962 118.374L33.5748 120.129L32.2368 119.275L23.9453 111.625L21.0179 108.917L17.325 106.262L15.9343 105.262L9.93339 102.08L3.64029 99.1734L1.6653 98.5886L0.204511 97.6821L0 96.5884L0.566787 94.7227L0.660278 94.4069L3.2488 89.5175L4.92579 84.9498L9.47178 70.2525L11.6454 63.6612L12.8199 58.8654L13.6613 54.8124L14.269 51.8764L14.754 47.5017L14.1755 36.6001L13.6905 34.6525L13.8132 34.6233L14.7365 34.0033L15.8934 31.9037L16.0044 31.699L17.4594 31.5703L19.9486 32.0792L21.1873 32.2195L21.5379 33.4009L21.199 35.1262L22.5488 36.4714L23.8693 37.5651L25.4528 38.8868L29.2042 39.77L35.9296 38.4424L36.8003 37.1498L36.9405 35.9216L37.3145 34.6759L38.7285 34.0677L39.2778 34.7402L40.5983 35.8456L42.7136 37.606L44.9865 38.3663L47.2303 38.8985L49.0008 39.4717L49.6377 41.1151L50.4967 42.5012L51.5251 43.1387L55.7672 43.9751L57.5494 44.7939L59.4893 44.6242L59.5594 42.6708L60.6229 40.8695L60.5352 39.9103L61.3182 37.6528L63.1062 35.793L64.491 34.9391L66.3667 34.0443L66.4836 32.5704L66.1505 31.6347L65.5603 30.465L63.8191 30.1316L63.9067 28.4297L66.4894 27.219L67.9035 26.6108L68.8384 26.0493L69.6564 26.9442L71.0588 29.0087L73.0863 29.7982L75.4704 29.1023L76.3702 28.2893L78.2692 27.6401L83.1541 27.453L86.3912 28.1314L89.529 30.2837L90.4289 32.1435L90.8613 34.3016L91.4514 35.4596L93.9932 36.448L94.2737 36.9159L96.9907 37.1615L99.3631 36.2199L101.011 35.5883L104.19 35.5473L105.872 35.1613L105.498 33.7343L104.949 33.05L104.616 32.1143L102.606 31.5586L101.747 30.1725L103.558 28.5525L104.955 27.6986L106.328 26.6108L106.41 24.8972L107.029 23.628L107.018 20.7155L108.169 19.885L109.998 18.5047L110.138 17.2824L110.997 15.9782L112.96 16.0542L116.092 15.5278L120.06 16.1536L123.525 16.5747L124.828 17.4286L125.02 19.6043L125.131 20.8032L124.179 23.8093L123.203 26.5757L124.278 27.6928L125.564 28.3069L126.884 29.4064L127.808 28.8274L129.356 29.6696L130.256 31.5352L132.728 31.7984L133.324 30.2837L133.505 29.5467L134.866 28.4531L135.684 29.3537L136.917 29.4824L137.7 27.2307L139.599 26.5699L140.522 26.0025L141.825 24.1895L142.34 21.7097L144.881 20.0312L145.945 20.9026L146.704 21.3179L149.515 19.8557L152.343 15.9665L155.644 11.7789L157.368 9.19973L157.573 6.01228L158.654 4.46827L159.466 2.69032L161.044 1.08783L162.417 0L164.742 1.48553L165.368 2.89502L165.981 4.29867L167.74 4.87767L170.726 5.3397L172.969 5.87192L174.29 6.97144L178.141 6.1351L179.041 5.33385L181.576 6.32226L183.622 7.35744L184.463 8.49791L184.773 9.19973L185.141 10.6268L185.515 12.0421L187.694 14.5277L190.166 17.4637L192.059 19.4873L193.911 21.0196L194.805 22.8853L194.478 24.6223L195.156 26.757L193.298 27.8858L192.965 29.6111L194.998 30.4123L197.184 30.2193L198.416 30.3538L199.468 31.2253L201.081 32.781L201.502 34.6876L202.793 38.226L203.5 40.5946L205.831 42.0918L208.706 41.3432L210.757 39.7115L211.914 38.881L213.877 38.9395L215.367 39.3021L216.454 40.4192L216.355 42.1269L215.718 43.1621L214.859 44.4488L213.527 46.0162L212.446 47.5778L213.393 49.9289L214.871 50.0341L215.858 50.192L217.693 48.8176L218.926 48.9463L221.62 48.9522L223.671 49.9873L225.762 51.4963L226.335 52.4262L226.756 54.3328L226.703 56.526L225.844 57.8185L225.751 59.5263L225.698 60.8013L218.178 61.9183L217.6 62.1172L216.904 62.357L213.305 62.6669L212.411 62.5675L211.832 62.4973L210.442 61.6785L207.269 62.6085L209.238 63.3337L210.138 64.2636L210.933 65.0941L212.072 65.6146L212.498 65.8135L213.685 66.0182L215.262 65.5854L216.817 65.3748L219.586 64.983L221.865 65.0122L222.631 65.8135H224.109L224.822 65.1292L225.389 65.2052L227.79 67.7084L228.649 70.3168L230.285 71.9719L231.997 71.931L234.714 73.6271L235.544 75.3583L236.38 79.9376L235.696 81.2302L237.653 82.0665L241.241 81.8793L245.314 80.9553L247.365 80.926L250.97 81.7273L251.841 81.3296L252.028 81.6981L251.788 82.4233L247.008 86.4529L244.274 88.0378L243.087 89.19L242.538 91.4183L239.903 94.4946L239.535 96.6059L239.383 97.4832L239.021 97.9628L238.395 97.9453L237.577 97.1966L234.48 97.9511L233.937 98.805L233.709 100.109L234.095 101.53L235.334 106.04L235.047 106.507L234.784 106.946L233.692 107.297L232.114 107.063L230.84 106.554L227.983 105.42L227.603 105.355L225.955 105.069L225.085 105.642L221.643 109.455L220.843 109.59L219.802 108.724L218.897 108.584L218.038 108.94L217.453 109.18L217.138 108.625L216.408 108.49L215.835 107.203L213.889 106.256L211.774 105.244L211.155 105.273L210.722 106.081L212.236 107.888L213.41 106.893L213.907 107.244L214.059 107.742L212.534 109.057L213.726 111.783L213.428 112.099L207.286 112.754L203.459 112.058L201.25 113.514L201.601 114.625L203.436 115.619L206.807 114.76L208.256 113.941L211.219 113.555L212.633 114.982L214.047 115.035L215.893 112.8L216.32 112.713L219.148 112.151L220.071 113.233L221.298 113.666L225.114 117.316L226.142 118.784L226.61 119.456L227.889 120.111L228.532 120.901L228.556 121.731L227.825 122.959L226.142 123.989L225.698 125.123L222.087 127.726L220.474 128.434L217.524 128.644L216.203 129.094L214.801 130.188L214.433 130.943L215.192 133.107L217.354 137.084L218.394 137.891L218.336 138.341L217.395 143.166L215.794 145.026L215.379 145.447L215.332 146.605L218.844 146.4L222.075 150.202L221.906 151.617L222.467 153.015L221.737 154.407L219.838 156.799L218.347 157.296L218.494 157.846L219.919 157.577L220.907 156.682L221.666 157.419L222.496 159.314L225.494 163.162L225.026 163.531L224.208 163.004L222.35 162.928L221.637 162.414L221.444 161.688L220.93 161.782L220.457 162.367L219.142 162.753L217.039 166.127L214.251 166.624L213.094 167.402L212.726 168.098L213.346 169.607L212.761 170.186L211.628 170.256L210.553 171.853L209.022 172.181L206.994 172.11L205.82 171.836L204.482 171.52L203.225 171.97L205.627 172.537L205.96 172.613L209.559 172.865L210.973 172.59L212.031 171.526L213.515 170.982L214.047 170.455L213.515 168.186L214.392 167.338L217.226 166.952L219.668 163.706L220.854 163.7L221.719 164.665L223.542 164.186L225.219 165.73L226.902 166.648L229.14 167.853L231.424 169.753L231.939 170.982L231.828 172.298L231.021 173.964L231.594 175.193L230.817 176.257L228.427 178.193L228.141 179.719L228.842 184.515L228.409 185.48L225.149 186.948L222.087 188.966L221.076 190.299L220.398 190.217L219.335 190.124L219.084 189.457L218.54 188.937L218.686 186.749L218.085 186.346L215.566 185.977L214.041 186.188L212.487 187.012L209.963 189.767L207.906 190.562L204.826 193.247L201.116 194.645L200.754 195.288L201.017 195.902L201.835 196.481L202.162 199.616L204.225 201.452L203.979 202.043L202.892 202.072L202.179 202.084L198.457 201.02L196.383 202.529L195.524 204.418L195.729 204.868H197.137L198.066 204.02L199.287 204.342L200.21 203.657L200.993 203.85L202.711 205.728L204.376 206.342L206.194 208.594L207.029 210.225L208.402 210.986L208.759 213.354L207.83 215.05L207.368 215.881L205.802 217.191L203.979 219.483L201.841 221.267L200.508 220.834L197.148 220.77L195.074 222.338L191.65 222.437L191.218 222.899L190.844 226.022L191.714 226.823L192.608 226.8L193.245 227.759L194.525 228.016L197.23 228.198L200.28 228.397L202.139 228.133L204.908 225.934L209.337 224.396L211.418 224.256L212.002 223.624L211.669 222.074L211.961 221.753L213.357 221.864L215.391 222.928L216.197 223.729L217.892 227.683L219.873 229.9L220.194 230.011L222.8 230.894L224.039 232.146L224.956 232.555L226.896 233.415L228.456 235.011L231.717 234.649L232.926 235.298L234.597 235.415L235.567 238.971L236.689 240.333L236.455 243.228L237.081 247.317L237.349 249.036L237.466 249.796L238.179 250.042L238.664 251.463L238.88 252.107L239.249 252.557L240.143 252.592L240.733 253.218L240.867 253.937L240.546 254.966L239.488 256.241L238.518 256.75L236.829 256.961L234.095 255.639L231.658 255.101L230.069 255.803L229.648 256.446L229.707 257.663L230.671 258.797L232.4 258.756L235.223 260.792L235.521 262.973L236.298 264.505L237.986 265.453L237.916 267.207L238.448 267.775L236.549 270.494L235.474 270.886L233.131 270.904L232.938 270.184L232.231 269.605L230.478 268.933L230.793 268.073L230.373 267.395L228.772 266.997L228.071 266.424L226.125 266.131L225.096 266.798L223.536 266.792L221.935 266.342L221.228 265.769L220.971 263.95L221.298 263.593L223.419 261.3L223.279 260.751L221.999 260.587L221.468 259.914L221.1 258.031L219.487 257.809L218.079 256.651L217.395 255.645L216.186 255.154L216.232 253.89L217.378 253.276L219.908 252.779L220.772 252.153L221.661 252.405L222.566 253.487L224.232 253.768L225.879 252.949L225.266 251.557L223.314 250.054L222.701 249.867L221.883 249.615L220.866 248.422L219.434 247.872L218.073 248.369L216.91 252.329L215.823 251.633L215.093 251.604L214.281 252.452L214.485 252.896L215.537 253.159L215.438 253.756L215.391 254.025L214.918 254.61L214.053 254.797L212.726 255.078L212.259 255.604L212.569 257.592L212.358 258.68L210.757 260.985L209.787 261.657L208.841 261.569L207.035 260.569L206.597 261.809L205.382 261.493L204.271 262.874L203.26 262.95L202.402 263.576L201.373 265.564L199.533 267.143L198.925 268.547L197.078 269.184L187.764 270.705L187.601 270.763L187.49 270.781L184.399 271.88L181.904 276.974L179.66 279.472L177.802 279.103L173.314 278.214L172.426 280.01L171.322 280.46L169.23 279.343L169.335 275.998L166.694 272.144L161.306 267.371L159.092 266.33L152.267 263.113L150.613 262.92L147.371 262.552L143.105 262.634L134.603 261.558L130.811 259.768L128.649 257.85L127.901 257.177L127.141 257.054L121.52 256.124L118.762 255.674L118.143 255.657L115.134 255.581L112.44 256.312L112.335 256.341L111.453 257.364L109.086 258.142L107.012 255.99L106.059 254.007L105.995 253.873L104.733 253.212L101.326 252.919L97.8964 253.253L96.4356 256.224L96.237 256.633L95.8689 257.388L92.2402 257.3L87.852 253.633L85.5148 253.159L81.296 254.159L81.9271 253.27L81.6816 252.001L82.0556 250.644L82.5698 250.165L82.7217 246.328L84.0773 241.708L84.6617 240.842L84.0481 238.579L81.9738 232.555L80.998 231.268L80.5948 229.806L78.9003 223.7L81.296 211.377L84.4046 203.938L85.2752 200.844L85.7835 198.663L87.0457 197.598L86.3854 197.142L83.9546 197.68L82.1783 196.756L70.4569 196.469L70.4686 196.031L82.2134 196.288L82.5114 195.066L83.5339 194.434L85.731 194.329L86.473 193.75L85.4622 187.586L84.574 184.983L84.2994 183.509L83.5924 179.749L82.8795 179.591L82.6107 178.52L83.1308 177.924L82.9029 176.006L83.1716 174.362L82.5231 171.333L83.0957 168.718L82.8678 166.794L82.377 168.209L81.6875 168.572L81.1441 167.958L81.6174 167.145L81.4771 166.045L82.2835 165.466L82.412 164.648L81.8569 162.226L83.8319 155.021L84.4805 152.646L84.9363 152.494L84.8954 151.939L83.7384 151.091L83.6508 149.939L83.0431 149.371L81.9855 146.827L82.2893 146.008L80.735 140.768L80.1799 138.23L79.245 137.329L79.0347 136.616L79.508 135.972L78.129 132.481L77.6323 129.843L76.9195 129.001L75.3535 128.305L71.9177 125.48L69.5045 124.708L67.6873 122.749L66.5069 122.556L62.9192 123.614L60.5469 123.398L59.7113 122.667L58.4726 122.532L57.8999 122.228L56.6261 121.556L55.5685 121.614L54.8907 121.877L53.8974 122.263L52.9975 122.076L52.4483 121.41L50.3623 121.088L49.9941 119.655L48.1828 117.368L48.2295 117.076L48.2938 116.713L47.949 115.339L47.6335 115.052L46.944 114.426L44.6184 112.303L43.9173 111.268L42.9765 109.859L34.5623 100.805L33.5339 98.6003L31.4246 96.3661L31.0564 95.2023L31.3018 94.2724L32.2251 93.5822L33.4755 93.553L34.4513 93.0266L33.9897 90.8802L32.6984 89.8684L30.1741 88.6636L27.9011 88.6169L26.9253 89.2076L24.7633 92.2254L23.3259 95.7638L23.1214 97.5125L23.9102 100.647L26.0196 102.829L27.6499 103.291L25.7917 105.279L25.7801 105.993L27.0656 106.899L27.609 107.946L28.9003 108.361Z" fill="#F5EBDC"/>
</g>
<defs>
<clipPath id="clip0_113_6">
<rect width="407" height="299" fill="white"/>
</clipPath>
</defs>
</svg>
