<svg width="92" height="200" viewBox="0 0 92 200" fill="none" xmlns="http://www.w3.org/2000/svg">
<path d="M37.8904 196.22L37.2582 189.833L35.4924 181.985L31.1978 174.66L30.849 166.834L24.4398 165.264L18.4884 159.4L24.5924 146.843L24.2436 126.766L34.0536 125.479L37.9776 130.711L38.697 140.129L40.4628 151.661L47.2426 156.893L52.9324 157.94L55.4176 164.741L51.5154 170.496L55.4176 177.276H61.8486L62.5462 170.496L60.061 165.264L69.6748 166.834L70.743 177.799L73.1846 189.223L68.672 194.978L55.5048 199.163L37.8904 196.22Z" fill="white" stroke="white" stroke-width="0.5" stroke-linecap="round" stroke-linejoin="round"/>
<path d="M83.9974 175.489L73.1846 189.223L70.743 177.799L69.6748 166.834L79.2886 163.172L81.0762 170.998L83.9974 175.489ZM86.8096 133.306L89.7744 144.336L80.7056 144.315L75.3646 143.791L71.4624 145.383L65.402 146.429L63.985 132.281L61.478 123.387L55.7882 119.201L57.2052 109.238L63.2656 112.923L68.2578 118.155L74.2964 124.956L80.008 134.374L86.8096 133.306ZM49.9458 83.2527L50.0112 91.4277L47.5914 97.2047L41.1822 95.6351L32.9854 93.0191L27.9932 96.6815L24.7886 90.9263L20.167 89.3349L21.9546 104.53L13.8014 101.739L11.9484 98.0985L7.0434 82.5115L7.9808 63.1313L16.6136 67.862L27.6444 68.3851L36.5606 65.246L35.8412 73.6171L42.9698 81.4869L49.9458 83.2527Z" fill="white" stroke="white" stroke-width="0.5" stroke-linecap="round" stroke-linejoin="round"/>
<path d="M89.7744 144.337L90.7772 148.043L86.3518 172.502L83.9974 175.489L81.0762 170.998L79.2886 163.172L79.6374 155.324L75.3646 143.792L80.7056 144.315L89.7744 144.337ZM55.4176 164.741L52.9324 157.94L47.2426 156.893L40.4628 151.661L38.697 140.129L37.9776 130.712L34.0536 125.48L34.4024 113.969L36.9094 111.353H43.6674L45.8038 105.576L47.5914 97.2051L52.213 104.007L57.2052 109.239L55.7882 119.201L61.478 123.387L63.985 132.281L65.402 146.429L60.4098 147.476L60.7804 156.37L60.061 165.265L55.4176 164.741Z" fill="white" stroke="white" stroke-width="0.5" stroke-linecap="round" stroke-linejoin="round"/>
<path d="M59.6468 97.1396L69.0644 102.72L84.3026 124.041L86.8096 133.306L80.008 134.374L74.2964 124.956L68.2578 118.155L63.2656 112.923L57.2052 109.239L59.6468 97.1396ZM37.8904 196.221L16.3738 192.645L1.94218 188.373L1.22278 179.587L8.70018 169.516L18.4884 159.4L24.4398 165.265L30.849 166.834L31.1978 174.66L35.4924 181.985L37.2582 189.833L37.8904 196.221ZM60.061 165.265L62.5462 170.497L61.8486 177.276H55.4176L51.5154 170.497L55.4176 164.741L60.061 165.265Z" fill="white" stroke="white" stroke-width="0.5" stroke-linecap="round" stroke-linejoin="round"/>
<path d="M50.0112 91.428L59.6468 97.1396L57.2052 109.239L52.213 104.007L47.5914 97.205L50.0112 91.428ZM56.2896 69.083L49.9458 83.253L42.9698 81.4872L35.8412 73.6174L36.5606 65.2462L42.2504 60.5156L49.7278 62.6084L56.2896 69.083Z" fill="white" stroke="white" stroke-width="0.5" stroke-linecap="round" stroke-linejoin="round"/>
<path d="M51.4718 49.2668L56.9654 62.3686L56.2896 69.083L49.7278 62.6084L42.2504 60.5156L36.5606 65.2462L28.7126 60.5156L22.6522 55.8068L21.9546 46.3674L24.7886 36.928L29.432 36.4048L32.6366 44.2746L43.6674 50.0298L51.4718 49.2668Z" fill="white" stroke="white" stroke-width="0.5" stroke-linecap="round" stroke-linejoin="round"/>
<path d="M44.2778 27.4014L42.5338 32.786L45.3678 41.07L51.4718 49.2668L43.6674 50.0298L32.6366 44.2746L29.432 36.4048L35.8412 30.1046L44.2778 27.4014Z" fill="white" stroke="white" stroke-width="0.5" stroke-linecap="round" stroke-linejoin="round"/>
<path d="M38.5662 11.9668L46.8284 19.6404L44.2778 27.4012L35.8412 30.1044L29.432 36.4046L29.0614 30.6276L33.3342 24.3274L35.4924 18.049L38.5662 11.9668Z" fill="white" stroke="white" stroke-width="0.5" stroke-linecap="round" stroke-linejoin="round"/>
<path d="M38.5662 11.9669L35.4924 18.0491L33.3342 24.3275L29.0614 30.6277L29.432 36.4047L24.7886 36.9279L19.0988 34.3119L14.7606 32.9385L19.622 18.9865L30.2168 1.00146L36.0374 9.63426L38.5662 11.9669Z" fill="white" stroke="white" stroke-width="0.5" stroke-linecap="round" stroke-linejoin="round"/>
<path d="M34.0536 125.479L24.2436 126.766L18.9026 111.68L13.8014 101.739L21.9546 104.53L20.167 89.335L24.7886 90.9264L27.9932 96.6816L32.9854 93.0192L41.1822 95.6352L47.5914 97.2048L45.8038 105.576L43.6674 111.353H36.9094L34.4024 113.969L34.0536 125.479ZM69.6748 166.834L60.061 165.264L60.7804 156.37L60.4098 147.476L65.402 146.429L71.4624 145.383L75.3646 143.791L79.6374 155.324L79.2886 163.172L69.6748 166.834Z" fill="white" stroke="white" stroke-width="0.5" stroke-linecap="round" stroke-linejoin="round"/>
<path d="M36.5606 65.2461L27.6444 68.3853L16.6136 67.8621L7.98077 63.1315L8.56937 50.7927L14.7606 32.9385L19.0988 34.3119L24.7886 36.9279L21.9546 46.3673L22.6522 55.8067L28.7126 60.5155L36.5606 65.2461Z" fill="white" stroke="white" stroke-width="0.5" stroke-linecap="round" stroke-linejoin="round"/>
</svg>
