<svg width="426" height="92" viewBox="0 0 426 92" fill="none" xmlns="http://www.w3.org/2000/svg">
<path d="M0 89.7386V45.0026H11.776V79.1786H24.512V89.7386H0Z" fill="#F5EBDC"/>
<path d="M46.317 90.9546C31.085 90.9546 29.741 80.0106 29.741 74.6346V45.0026H41.453V74.6346C41.453 78.0266 43.117 79.4986 46.573 79.4986H46.893C50.413 79.4986 52.077 77.9626 52.077 74.6346V45.0026H63.853V74.6346C63.853 80.0106 62.701 90.9546 47.085 90.9546H46.317Z" fill="#F5EBDC"/>
<path d="M67.1095 89.7386L82.8535 65.8666L70.1175 45.0026H84.4535L89.8935 55.5626L95.6535 45.0026H109.99L96.9335 65.8666L112.102 89.7386H98.0215L89.8295 76.1706L81.1895 89.7386H67.1095Z" fill="#F5EBDC"/>
<path d="M117.312 89.7386V45.0026H141.825V55.4986H131.393C129.473 55.4986 128.577 56.5866 128.577 58.6986C128.577 60.8746 129.536 61.9626 131.329 61.9626H141.184V72.4586H131.393C129.409 72.4586 128.449 73.6106 128.449 75.7866C128.449 78.0906 129.409 79.2426 131.329 79.2426H141.825V89.7386H117.312Z" fill="#F5EBDC"/>
<path d="M149.812 89.7386V45.0026L163.829 44.9386C166.389 52.9386 169.781 60.6826 174.005 67.9146C177.525 61.7706 181.365 53.8346 184.117 44.9386L198.197 45.0026V89.7386H186.229V67.4026C181.173 77.3866 174.005 87.1786 174.005 87.1786C174.005 87.1786 166.837 77.3866 161.781 67.4026V89.7386H149.812Z" fill="#F5EBDC"/>
<path d="M206.625 89.7386V45.0026H221.537C225.505 45.0026 228.897 46.0906 231.393 48.0746C236.769 52.1706 236.705 61.9626 231.009 65.7386C237.985 67.5306 239.201 73.8026 239.201 76.9386C239.201 85.4506 232.801 89.8026 224.417 89.7386H206.625ZM216.417 75.7226C216.417 79.1146 218.209 80.9066 221.729 80.9066H222.113C225.761 80.9066 227.425 79.1786 227.425 75.8506C227.425 72.3946 225.697 70.6026 222.177 70.6026H221.793C218.145 70.6026 216.417 72.3306 216.417 75.7226ZM216.481 57.8666C216.481 60.6826 217.889 62.0906 220.769 62.0906H221.089C224.033 62.0906 225.441 60.6826 225.441 57.9306C225.441 55.1786 224.033 53.7066 221.089 53.7066H220.833C217.825 53.7066 216.481 55.1146 216.481 57.8666Z" fill="#F5EBDC"/>
<path d="M267.446 91.0826C236.662 91.0826 235.766 43.4666 267.382 43.4666C298.998 43.4666 298.23 91.0826 267.446 91.0826ZM255.478 67.1466C255.478 74.8266 259.126 78.7946 267.318 78.7946H267.574C275.574 78.7946 279.414 74.8266 279.414 67.1466C279.414 59.5946 275.638 55.7546 267.446 55.7546C259.446 55.7546 255.478 59.5946 255.478 67.1466Z" fill="#F5EBDC"/>
<path d="M313.754 90.9546C298.522 90.9546 297.178 80.0106 297.178 74.6346V45.0026H308.891V74.6346C308.891 78.0266 310.555 79.4986 314.01 79.4986H314.331C317.85 79.4986 319.514 77.9626 319.514 74.6346V45.0026H331.29V74.6346C331.29 80.0106 330.138 90.9546 314.522 90.9546H313.754Z" fill="#F5EBDC"/>
<path d="M364.27 90.3146C359.47 90.3146 355.053 87.1786 351.086 81.0346V89.7386H339.438V45.0026H354.158C360.814 45.0026 372.013 46.1546 372.013 59.7226C372.013 72.6506 362.286 74.6346 358.702 75.0186C362.158 82.4426 367.405 82.5066 367.789 75.5306H377.389C377.389 77.8986 376.878 80.2026 375.982 82.3786C373.87 87.4346 369.582 90.3146 364.27 90.3146ZM349.293 60.0426C349.293 63.6906 351.15 65.5466 354.926 65.5466H355.31C359.214 65.5466 361.005 63.7546 361.005 60.1706C361.005 56.5226 359.15 54.6666 355.374 54.6666H354.99C351.086 54.6666 349.293 56.4586 349.293 60.0426Z" fill="#F5EBDC"/>
<path d="M425.952 89.7386C422.496 89.7386 419.103 88.5226 416.479 86.3466C408.671 91.1466 395.359 91.4666 387.487 83.0186C373.471 68.6826 383.263 42.8906 403.423 42.8906C409.951 42.8906 416.223 45.4506 420.767 50.9546L412.512 59.1466C407.712 51.9146 392.992 53.1946 392.992 66.5066C392.992 76.2346 401.823 80.3946 410.079 76.5546C409.44 74.8906 408.928 73.1626 408.608 71.4346H401.759V61.7706H425.888L425.952 71.4346H418.527C418.527 74.1226 422.688 80.0746 425.952 80.0746V89.7386Z" fill="#F5EBDC"/>
<path d="M0 27.1285V1.76159H6.60464V21.1406H13.7477V27.1285H0Z" fill="#F5EBDC"/>
<path d="M15.3823 27.1285L24.5355 1.76159H31.4991L40.4728 27.1285H33.5092L32.6836 24.8059C32.4324 24.1527 32.1811 23.6084 31.7145 23.1729C30.7812 22.3019 29.489 21.9753 28.125 21.939H27.8378C26.4738 21.9753 25.1457 22.2656 24.2124 23.064C23.7458 23.4995 23.4587 24.0438 23.2074 24.6971L22.31 27.1285H15.3823ZM25.7559 17.2938H30.171L27.9814 10.3987L25.7559 17.2938Z" fill="#F5EBDC"/>
<path d="M53.5267 27.1285V1.76159H61.28C65.5515 1.76159 71.7972 2.41482 71.7972 10.1084C71.7972 17.9108 65.5156 18.8906 62.8953 18.8906H60.0596V27.1285H53.5267ZM59.0545 10.2898C59.0545 12.3584 60.0955 13.4108 62.2133 13.4108H62.4286C64.6182 13.4108 65.6233 12.3947 65.6233 10.3624C65.6233 8.29385 64.5105 7.24143 62.4645 7.24143H62.2492C60.0596 7.24143 59.0545 8.25756 59.0545 10.2898Z" fill="#F5EBDC"/>
<path d="M87.5334 27.8906C70.268 27.8906 69.7655 0.890625 87.4975 0.890625C105.23 0.890625 104.799 27.8906 87.5334 27.8906ZM80.8211 14.318C80.8211 18.6729 82.8671 20.9229 87.4616 20.9229H87.6052C92.092 20.9229 94.2457 18.6729 94.2457 14.318C94.2457 10.0358 92.1279 7.85837 87.5334 7.85837C83.0465 7.85837 80.8211 10.0358 80.8211 14.318Z" fill="#F5EBDC"/>
<path d="M104.424 27.1285V1.76159H112.178C116.449 1.76159 122.695 2.41482 122.695 10.1084C122.695 17.9108 116.413 18.8906 113.793 18.8906H110.957V27.1285H104.424ZM109.952 10.2898C109.952 12.3584 110.993 13.4108 113.111 13.4108H113.326C115.516 13.4108 116.521 12.3947 116.521 10.3624C116.521 8.29385 115.408 7.24143 113.362 7.24143H113.147C110.957 7.24143 109.952 8.25756 109.952 10.2898Z" fill="#F5EBDC"/>
<path d="M135.344 27.818C126.801 27.818 126.047 21.6124 126.047 18.564V1.76159H132.616V18.564C132.616 20.4874 133.549 21.3221 135.488 21.3221H135.667C137.641 21.3221 138.575 20.4511 138.575 18.564V1.76159H145.179V18.564C145.179 21.6124 144.533 27.818 135.775 27.818H135.344Z" fill="#F5EBDC"/>
<path d="M149.749 27.1285V1.76159H156.353V21.1406H163.496V27.1285H149.749Z" fill="#F5EBDC"/>
<path d="M165.131 27.1285L174.284 1.76159H181.248L190.221 27.1285H183.258L182.432 24.8059C182.181 24.1527 181.93 23.6084 181.463 23.1729C180.53 22.3019 179.238 21.9753 177.874 21.939H177.586C176.222 21.9753 174.894 22.2656 173.961 23.064C173.494 23.4995 173.207 24.0438 172.956 24.6971L172.059 27.1285H165.131ZM175.505 17.2938H179.92L177.73 10.3987L175.505 17.2938Z" fill="#F5EBDC"/>
<path d="M194.064 27.1285V7.71321H189.182V1.76159H205.693V7.71321H200.776V27.1285H194.064Z" fill="#F5EBDC"/>
<path d="M208.884 27.1285V1.76159H215.596V27.1285H208.884Z" fill="#F5EBDC"/>
<path d="M232.515 27.8906C215.249 27.8906 214.747 0.890625 232.479 0.890625C250.211 0.890625 249.78 27.8906 232.515 27.8906ZM225.802 14.318C225.802 18.6729 227.848 20.9229 232.443 20.9229H232.587C237.073 20.9229 239.227 18.6729 239.227 14.318C239.227 10.0358 237.109 7.85837 232.515 7.85837C228.028 7.85837 225.802 10.0358 225.802 14.318Z" fill="#F5EBDC"/>
<path d="M264.051 27.1285C264.051 27.1285 259.061 20.5237 256.118 14.4632V27.1285H249.406V1.76159L257.267 1.7253C259.42 9.20111 264.338 17.0761 264.338 17.0761V1.76159H271.05V27.1285H264.051Z" fill="#F5EBDC"/>
<path d="M292.753 27.1285H285.861V1.76159H292.61C301.547 1.76159 306.286 5.97127 306.286 14.2818C306.286 22.7374 301.404 27.1285 292.753 27.1285ZM292.717 21.1769C297.384 21.1769 299.645 18.8543 299.645 14.3543C299.645 9.96321 297.384 7.71321 292.717 7.71321V21.1769Z" fill="#F5EBDC"/>
<path d="M319.165 27.818C310.622 27.818 309.868 21.6124 309.868 18.564V1.76159H316.437V18.564C316.437 20.4874 317.37 21.3221 319.308 21.3221H319.488C321.462 21.3221 322.395 20.4511 322.395 18.564V1.76159H329V18.564C329 21.6124 328.354 27.818 319.596 27.818H319.165Z" fill="#F5EBDC"/>
</svg>
