<svg width="352" height="89" viewBox="0 0 352 89" fill="none" xmlns="http://www.w3.org/2000/svg">
<path d="M12.288 87.7439H0V43.0078H12.032C27.968 43.0078 36.416 50.4319 36.416 65.0879C36.416 79.9999 27.712 87.7439 12.288 87.7439ZM12.224 77.2478C20.544 77.2478 24.576 73.1518 24.576 65.2158C24.576 57.4718 20.544 53.5038 12.224 53.5038V77.2478Z" fill="#F5EBDC"/>
<path d="M37.8015 87.7439L54.1215 43.0078H66.5375L82.5375 87.7439H70.1215L68.6495 83.6479C68.2015 82.4958 67.7535 81.5359 66.9215 80.7678C65.2575 79.2318 62.9535 78.6558 60.5215 78.5919H60.0095C57.5775 78.6558 55.2095 79.1679 53.5455 80.5759C52.7135 81.3439 52.2015 82.3038 51.7535 83.4558L50.1535 87.7439H37.8015ZM56.2975 70.3998H64.1695L60.2655 58.2398L56.2975 70.3998Z" fill="#F5EBDC"/>
<path d="M113.987 87.7439C113.987 87.7439 105.091 76.0958 99.843 65.4079V87.7439H87.875V43.0078L101.891 42.9438C105.731 56.1278 114.499 70.0159 114.499 70.0159V43.0078H126.467V87.7439H113.987Z" fill="#F5EBDC"/>
<path d="M134.938 87.7439V43.0078H159.45V53.5038H149.018C147.098 53.5038 146.202 54.5919 146.202 56.7038C146.202 58.8798 147.161 59.9678 148.954 59.9678H158.809V70.4639H149.018C147.034 70.4639 146.074 71.6159 146.074 73.7919C146.074 76.0959 147.034 77.2478 148.954 77.2478H159.45V87.7439H134.938Z" fill="#F5EBDC"/>
<path d="M167.438 87.7439V43.0078L181.454 42.9438C184.014 50.9438 187.406 58.6878 191.63 65.9198C195.15 59.7759 198.99 51.8398 201.742 42.9438L215.822 43.0078V87.7439H203.854V65.4079C198.798 75.3918 191.63 85.1838 191.63 85.1838C191.63 85.1838 184.462 75.3918 179.406 65.4079V87.7439H167.438Z" fill="#F5EBDC"/>
<path d="M221.114 87.7439L237.434 43.0078H249.85L265.85 87.7439H253.434L251.962 83.6479C251.514 82.4958 251.066 81.5359 250.234 80.7678C248.57 79.2318 246.266 78.6558 243.834 78.5919H243.322C240.89 78.6558 238.522 79.1679 236.858 80.5759C236.026 81.3439 235.514 82.3038 235.066 83.4558L233.466 87.7439H221.114ZM239.61 70.3998H247.482L243.578 58.2398L239.61 70.3998Z" fill="#F5EBDC"/>
<path d="M296.02 88.3199C291.22 88.3199 286.803 85.1838 282.836 79.0398V87.7439H271.188V43.0078H285.908C292.564 43.0078 303.763 44.1598 303.763 57.7278C303.763 70.6558 294.036 72.6398 290.452 73.0238C293.908 80.4478 299.155 80.5119 299.539 73.5359H309.139C309.139 75.9039 308.628 78.2079 307.732 80.3839C305.62 85.4398 301.332 88.3199 296.02 88.3199ZM281.043 58.0478C281.043 61.6959 282.9 63.5518 286.676 63.5518H287.06C290.964 63.5518 292.755 61.7598 292.755 58.1758C292.755 54.5278 290.9 52.6718 287.124 52.6718H286.74C282.836 52.6718 281.043 54.4638 281.043 58.0478Z" fill="#F5EBDC"/>
<path d="M341.254 74.3039C337.35 74.9439 332.102 75.4558 326.405 74.3039V87.6799H314.438V42.9438H326.405V59.0718L339.013 42.9438H351.814L335.237 64.5758C344.261 64.1918 351.685 60.2239 351.685 60.2239V87.7439H341.254V74.3039Z" fill="#F5EBDC"/>
<path d="M0 27.1817V1.81481H6.60464V21.1938H13.7477V27.1817H0Z" fill="#F5EBDC"/>
<path d="M15.3823 27.1817L24.5355 1.81481H31.4991L40.4728 27.1817H33.5092L32.6836 24.8592C32.4324 24.2059 32.1811 23.6616 31.7145 23.2261C30.7812 22.3551 29.489 22.0285 28.125 21.9922H27.8378C26.4738 22.0285 25.1457 22.3188 24.2124 23.1172C23.7458 23.5527 23.4587 24.0971 23.2074 24.7503L22.31 27.1817H15.3823ZM25.7559 17.3471H30.171L27.9814 10.4519L25.7559 17.3471Z" fill="#F5EBDC"/>
<path d="M53.5267 27.1817V1.81481H61.28C65.5515 1.81481 71.7972 2.46804 71.7972 10.1616C71.7972 17.964 65.5156 18.9438 62.8953 18.9438H60.0596V27.1817H53.5267ZM59.0545 10.343C59.0545 12.4116 60.0955 13.464 62.2133 13.464H62.4286C64.6182 13.464 65.6233 12.4479 65.6233 10.4156C65.6233 8.34707 64.5105 7.29465 62.4645 7.29465H62.2492C60.0596 7.29465 59.0545 8.31078 59.0545 10.343Z" fill="#F5EBDC"/>
<path d="M87.5334 27.9438C70.268 27.9438 69.7655 0.943848 87.4975 0.943848C105.23 0.943848 104.799 27.9438 87.5334 27.9438ZM80.8211 14.3713C80.8211 18.7261 82.8671 20.9761 87.4616 20.9761H87.6052C92.092 20.9761 94.2457 18.7261 94.2457 14.3713C94.2457 10.089 92.1279 7.91159 87.5334 7.91159C83.0465 7.91159 80.8211 10.089 80.8211 14.3713Z" fill="#F5EBDC"/>
<path d="M104.424 27.1817V1.81481H112.178C116.449 1.81481 122.695 2.46804 122.695 10.1616C122.695 17.964 116.413 18.9438 113.793 18.9438H110.957V27.1817H104.424ZM109.952 10.343C109.952 12.4116 110.993 13.464 113.111 13.464H113.326C115.516 13.464 116.521 12.4479 116.521 10.4156C116.521 8.34707 115.408 7.29465 113.362 7.29465H113.147C110.957 7.29465 109.952 8.31078 109.952 10.343Z" fill="#F5EBDC"/>
<path d="M135.344 27.8713C126.801 27.8713 126.047 21.6656 126.047 18.6172V1.81481H132.616V18.6172C132.616 20.5406 133.549 21.3753 135.488 21.3753H135.667C137.641 21.3753 138.575 20.5043 138.575 18.6172V1.81481H145.179V18.6172C145.179 21.6656 144.533 27.8713 135.775 27.8713H135.344Z" fill="#F5EBDC"/>
<path d="M149.749 27.1817V1.81481H156.353V21.1938H163.496V27.1817H149.749Z" fill="#F5EBDC"/>
<path d="M165.131 27.1817L174.284 1.81481H181.248L190.221 27.1817H183.258L182.432 24.8592C182.181 24.2059 181.93 23.6616 181.463 23.2261C180.53 22.3551 179.238 22.0285 177.874 21.9922H177.586C176.222 22.0285 174.894 22.3188 173.961 23.1172C173.494 23.5527 173.207 24.0971 172.956 24.7503L172.059 27.1817H165.131ZM175.505 17.3471H179.92L177.73 10.4519L175.505 17.3471Z" fill="#F5EBDC"/>
<path d="M194.064 27.1817V7.76643H189.182V1.81481H205.693V7.76643H200.776V27.1817H194.064Z" fill="#F5EBDC"/>
<path d="M208.884 27.1817V1.81481H215.596V27.1817H208.884Z" fill="#F5EBDC"/>
<path d="M232.515 27.9438C215.249 27.9438 214.747 0.943848 232.479 0.943848C250.211 0.943848 249.78 27.9438 232.515 27.9438ZM225.802 14.3713C225.802 18.7261 227.848 20.9761 232.443 20.9761H232.587C237.073 20.9761 239.227 18.7261 239.227 14.3713C239.227 10.089 237.109 7.91159 232.515 7.91159C228.028 7.91159 225.802 10.089 225.802 14.3713Z" fill="#F5EBDC"/>
<path d="M264.051 27.1817C264.051 27.1817 259.061 20.5769 256.118 14.5164V27.1817H249.406V1.81481L257.267 1.77853C259.42 9.25433 264.338 17.1293 264.338 17.1293V1.81481H271.05V27.1817H264.051Z" fill="#F5EBDC"/>
<path d="M292.753 27.1817H285.861V1.81481H292.61C301.547 1.81481 306.286 6.02449 306.286 14.335C306.286 22.7906 301.404 27.1817 292.753 27.1817ZM292.717 21.2301C297.384 21.2301 299.645 18.9076 299.645 14.4076C299.645 10.0164 297.384 7.76643 292.717 7.76643V21.2301Z" fill="#F5EBDC"/>
<path d="M319.165 27.8713C310.622 27.8713 309.868 21.6656 309.868 18.6172V1.81481H316.437V18.6172C316.437 20.5406 317.37 21.3753 319.308 21.3753H319.488C321.462 21.3753 322.395 20.5043 322.395 18.6172V1.81481H329V18.6172C329 21.6656 328.354 27.8713 319.596 27.8713H319.165Z" fill="#F5EBDC"/>
</svg>
