<svg width="329" height="93" viewBox="0 0 329 93" fill="none" xmlns="http://www.w3.org/2000/svg">
<path d="M39.8814 92.4413C36.8734 92.4413 33.5454 91.3533 30.4094 89.4333C28.1694 90.0733 25.8014 90.3933 23.4334 90.3933C-7.35062 90.3933 -8.24662 42.7773 23.3694 42.7773C47.1774 42.7773 52.6174 69.7853 40.7134 83.0973H44.6814V92.4413H39.8814ZM11.4654 66.4573C11.4654 73.1133 14.2174 77.0173 20.3614 77.9133C19.2734 75.2253 18.6974 72.3453 18.6974 69.4653H27.9774C28.0414 72.0893 28.8094 74.5853 30.2814 76.7613C33.7374 74.9693 35.4014 71.5133 35.4014 66.4573C35.4014 58.9053 31.6254 55.0653 23.4334 55.0653C15.4334 55.0653 11.4654 58.9053 11.4654 66.4573Z" fill="#F5EBDC"/>
<path d="M70.1169 90.2653C54.8849 90.2653 53.5409 79.3213 53.5409 73.9453V44.3133H65.2529V73.9453C65.2529 77.3373 66.9169 78.8093 70.3729 78.8093H70.6929C74.2129 78.8093 75.8769 77.2733 75.8769 73.9453V44.3133H87.6529V73.9453C87.6529 79.3213 86.5009 90.2653 70.8849 90.2653H70.1169Z" fill="#F5EBDC"/>
<path d="M91.1014 89.0493L107.421 44.3133H119.837L135.837 89.0493H123.421L121.949 84.9533C121.501 83.8013 121.053 82.8413 120.221 82.0733C118.557 80.5373 116.253 79.9613 113.821 79.8973H113.309C110.877 79.9613 108.509 80.4733 106.845 81.8813C106.013 82.6493 105.501 83.6093 105.053 84.7613L103.453 89.0493H91.1014ZM109.597 71.7053H117.469L113.565 59.5453L109.597 71.7053Z" fill="#F5EBDC"/>
<path d="M142.688 89.0493V54.8093H133.984V44.3133H163.424V54.8093H154.656V89.0493H142.688Z" fill="#F5EBDC"/>
<path d="M161.539 89.0493L177.859 44.3133H190.275L206.275 89.0493H193.859L192.387 84.9533C191.939 83.8013 191.491 82.8413 190.659 82.0733C188.995 80.5373 186.691 79.9613 184.259 79.8973H183.747C181.315 79.9613 178.947 80.4733 177.283 81.8813C176.451 82.6493 175.939 83.6093 175.491 84.7613L173.891 89.0493H161.539ZM180.035 71.7053H187.907L184.003 59.5453L180.035 71.7053Z" fill="#F5EBDC"/>
<path d="M236.444 89.6253C231.644 89.6253 227.228 86.4893 223.26 80.3453V89.0493H211.612V44.3133H226.332C232.988 44.3133 244.188 45.4653 244.188 59.0333C244.188 71.9613 234.46 73.9453 230.876 74.3293C234.332 81.7533 239.58 81.8173 239.964 74.8413H249.564C249.564 77.2093 249.052 79.5133 248.156 81.6893C246.044 86.7453 241.756 89.6253 236.444 89.6253ZM221.468 59.3533C221.468 63.0013 223.324 64.8573 227.1 64.8573H227.484C231.388 64.8573 233.18 63.0653 233.18 59.4813C233.18 55.8333 231.324 53.9773 227.548 53.9773H227.164C223.26 53.9773 221.468 55.7693 221.468 59.3533Z" fill="#F5EBDC"/>
<path d="M0 27.0152V1.64831H6.60464V21.0273H13.7477V27.0152H0Z" fill="#F5EBDC"/>
<path d="M15.3823 27.0152L24.5355 1.64831H31.4991L40.4728 27.0152H33.5092L32.6836 24.6927C32.4324 24.0394 32.1811 23.4951 31.7145 23.0596C30.7812 22.1886 29.489 21.862 28.125 21.8257H27.8378C26.4738 21.862 25.1457 22.1523 24.2124 22.9507C23.7458 23.3862 23.4587 23.9306 23.2074 24.5838L22.31 27.0152H15.3823ZM25.7559 17.1806H30.171L27.9814 10.2854L25.7559 17.1806Z" fill="#F5EBDC"/>
<path d="M53.5267 27.0152V1.64831H61.28C65.5515 1.64831 71.7972 2.30154 71.7972 9.99509C71.7972 17.7975 65.5156 18.7773 62.8953 18.7773H60.0596V27.0152H53.5267ZM59.0545 10.1765C59.0545 12.2451 60.0955 13.2975 62.2133 13.2975H62.4286C64.6182 13.2975 65.6233 12.2814 65.6233 10.2491C65.6233 8.18057 64.5105 7.12815 62.4645 7.12815H62.2492C60.0596 7.12815 59.0545 8.14428 59.0545 10.1765Z" fill="#F5EBDC"/>
<path d="M87.5334 27.7773C70.268 27.7773 69.7655 0.777344 87.4975 0.777344C105.23 0.777344 104.799 27.7773 87.5334 27.7773ZM80.8211 14.2048C80.8211 18.5596 82.8671 20.8096 87.4616 20.8096H87.6052C92.092 20.8096 94.2457 18.5596 94.2457 14.2048C94.2457 9.9225 92.1279 7.74509 87.5334 7.74509C83.0465 7.74509 80.8211 9.9225 80.8211 14.2048Z" fill="#F5EBDC"/>
<path d="M104.424 27.0152V1.64831H112.178C116.449 1.64831 122.695 2.30154 122.695 9.99509C122.695 17.7975 116.413 18.7773 113.793 18.7773H110.957V27.0152H104.424ZM109.952 10.1765C109.952 12.2451 110.993 13.2975 113.111 13.2975H113.326C115.516 13.2975 116.521 12.2814 116.521 10.2491C116.521 8.18057 115.408 7.12815 113.362 7.12815H113.147C110.957 7.12815 109.952 8.14428 109.952 10.1765Z" fill="#F5EBDC"/>
<path d="M135.344 27.7048C126.801 27.7048 126.047 21.4991 126.047 18.4507V1.64831H132.616V18.4507C132.616 20.3741 133.549 21.2088 135.488 21.2088H135.667C137.641 21.2088 138.575 20.3378 138.575 18.4507V1.64831H145.179V18.4507C145.179 21.4991 144.533 27.7048 135.775 27.7048H135.344Z" fill="#F5EBDC"/>
<path d="M149.749 27.0152V1.64831H156.353V21.0273H163.496V27.0152H149.749Z" fill="#F5EBDC"/>
<path d="M165.131 27.0152L174.284 1.64831H181.248L190.221 27.0152H183.258L182.432 24.6927C182.181 24.0394 181.93 23.4951 181.463 23.0596C180.53 22.1886 179.238 21.862 177.874 21.8257H177.586C176.222 21.862 174.894 22.1523 173.961 22.9507C173.494 23.3862 173.207 23.9306 172.956 24.5838L172.059 27.0152H165.131ZM175.505 17.1806H179.92L177.73 10.2854L175.505 17.1806Z" fill="#F5EBDC"/>
<path d="M194.064 27.0152V7.59992H189.182V1.64831H205.693V7.59992H200.776V27.0152H194.064Z" fill="#F5EBDC"/>
<path d="M208.884 27.0152V1.64831H215.596V27.0152H208.884Z" fill="#F5EBDC"/>
<path d="M232.515 27.7773C215.249 27.7773 214.747 0.777344 232.479 0.777344C250.211 0.777344 249.78 27.7773 232.515 27.7773ZM225.802 14.2048C225.802 18.5596 227.848 20.8096 232.443 20.8096H232.587C237.073 20.8096 239.227 18.5596 239.227 14.2048C239.227 9.9225 237.109 7.74509 232.515 7.74509C228.028 7.74509 225.802 9.9225 225.802 14.2048Z" fill="#F5EBDC"/>
<path d="M264.051 27.0152C264.051 27.0152 259.061 20.4104 256.118 14.3499V27.0152H249.406V1.64831L257.267 1.61202C259.42 9.08783 264.338 16.9628 264.338 16.9628V1.64831H271.05V27.0152H264.051Z" fill="#F5EBDC"/>
<path d="M292.753 27.0152H285.861V1.64831H292.61C301.547 1.64831 306.286 5.85799 306.286 14.1685C306.286 22.6241 301.404 27.0152 292.753 27.0152ZM292.717 21.0636C297.384 21.0636 299.645 18.7411 299.645 14.2411C299.645 9.84992 297.384 7.59992 292.717 7.59992V21.0636Z" fill="#F5EBDC"/>
<path d="M319.165 27.7048C310.622 27.7048 309.868 21.4991 309.868 18.4507V1.64831H316.437V18.4507C316.437 20.3741 317.37 21.2088 319.308 21.2088H319.488C321.462 21.2088 322.395 20.3378 322.395 18.4507V1.64831H329V18.4507C329 21.4991 328.354 27.7048 319.596 27.7048H319.165Z" fill="#F5EBDC"/>
</svg>
