<svg width="474" height="93" viewBox="0 0 474 93" fill="none" xmlns="http://www.w3.org/2000/svg">
<path d="M0 91.0943V46.3443H11.7812V80.5318H24.5312V91.0943H0Z" fill="#F5EBDC"/>
<path d="M30.125 91.0943V46.3443H42.0938V91.0943H30.125Z" fill="#F5EBDC"/>
<path d="M50.5625 91.0943V46.3443H75.0938V56.8443H64.6562C62.7812 56.8443 61.8438 57.9172 61.8438 60.063C61.8438 62.2297 62.7604 63.313 64.5938 63.313H74.4375V73.813H64.6562C62.6979 73.813 61.7188 74.9276 61.7188 77.1568C61.7188 79.4484 62.6771 80.5943 64.5938 80.5943H75.0938V91.0943H50.5625Z" fill="#F5EBDC"/>
<path d="M114.156 89.7505C111.323 91.063 108.479 91.8234 105.625 92.0318C102.792 92.2401 100.188 91.9693 97.8125 91.2193C95.4375 90.4901 93.2083 89.3859 91.125 87.9068C89.0625 86.4276 87.3125 84.688 85.875 82.688C84.4583 80.6672 83.3333 78.4484 82.5 76.0318C81.6875 73.5943 81.2812 71.1255 81.2812 68.6255C81.2812 66.0214 81.6875 63.4901 82.5 61.0318C83.3125 58.5734 84.4375 56.3547 85.875 54.3755C87.3125 52.3964 89.0625 50.688 91.125 49.2505C93.1875 47.813 95.4062 46.7505 97.7812 46.063C100.177 45.3547 102.792 45.1151 105.625 45.3443C108.458 45.5734 111.302 46.313 114.156 47.563V60.5005C112.719 59.3755 111.188 58.5318 109.562 57.9693C107.938 57.3859 106.365 57.0943 104.844 57.0943C103.344 57.0734 101.885 57.3234 100.469 57.8443C99.0729 58.3651 97.8542 59.1047 96.8125 60.063C95.7708 61.0005 94.9375 62.2089 94.3125 63.688C93.6875 65.1672 93.375 66.813 93.375 68.6255C93.375 70.8755 93.8125 72.8651 94.6875 74.5943C95.5625 76.3026 96.7292 77.6047 98.1875 78.5005C99.6458 79.3964 101.26 79.9797 103.031 80.2505C104.823 80.5214 106.688 80.3859 108.625 79.8443C110.583 79.3026 112.427 78.4068 114.156 77.1568V89.7505Z" fill="#F5EBDC"/>
<path d="M121.812 91.0943V46.3443H133.781V63.313H146.125V46.3443H158.156V91.0943H146.125V73.0318H133.781V91.0943H121.812Z" fill="#F5EBDC"/>
<path d="M178.781 92.3755C177.573 92.3755 176.312 92.2505 175 92.0005C173.688 91.7714 172.521 91.4797 171.5 91.1255C170.479 90.7922 169.542 90.4484 168.688 90.0943C167.854 89.7401 167.208 89.4484 166.75 89.2193L166.062 88.8443V78.0318C166.896 78.0318 167.865 78.2401 168.969 78.6568C170.094 79.0526 171.115 79.5005 172.031 80.0005C172.969 80.4797 174.01 80.9276 175.156 81.3443C176.323 81.7401 177.344 81.938 178.219 81.938C179.656 81.938 180.792 81.6047 181.625 80.938C182.458 80.2714 182.875 79.3443 182.875 78.1568C182.875 76.3026 180.938 74.7089 177.062 73.3755C175.875 72.9589 174.844 72.5526 173.969 72.1568C173.094 71.7609 172.083 71.1776 170.938 70.4068C169.792 69.6359 168.854 68.813 168.125 67.938C167.396 67.0422 166.771 65.8964 166.25 64.5005C165.729 63.1047 165.469 61.563 165.469 59.8755C165.469 55.6672 166.917 52.2297 169.812 49.563C172.708 46.8755 176.427 45.5318 180.969 45.5318C182.948 45.5318 184.99 45.8026 187.094 46.3443C189.219 46.8651 190.844 47.3859 191.969 47.9068L193.688 48.7193V59.5318C192.688 59.5318 191.458 59.2193 190 58.5943C188.542 57.9693 187.052 57.3443 185.531 56.7193C184.031 56.0943 182.74 55.7818 181.656 55.7818C180.49 55.7818 179.552 56.0734 178.844 56.6568C178.135 57.2401 177.781 58.0109 177.781 58.9693C177.781 59.2609 177.812 59.5318 177.875 59.7818C177.958 60.0318 178.094 60.2714 178.281 60.5005C178.469 60.7297 178.646 60.938 178.812 61.1255C179 61.2922 179.26 61.4797 179.594 61.688C179.927 61.8755 180.219 62.0422 180.469 62.188C180.719 62.313 181.073 62.4693 181.531 62.6568C181.99 62.8234 182.354 62.9589 182.625 63.063C182.917 63.1672 183.323 63.3234 183.844 63.5318C184.365 63.7193 184.771 63.8651 185.062 63.9693C191.875 66.4484 195.25 70.8443 195.188 77.1568C195.188 78.3651 195.021 79.6151 194.688 80.9068C194.375 82.1984 193.812 83.5422 193 84.938C192.208 86.3339 191.208 87.5734 190 88.6568C188.812 89.7401 187.24 90.6255 185.281 91.313C183.344 92.0214 181.177 92.3755 178.781 92.3755Z" fill="#F5EBDC"/>
<path d="M208.219 91.0943V56.8443H199.5V46.3443H228.938V56.8443H220.188V91.0943H208.219Z" fill="#F5EBDC"/>
<path d="M234.625 91.0943V46.3443H259.156V56.8443H248.719C246.844 56.8443 245.906 57.9172 245.906 60.063C245.906 62.2297 246.823 63.313 248.656 63.313H258.5V73.813H248.719C246.76 73.813 245.781 74.9276 245.781 77.1568C245.781 79.4484 246.74 80.5943 248.656 80.5943H259.156V91.0943H234.625Z" fill="#F5EBDC"/>
<path d="M293.25 91.0943C293 90.7818 292.667 90.3443 292.25 89.7818C291.833 89.1984 291.021 88.0526 289.812 86.3443C288.604 84.6151 287.438 82.9068 286.312 81.2193C285.208 79.5109 283.969 77.5109 282.594 75.2193C281.24 72.9068 280.073 70.7505 279.094 68.7505V91.0943H267.125V46.3443L281.156 46.2818C281.865 48.7401 282.781 51.3547 283.906 54.1255C285.052 56.8964 286.167 59.3755 287.25 61.563C288.354 63.7505 289.406 65.7609 290.406 67.5943C291.406 69.4276 292.219 70.8443 292.844 71.8443L293.75 73.3755V46.3443H305.719V91.0943H293.25Z" fill="#F5EBDC"/>
<path d="M326.344 92.3755C325.135 92.3755 323.875 92.2505 322.562 92.0005C321.25 91.7714 320.083 91.4797 319.062 91.1255C318.042 90.7922 317.104 90.4484 316.25 90.0943C315.417 89.7401 314.771 89.4484 314.312 89.2193L313.625 88.8443V78.0318C314.458 78.0318 315.427 78.2401 316.531 78.6568C317.656 79.0526 318.677 79.5005 319.594 80.0005C320.531 80.4797 321.573 80.9276 322.719 81.3443C323.885 81.7401 324.906 81.938 325.781 81.938C327.219 81.938 328.354 81.6047 329.188 80.938C330.021 80.2714 330.438 79.3443 330.438 78.1568C330.438 76.3026 328.5 74.7089 324.625 73.3755C323.438 72.9589 322.406 72.5526 321.531 72.1568C320.656 71.7609 319.646 71.1776 318.5 70.4068C317.354 69.6359 316.417 68.813 315.688 67.938C314.958 67.0422 314.333 65.8964 313.812 64.5005C313.292 63.1047 313.031 61.563 313.031 59.8755C313.031 55.6672 314.479 52.2297 317.375 49.563C320.271 46.8755 323.99 45.5318 328.531 45.5318C330.51 45.5318 332.552 45.8026 334.656 46.3443C336.781 46.8651 338.406 47.3859 339.531 47.9068L341.25 48.7193V59.5318C340.25 59.5318 339.021 59.2193 337.562 58.5943C336.104 57.9693 334.615 57.3443 333.094 56.7193C331.594 56.0943 330.302 55.7818 329.219 55.7818C328.052 55.7818 327.115 56.0734 326.406 56.6568C325.698 57.2401 325.344 58.0109 325.344 58.9693C325.344 59.2609 325.375 59.5318 325.438 59.7818C325.521 60.0318 325.656 60.2714 325.844 60.5005C326.031 60.7297 326.208 60.938 326.375 61.1255C326.562 61.2922 326.823 61.4797 327.156 61.688C327.49 61.8755 327.781 62.0422 328.031 62.188C328.281 62.313 328.635 62.4693 329.094 62.6568C329.552 62.8234 329.917 62.9589 330.188 63.063C330.479 63.1672 330.885 63.3234 331.406 63.5318C331.927 63.7193 332.333 63.8651 332.625 63.9693C339.438 66.4484 342.812 70.8443 342.75 77.1568C342.75 78.3651 342.583 79.6151 342.25 80.9068C341.938 82.1984 341.375 83.5422 340.562 84.938C339.771 86.3339 338.771 87.5734 337.562 88.6568C336.375 89.7401 334.802 90.6255 332.844 91.313C330.906 92.0214 328.74 92.3755 326.344 92.3755Z" fill="#F5EBDC"/>
<path d="M355.781 91.0943V56.8443H347.062V46.3443H376.5V56.8443H367.75V91.0943H355.781Z" fill="#F5EBDC"/>
<path d="M382.188 91.0943V46.3443H406.719V56.8443H396.281C394.406 56.8443 393.469 57.9172 393.469 60.063C393.469 62.2297 394.385 63.313 396.219 63.313H406.062V73.813H396.281C394.323 73.813 393.344 74.9276 393.344 77.1568C393.344 79.4484 394.302 80.5943 396.219 80.5943H406.719V91.0943H382.188Z" fill="#F5EBDC"/>
<path d="M414.688 91.0943V46.3443H426.656V91.0943H414.688Z" fill="#F5EBDC"/>
<path d="M461.25 91.0943C461 90.7818 460.667 90.3443 460.25 89.7818C459.833 89.1984 459.021 88.0526 457.812 86.3443C456.604 84.6151 455.438 82.9068 454.312 81.2193C453.208 79.5109 451.969 77.5109 450.594 75.2193C449.24 72.9068 448.073 70.7505 447.094 68.7505V91.0943H435.125V46.3443L449.156 46.2818C449.865 48.7401 450.781 51.3547 451.906 54.1255C453.052 56.8964 454.167 59.3755 455.25 61.563C456.354 63.7505 457.406 65.7609 458.406 67.5943C459.406 69.4276 460.219 70.8443 460.844 71.8443L461.75 73.3755V46.3443H473.719V91.0943H461.25Z" fill="#F5EBDC"/>
<path d="M0 29.4204V1.45166H7.36328V22.8188H15.332V29.4204H0Z" fill="#F5EBDC"/>
<path d="M17.1484 29.4204L27.3438 1.45166H35.0977L45.0977 29.4204H37.3438L36.4258 26.8618C36.1133 26.0415 35.7552 25.4425 35.3516 25.0649C34.4141 24.1925 33.0794 23.7368 31.3477 23.6978H31.0156C29.2578 23.7368 27.9167 24.1535 26.9922 24.9478C26.5234 25.3774 26.1458 25.9764 25.8594 26.7446L24.8633 29.4204H17.1484ZM28.7109 18.5806H33.6328L31.1914 10.9829L28.7109 18.5806Z" fill="#F5EBDC"/>
<path d="M59.6484 29.4204V1.45166H68.3008C69.0951 1.45166 69.8177 1.47119 70.4688 1.51025C71.1198 1.54932 71.862 1.64697 72.6953 1.80322C73.5286 1.94645 74.2708 2.14827 74.9219 2.40869C75.5729 2.65609 76.2305 3.01416 76.8945 3.48291C77.5586 3.93864 78.1055 4.48551 78.5352 5.12354C78.9779 5.74854 79.3359 6.5363 79.6094 7.48682C79.8828 8.42432 80.0195 9.479 80.0195 10.6509C80.0195 11.8358 79.8828 12.9165 79.6094 13.8931C79.349 14.8696 79.0039 15.6834 78.5742 16.3345C78.1445 16.9855 77.6302 17.5649 77.0312 18.0728C76.4323 18.5675 75.8333 18.9582 75.2344 19.2446C74.6484 19.5181 74.0169 19.7459 73.3398 19.9282C72.6628 20.0975 72.0703 20.2082 71.5625 20.2603C71.0677 20.3123 70.5794 20.3384 70.0977 20.3384H66.9336V29.4204H59.6484ZM65.8203 10.8657C65.8203 13.1574 66.9922 14.3032 69.3359 14.3032H69.5703C70.7812 14.3032 71.6732 14.0298 72.2461 13.4829C72.832 12.923 73.125 12.0767 73.125 10.9438C73.125 8.65218 71.9531 7.50635 69.6094 7.50635H69.375C68.1641 7.50635 67.2656 7.7863 66.6797 8.34619C66.1068 8.89307 65.8203 9.73291 65.8203 10.8657Z" fill="#F5EBDC"/>
<path d="M103.242 29.2446C101.51 29.9217 99.6094 30.2603 97.5391 30.2603C95.4688 30.2603 93.5612 29.9217 91.8164 29.2446C90.0716 28.5675 88.6328 27.6561 87.5 26.5103C86.3672 25.3514 85.3971 24.0298 84.5898 22.5454C83.7826 21.061 83.2812 19.4985 83.0859 17.8579C82.9036 16.2043 82.8906 14.5571 83.0469 12.9165C83.2031 11.2629 83.6719 9.69385 84.4531 8.20947C85.2344 6.7251 86.1849 5.40999 87.3047 4.26416C88.4375 3.10531 89.8893 2.18734 91.6602 1.51025C93.431 0.833171 95.3776 0.494629 97.5 0.494629C99.6224 0.494629 101.569 0.833171 103.34 1.51025C105.111 2.18734 106.562 3.10531 107.695 4.26416C108.828 5.40999 109.785 6.7251 110.566 8.20947C111.348 9.69385 111.816 11.2629 111.973 12.9165C112.142 14.5571 112.135 16.2043 111.953 17.8579C111.771 19.4985 111.276 21.061 110.469 22.5454C109.674 24.0298 108.704 25.3514 107.559 26.5103C106.426 27.6561 104.987 28.5675 103.242 29.2446ZM90.0586 15.2993C90.0586 17.7342 90.6576 19.5571 91.8555 20.7681C93.0664 21.979 94.9349 22.5845 97.4609 22.5845H97.6367C102.559 22.5845 105.02 20.1561 105.02 15.2993C105.02 12.9165 104.408 11.1392 103.184 9.96729C101.96 8.78239 100.078 8.18994 97.5391 8.18994C92.5521 8.18994 90.0586 10.5597 90.0586 15.2993Z" fill="#F5EBDC"/>
<path d="M116.367 29.4204V1.45166H125.02C125.814 1.45166 126.536 1.47119 127.188 1.51025C127.839 1.54932 128.581 1.64697 129.414 1.80322C130.247 1.94645 130.99 2.14827 131.641 2.40869C132.292 2.65609 132.949 3.01416 133.613 3.48291C134.277 3.93864 134.824 4.48551 135.254 5.12354C135.697 5.74854 136.055 6.5363 136.328 7.48682C136.602 8.42432 136.738 9.479 136.738 10.6509C136.738 11.8358 136.602 12.9165 136.328 13.8931C136.068 14.8696 135.723 15.6834 135.293 16.3345C134.863 16.9855 134.349 17.5649 133.75 18.0728C133.151 18.5675 132.552 18.9582 131.953 19.2446C131.367 19.5181 130.736 19.7459 130.059 19.9282C129.382 20.0975 128.789 20.2082 128.281 20.2603C127.786 20.3123 127.298 20.3384 126.816 20.3384H123.652V29.4204H116.367ZM122.539 10.8657C122.539 13.1574 123.711 14.3032 126.055 14.3032H126.289C127.5 14.3032 128.392 14.0298 128.965 13.4829C129.551 12.923 129.844 12.0767 129.844 10.9438C129.844 8.65218 128.672 7.50635 126.328 7.50635H126.094C124.883 7.50635 123.984 7.7863 123.398 8.34619C122.826 8.89307 122.539 9.73291 122.539 10.8657Z" fill="#F5EBDC"/>
<path d="M150.82 30.1821C149.505 30.1821 148.314 30.0454 147.246 29.772C146.191 29.5116 145.312 29.173 144.609 28.7563C143.906 28.3397 143.288 27.8254 142.754 27.2134C142.233 26.6014 141.829 26.0024 141.543 25.4165C141.257 24.8306 141.029 24.1795 140.859 23.4634C140.69 22.7472 140.579 22.1353 140.527 21.6274C140.488 21.1066 140.469 20.5597 140.469 19.9868V1.45166H147.793V19.9868C147.793 21.0415 148.053 21.8097 148.574 22.2915C149.095 22.7733 149.902 23.0142 150.996 23.0142H151.191C152.298 23.0142 153.112 22.7668 153.633 22.272C154.167 21.7772 154.434 21.0155 154.434 19.9868V1.45166H161.777V19.9868C161.777 20.5728 161.758 21.1196 161.719 21.6274C161.68 22.1353 161.576 22.7537 161.406 23.4829C161.237 24.1991 161.009 24.8501 160.723 25.436C160.449 26.009 160.046 26.6014 159.512 27.2134C158.991 27.8254 158.372 28.3397 157.656 28.7563C156.94 29.173 156.035 29.5116 154.941 29.772C153.861 30.0454 152.65 30.1821 151.309 30.1821H150.82Z" fill="#F5EBDC"/>
<path d="M166.875 29.4204V1.45166H174.238V22.8188H182.207V29.4204H166.875Z" fill="#F5EBDC"/>
<path d="M184.023 29.4204L194.219 1.45166H201.973L211.973 29.4204H204.219L203.301 26.8618C202.988 26.0415 202.63 25.4425 202.227 25.0649C201.289 24.1925 199.954 23.7368 198.223 23.6978H197.891C196.133 23.7368 194.792 24.1535 193.867 24.9478C193.398 25.3774 193.021 25.9764 192.734 26.7446L191.738 29.4204H184.023ZM195.586 18.5806H200.508L198.066 10.9829L195.586 18.5806Z" fill="#F5EBDC"/>
<path d="M216.27 29.4204V8.01416H210.82V1.45166H229.219V8.01416H223.75V29.4204H216.27Z" fill="#F5EBDC"/>
<path d="M232.773 29.4204V1.45166H240.254V29.4204H232.773Z" fill="#F5EBDC"/>
<path d="M264.805 29.2446C263.073 29.9217 261.172 30.2603 259.102 30.2603C257.031 30.2603 255.124 29.9217 253.379 29.2446C251.634 28.5675 250.195 27.6561 249.062 26.5103C247.93 25.3514 246.96 24.0298 246.152 22.5454C245.345 21.061 244.844 19.4985 244.648 17.8579C244.466 16.2043 244.453 14.5571 244.609 12.9165C244.766 11.2629 245.234 9.69385 246.016 8.20947C246.797 6.7251 247.747 5.40999 248.867 4.26416C250 3.10531 251.452 2.18734 253.223 1.51025C254.993 0.833171 256.94 0.494629 259.062 0.494629C261.185 0.494629 263.132 0.833171 264.902 1.51025C266.673 2.18734 268.125 3.10531 269.258 4.26416C270.391 5.40999 271.348 6.7251 272.129 8.20947C272.91 9.69385 273.379 11.2629 273.535 12.9165C273.704 14.5571 273.698 16.2043 273.516 17.8579C273.333 19.4985 272.839 21.061 272.031 22.5454C271.237 24.0298 270.267 25.3514 269.121 26.5103C267.988 27.6561 266.549 28.5675 264.805 29.2446ZM251.621 15.2993C251.621 17.7342 252.22 19.5571 253.418 20.7681C254.629 21.979 256.497 22.5845 259.023 22.5845H259.199C264.121 22.5845 266.582 20.1561 266.582 15.2993C266.582 12.9165 265.97 11.1392 264.746 9.96729C263.522 8.78239 261.641 8.18994 259.102 8.18994C254.115 8.18994 251.621 10.5597 251.621 15.2993Z" fill="#F5EBDC"/>
<path d="M294.258 29.4204C294.102 29.2251 293.893 28.9517 293.633 28.6001C293.372 28.2355 292.865 27.5194 292.109 26.4517C291.354 25.3709 290.625 24.3032 289.922 23.2485C289.232 22.1808 288.457 20.9308 287.598 19.4985C286.751 18.0532 286.022 16.7056 285.41 15.4556V29.4204H277.93V1.45166L286.699 1.4126C287.142 2.94906 287.715 4.58317 288.418 6.31494C289.134 8.04671 289.831 9.59619 290.508 10.9634C291.198 12.3306 291.855 13.5871 292.48 14.7329C293.105 15.8787 293.613 16.7642 294.004 17.3892L294.57 18.3462V1.45166H302.051V29.4204H294.258Z" fill="#F5EBDC"/>
<path d="M326.23 29.4204H318.555V1.45166H326.074C331.074 1.45166 334.863 2.61051 337.441 4.92822C340.02 7.24593 341.309 10.6899 341.309 15.2603C341.309 19.8827 340.007 23.3983 337.402 25.8071C334.811 28.216 331.087 29.4204 326.23 29.4204ZM326.191 22.8579C331.348 22.8579 333.926 20.3514 333.926 15.3384C333.926 10.4556 331.348 8.01416 326.191 8.01416V22.8579Z" fill="#F5EBDC"/>
<path d="M355.664 30.1821C354.349 30.1821 353.158 30.0454 352.09 29.772C351.035 29.5116 350.156 29.173 349.453 28.7563C348.75 28.3397 348.132 27.8254 347.598 27.2134C347.077 26.6014 346.673 26.0024 346.387 25.4165C346.1 24.8306 345.872 24.1795 345.703 23.4634C345.534 22.7472 345.423 22.1353 345.371 21.6274C345.332 21.1066 345.312 20.5597 345.312 19.9868V1.45166H352.637V19.9868C352.637 21.0415 352.897 21.8097 353.418 22.2915C353.939 22.7733 354.746 23.0142 355.84 23.0142H356.035C357.142 23.0142 357.956 22.7668 358.477 22.272C359.01 21.7772 359.277 21.0155 359.277 19.9868V1.45166H366.621V19.9868C366.621 20.5728 366.602 21.1196 366.562 21.6274C366.523 22.1353 366.419 22.7537 366.25 23.4829C366.081 24.1991 365.853 24.8501 365.566 25.436C365.293 26.009 364.889 26.6014 364.355 27.2134C363.835 27.8254 363.216 28.3397 362.5 28.7563C361.784 29.173 360.879 29.5116 359.785 29.772C358.704 30.0454 357.493 30.1821 356.152 30.1821H355.664Z" fill="#F5EBDC"/>
</svg>
