<svg width="1164" height="172" viewBox="0 0 1164 172" fill="none" xmlns="http://www.w3.org/2000/svg">
<path d="M23.0186 122.444V31.8387H0V4.06451H77.8569V31.8387H54.6691V122.444H23.0186Z" fill="#F5EBDC"/>
<path d="M92.9007 122.444V4.06451H124.551V48.9436H157.217V4.06451H189.037V122.444H157.217V74.6855H124.551V122.444H92.9007Z" fill="#F5EBDC"/>
<path d="M211.412 122.444V4.06451H276.236V31.8387H248.647C243.57 31.8387 241.2 34.7177 241.2 40.3065C241.2 46.0645 243.739 48.9436 248.478 48.9436H274.543V76.7178H248.647C243.401 76.7178 240.862 79.7661 240.862 85.5242C240.862 91.621 243.401 94.6694 248.478 94.6694H276.236V122.444H211.412Z" fill="#F5EBDC"/>
<path d="M394.898 125.661C394.898 125.661 353.769 74.0081 336.674 4.06451H366.801C374.079 31.5 385.927 56.0565 395.575 72.9919C397.775 68.9274 400.821 64.1855 403.36 59.4436C395.067 41.4919 388.466 23.2016 383.896 4.06451H411.992C413.515 9.99194 417.07 24.2177 419.27 29.8065C421.64 24.2177 425.025 9.99194 426.717 4.06451H454.644C450.074 23.2016 443.643 41.4919 435.349 59.4436C437.719 64.1855 440.935 68.9274 443.135 72.9919C452.782 56.0565 464.63 31.5 471.908 4.06451H502.035C484.771 74.0081 443.643 125.661 443.643 125.661C434.842 114.653 426.717 103.306 419.27 91.2823C411.823 103.306 403.699 114.653 394.898 125.661Z" fill="#F5EBDC"/>
<path d="M516.201 122.444V4.06451H547.852V48.9436H580.518V4.06451H612.337V122.444H580.518V74.6855H547.852V122.444H516.201Z" fill="#F5EBDC"/>
<path d="M692.089 126C610.678 126 608.308 0 691.92 0C775.531 0 773.5 126 692.089 126ZM660.439 62.6613C660.439 82.9839 670.086 93.4839 691.751 93.4839H692.428C713.584 93.4839 723.74 82.9839 723.74 62.6613C723.74 42.6774 713.754 32.5161 692.089 32.5161C670.932 32.5161 660.439 42.6774 660.439 62.6613Z" fill="#F5EBDC"/>
<path d="M771.735 122.444V4.06451H808.294C828.435 4.06451 857.885 7.1129 857.885 43.0161C857.885 79.4274 828.266 84 815.91 84H802.539V122.444H771.735ZM797.8 43.8629C797.8 53.5161 802.709 58.4274 812.695 58.4274H813.71C824.035 58.4274 828.774 53.6855 828.774 44.2016C828.774 34.5484 823.527 29.6371 813.879 29.6371H812.864C802.539 29.6371 797.8 34.379 797.8 43.8629Z" fill="#F5EBDC"/>
<path d="M874.709 122.444V4.06451H911.268C931.409 4.06451 960.859 7.1129 960.859 43.0161C960.859 79.4274 931.24 84 918.884 84H905.513V122.444H874.709ZM900.774 43.8629C900.774 53.5161 905.683 58.4274 915.669 58.4274H916.684C927.009 58.4274 931.748 53.6855 931.748 44.2016C931.748 34.5484 926.501 29.6371 916.853 29.6371H915.838C905.513 29.6371 900.774 34.379 900.774 43.8629Z" fill="#F5EBDC"/>
<path d="M977.683 122.444V4.06451H1042.51V31.8387H1014.92C1009.84 31.8387 1007.47 34.7177 1007.47 40.3065C1007.47 46.0645 1010.01 48.9436 1014.75 48.9436H1040.81V76.7178H1014.92C1009.67 76.7178 1007.13 79.7661 1007.13 85.5242C1007.13 91.621 1009.67 94.6694 1014.75 94.6694H1042.51V122.444H977.683Z" fill="#F5EBDC"/>
<path d="M1129.3 123.968C1116.61 123.968 1104.93 115.669 1094.44 99.4113V122.444H1063.63V4.06451H1102.56C1120.16 4.06451 1149.78 7.1129 1149.78 43.0161C1149.78 77.2258 1124.06 82.4758 1114.58 83.4919C1123.72 103.137 1137.6 103.306 1138.61 84.8468H1164C1164 91.1129 1162.65 97.2097 1160.28 102.968C1154.69 116.347 1143.35 123.968 1129.3 123.968ZM1089.7 43.8629C1089.7 53.5161 1094.61 58.4274 1104.59 58.4274H1105.61C1115.93 58.4274 1120.67 53.6855 1120.67 44.2016C1120.67 34.5484 1115.76 29.6371 1105.78 29.6371H1104.76C1094.44 29.6371 1089.7 34.379 1089.7 43.8629Z" fill="#F5EBDC"/>
<path d="M972.74 159H966.98V138.03H972.62C980.09 138.03 984.05 141.51 984.05 148.38C984.05 155.37 979.97 159 972.74 159ZM972.71 154.08C976.61 154.08 978.5 152.16 978.5 148.44C978.5 144.81 976.61 142.95 972.71 142.95V154.08ZM987.224 159V138.03H998.714V142.95H993.824C992.924 142.95 992.504 143.46 992.504 144.45C992.504 145.47 992.954 145.98 993.794 145.98H998.414V150.9H993.824C992.894 150.9 992.444 151.44 992.444 152.46C992.444 153.54 992.894 154.08 993.794 154.08H998.714V159H987.224ZM1002.46 159V138.03H1008.94C1012.51 138.03 1017.73 138.57 1017.73 144.93C1017.73 151.38 1012.48 152.19 1010.29 152.19H1007.92V159H1002.46ZM1007.08 145.08C1007.08 146.79 1007.95 147.66 1009.72 147.66H1009.9C1011.73 147.66 1012.57 146.82 1012.57 145.14C1012.57 143.43 1011.64 142.56 1009.93 142.56H1009.75C1007.92 142.56 1007.08 143.4 1007.08 145.08ZM1028.3 159.57C1021.16 159.57 1020.53 154.44 1020.53 151.92V138.03H1026.02V151.92C1026.02 153.51 1026.8 154.2 1028.42 154.2H1028.57C1030.22 154.2 1031 153.48 1031 151.92V138.03H1036.52V151.92C1036.52 154.44 1035.98 159.57 1028.66 159.57H1028.3ZM1040.34 159V138.03H1045.95V159H1040.34ZM1055.62 159.6C1052.59 159.6 1049.65 157.95 1049.65 157.95V152.88C1051.39 152.88 1053.49 154.71 1055.35 154.71C1056.7 154.71 1057.54 154.05 1057.54 152.94C1057.54 152.07 1056.64 151.32 1054.81 150.69C1052.56 149.88 1049.38 148.47 1049.38 144.36C1049.38 140.4 1052.38 137.64 1056.64 137.64C1059.76 137.64 1062.61 139.14 1062.61 139.14V144.21C1060.93 144.21 1058.8 142.44 1056.97 142.44C1055.89 142.44 1055.14 143.04 1055.14 143.94C1055.14 145.17 1056.82 145.62 1058.56 146.28C1061.77 147.45 1063.33 149.49 1063.3 152.46C1063.3 155.1 1061.53 159.6 1055.62 159.6ZM1077.43 144.54C1076.53 144.84 1075.6 144.99 1074.67 144.99V140.46C1077.43 140.46 1077.43 138.21 1077.43 138.03H1082.92V159H1077.43V144.54ZM1095.14 152.22C1093.73 152.61 1090.52 152.94 1088.3 150.42C1085.78 147.57 1085.93 141.87 1088.63 139.41C1091.36 136.56 1098.2 136.38 1101.11 139.35C1103.51 141.66 1103.93 145.11 1102.88 148.47C1102.43 149.79 1101.65 151.17 1100.45 152.88L1096.01 159H1089.77L1095.14 152.22ZM1091.96 144.99C1091.96 146.85 1092.92 147.84 1094.87 147.84H1095.05C1097.09 147.84 1098.02 146.91 1098.02 145.05C1098.02 143.16 1097.06 142.2 1095.11 142.2H1094.9C1092.89 142.2 1091.96 143.13 1091.96 144.99ZM1111.51 159.66C1109.56 159.66 1107.61 159.18 1105.9 158.25V152.28L1106.08 152.46C1106.95 153.21 1107.31 153.48 1107.91 153.81C1108.96 154.41 1110.25 154.77 1111.27 154.77C1113.01 154.77 1114.33 153.54 1114.33 151.89C1114.33 149.97 1112.65 148.62 1110.22 148.62H1106.38L1108.03 138.03H1118.53V142.95H1112.95L1112.68 144.69C1114.96 144.75 1116.79 145.47 1118.05 146.79C1119.31 148.08 1119.94 149.91 1119.94 152.1C1119.94 154.38 1119.16 156.27 1117.66 157.62C1116.16 158.94 1114.06 159.66 1111.51 159.66ZM1126.35 151.11C1125.24 151.11 1124.16 151.38 1123.17 151.89V147.36C1124.55 146.97 1126.41 146.64 1128.39 147.15L1130.55 142.95H1122.54V138.03H1139.1L1133.43 149.07C1135.44 149.07 1136.73 148.26 1136.73 148.26V152.79C1135.23 153.3 1133.1 153.51 1131.39 153.03L1128.33 159H1122.3L1126.35 151.11Z" fill="#F5EBDC"/>
<path d="M7.68 159.6C4.65 159.6 1.71 157.95 1.71 157.95V152.88C3.45 152.88 5.55 154.71 7.41 154.71C8.76 154.71 9.6 154.05 9.6 152.94C9.6 152.07 8.7 151.32 6.87 150.69C4.62 149.88 1.44 148.47 1.44 144.36C1.44 140.4 4.44 137.64 8.7 137.64C11.82 137.64 14.67 139.14 14.67 139.14V144.21C12.99 144.21 10.86 142.44 9.03 142.44C7.95 142.44 7.2 143.04 7.2 143.94C7.2 145.17 8.88 145.62 10.62 146.28C13.83 147.45 15.39 149.49 15.36 152.46C15.36 155.1 13.59 159.6 7.68 159.6ZM28.8785 159.63C14.4485 159.63 14.0285 137.31 28.8485 137.31C43.6685 137.31 43.3085 159.63 28.8785 159.63ZM23.2685 148.41C23.2685 152.01 24.9785 153.87 28.8185 153.87H28.9385C32.6885 153.87 34.4885 152.01 34.4885 148.41C34.4885 144.87 32.7185 143.07 28.8785 143.07C25.1285 143.07 23.2685 144.87 23.2685 148.41ZM55.2356 159C55.2356 159 51.0656 153.54 48.6056 148.53V159H42.9956V138.03L49.5656 138C51.3656 144.18 55.4756 150.69 55.4756 150.69V138.03H61.0856V159H55.2356ZM85.1044 159.27C82.8544 159.27 80.7844 157.8 78.9244 154.92V159H73.4644V138.03H80.3644C83.4844 138.03 88.7344 138.57 88.7344 144.93C88.7344 150.99 84.1744 151.92 82.4944 152.1C84.1144 155.58 86.5744 155.61 86.7544 152.34H91.2544C91.2544 153.45 91.0144 154.53 90.5944 155.55C89.6044 157.92 87.5944 159.27 85.1044 159.27ZM78.0844 145.08C78.0844 146.79 78.9544 147.66 80.7244 147.66H80.9044C82.7344 147.66 83.5744 146.82 83.5744 145.14C83.5744 143.43 82.7044 142.56 80.9344 142.56H80.7544C78.9244 142.56 78.0844 143.4 78.0844 145.08ZM93.7378 159V138.03H105.228V142.95H100.338C99.4378 142.95 99.0178 143.46 99.0178 144.45C99.0178 145.47 99.4678 145.98 100.308 145.98H104.928V150.9H100.338C99.4078 150.9 98.9878 151.44 98.9878 152.46C98.9878 153.54 99.4078 154.08 100.308 154.08H105.228V159H93.7378ZM94.5178 133.65L96.7978 130.02L104.448 134.85L102.918 137.34L94.5178 133.65ZM129.252 159C127.632 159 126.042 158.43 124.812 157.41C121.152 159.66 114.912 159.81 111.222 155.85C104.652 149.13 109.242 137.04 118.692 137.04C121.752 137.04 124.692 138.24 126.822 140.82L122.952 144.66C120.702 141.27 113.802 141.87 113.802 148.11C113.802 152.67 117.942 154.62 121.812 152.82C121.512 152.04 121.272 151.23 121.122 150.42H117.912V145.89H129.222L129.252 150.42H125.772C125.772 151.68 127.722 154.47 129.252 154.47V159ZM144.825 159C144.825 159 140.655 153.54 138.195 148.53V159H132.585V138.03L139.155 138C140.955 144.18 145.065 150.69 145.065 150.69V138.03H150.675V159H144.825ZM154.646 159V138.03H166.136V142.95H161.246C160.346 142.95 159.926 143.46 159.926 144.45C159.926 145.47 160.376 145.98 161.216 145.98H165.836V150.9H161.246C160.316 150.9 159.866 151.44 159.866 152.46C159.866 153.54 160.316 154.08 161.216 154.08H166.136V159H154.646Z" fill="#F5EBDC"/>
</svg>
