<svg width="1164" height="333" viewBox="0 0 1164 333" fill="none" xmlns="http://www.w3.org/2000/svg">
<path d="M717.629 296.68C717.629 296.68 683.885 254.332 669.859 196.989H694.577C700.548 219.482 710.269 239.614 718.184 253.499C719.99 250.166 722.489 246.279 724.572 242.391C717.768 227.674 712.352 212.678 708.603 196.989H731.654C732.904 201.848 735.82 213.511 737.626 218.093C739.57 213.511 742.347 201.848 743.736 196.989H766.649C762.899 212.678 757.622 227.674 750.818 242.391C752.762 246.279 755.4 250.166 757.206 253.499C765.121 239.614 774.842 219.482 780.813 196.989H805.531C791.367 254.332 757.622 296.68 757.622 296.68C750.401 287.655 743.736 278.352 737.626 268.494C731.516 278.352 724.85 287.655 717.629 296.68Z" fill="#F5EBDC"/>
<path d="M860.432 296.957C793.637 296.957 791.693 193.656 860.293 193.656C928.893 193.656 927.226 296.957 860.432 296.957ZM834.464 245.029C834.464 261.691 842.379 270.299 860.154 270.299H860.71C878.068 270.299 886.4 261.691 886.4 245.029C886.4 228.645 878.207 220.315 860.432 220.315C843.074 220.315 834.464 228.645 834.464 245.029Z" fill="#F5EBDC"/>
<path d="M979.658 295.291C969.243 295.291 959.661 288.488 951.052 275.159V294.042H925.778V196.989H957.717C972.159 196.989 996.461 199.488 996.461 228.923C996.461 256.97 975.353 261.274 967.577 262.107C975.075 278.213 986.462 278.352 987.295 263.218H1008.13C1008.13 268.355 1007.01 273.354 1005.07 278.074C1000.49 289.043 991.184 295.291 979.658 295.291ZM947.163 229.617C947.163 237.532 951.19 241.558 959.383 241.558H960.217C968.687 241.558 972.576 237.67 972.576 229.895C972.576 221.981 968.549 217.954 960.356 217.954H959.522C951.052 217.954 947.163 221.842 947.163 229.617Z" fill="#F5EBDC"/>
<path d="M1019.62 294.042V196.989H1045.17V271.132H1072.81V294.042H1019.62Z" fill="#F5EBDC"/>
<path d="M1111.65 294.042H1084.99V196.989H1111.09C1145.67 196.989 1164 213.095 1164 244.89C1164 277.241 1145.11 294.042 1111.65 294.042ZM1111.51 271.271C1129.56 271.271 1138.31 262.385 1138.31 245.168C1138.31 228.368 1129.56 219.759 1111.51 219.759V271.271Z" fill="#F5EBDC"/>
<path d="M566.735 296.957V270.874H560.168V262.879H582.38V270.874H575.765V296.957H566.735Z" fill="#F5EBDC"/>
<path d="M586.672 296.957V262.879H595.701V275.798H605.021V262.879H614.098V296.957H605.021V283.209H595.701V296.957H586.672Z" fill="#F5EBDC"/>
<path d="M620.482 296.957V262.879H638.975V270.874H631.105C629.656 270.874 628.98 271.703 628.98 273.312C628.98 274.97 629.704 275.798 631.056 275.798H638.492V283.794H631.105C629.608 283.794 628.883 284.672 628.883 286.329C628.883 288.084 629.608 288.962 631.056 288.962H638.975V296.957H620.482Z" fill="#F5EBDC"/>
<path d="M560.168 253.294V193.742H576.146V253.294H560.168Z" fill="#F5EBDC"/>
<path d="M622.314 253.294C622.314 253.294 610.437 237.788 603.431 223.56V253.294H587.453V193.742L606.165 193.656C611.292 211.207 622.997 229.695 622.997 229.695V193.742H638.975V253.294H622.314Z" fill="#F5EBDC"/>
<path d="M0 294.344V198.196H32.0753C40.6104 198.196 47.9065 200.534 53.2754 204.798C64.839 213.601 64.7013 234.647 52.4494 242.762C67.4546 246.614 70.0702 260.094 70.0702 266.834C70.0702 285.128 56.3039 294.481 38.2702 294.344H0ZM21.0624 264.22C21.0624 271.51 24.9169 275.362 32.4883 275.362H33.3143C41.1611 275.362 44.7403 271.648 44.7403 264.495C44.7403 257.068 41.0234 253.216 33.452 253.216H32.626C24.7792 253.216 21.0624 256.93 21.0624 264.22ZM21.2 225.843C21.2 231.896 24.2286 234.922 30.4234 234.922H31.1117C37.4442 234.922 40.4728 231.896 40.4728 225.981C40.4728 220.066 37.4442 216.903 31.1117 216.903H30.5611C24.0909 216.903 21.2 219.929 21.2 225.843Z" fill="#F5EBDC"/>
<path d="M118.986 296.957C86.2218 296.957 83.3309 273.436 83.3309 261.882V198.196H108.523V261.882C108.523 269.172 112.102 272.336 119.536 272.336H120.224C127.796 272.336 131.375 269.034 131.375 261.882V198.196H156.705V261.882C156.705 273.436 154.227 296.957 120.637 296.957H118.986Z" fill="#F5EBDC"/>
<path d="M227.642 295.582C217.317 295.582 207.819 288.842 199.284 275.637V294.344H174.229V198.196H205.891C220.208 198.196 244.299 200.671 244.299 229.832C244.299 257.618 223.374 261.882 215.665 262.707C223.099 278.663 234.387 278.801 235.213 263.808H255.863C255.863 268.897 254.762 273.849 252.834 278.526C248.291 289.392 239.068 295.582 227.642 295.582ZM195.429 230.52C195.429 238.361 199.421 242.35 207.543 242.35H208.369C216.767 242.35 220.621 238.498 220.621 230.795C220.621 222.955 216.629 218.966 208.507 218.966H207.681C199.284 218.966 195.429 222.817 195.429 230.52Z" fill="#F5EBDC"/>
<path d="M360.319 294.344C352.885 294.344 345.589 291.73 339.944 287.054C323.15 297.37 294.516 298.058 277.583 279.901C247.435 249.09 268.498 193.656 311.861 193.656C325.903 193.656 339.394 199.158 349.168 210.988L331.409 228.594C321.085 213.051 289.422 215.802 289.422 244.413C289.422 265.321 308.42 274.261 326.178 266.008C324.802 262.432 323.7 258.718 323.012 255.004H308.282V234.234H360.181L360.319 255.004H344.35C344.35 260.781 353.298 273.574 360.319 273.574V294.344Z" fill="#F5EBDC"/>
<path d="M375.614 294.344V198.196H428.339V220.754H405.9C401.77 220.754 399.843 223.092 399.843 227.632C399.843 232.308 401.908 234.647 405.762 234.647H426.962V257.205H405.9C401.632 257.205 399.567 259.681 399.567 264.358C399.567 269.31 401.632 271.785 405.762 271.785H428.339V294.344H375.614Z" fill="#F5EBDC"/>
<path d="M498.934 295.582C488.609 295.582 479.11 288.842 470.575 275.637V294.344H445.521V198.196H477.183C491.5 198.196 515.591 200.671 515.591 229.832C515.591 257.618 494.666 261.882 486.957 262.707C494.391 278.663 505.679 278.801 506.505 263.808H527.155C527.155 268.897 526.053 273.849 524.126 278.526C519.583 289.392 510.36 295.582 498.934 295.582ZM466.721 230.52C466.721 238.361 470.713 242.35 478.835 242.35H479.661C488.058 242.35 491.913 238.498 491.913 230.795C491.913 222.955 487.921 218.966 479.799 218.966H478.973C470.575 218.966 466.721 222.817 466.721 230.52Z" fill="#F5EBDC"/>
<path d="M312.944 180.877C288.714 180.877 265.204 167.714 265.204 167.714V127.266C279.118 127.266 295.911 141.866 310.785 141.866C321.581 141.866 328.298 136.6 328.298 127.745C328.298 120.804 321.101 114.821 306.467 109.795C288.474 103.333 263.045 92.0845 263.045 59.296C263.045 27.7041 287.035 5.68552 321.101 5.68552C346.051 5.68552 368.841 17.6521 368.841 17.6521V58.0993C355.407 58.0993 338.374 43.9787 323.74 43.9787C315.103 43.9787 309.106 48.7654 309.106 55.9453C309.106 65.758 322.54 69.348 336.455 74.6133C362.124 83.9472 374.599 100.222 374.359 123.916C374.359 144.977 360.205 180.877 312.944 180.877Z" fill="#F5EBDC"/>
<path d="M401.136 176.09V8.79683H493.018V48.0474H453.914C446.717 48.0474 443.359 52.116 443.359 60.014C443.359 68.1513 446.957 72.2199 453.675 72.2199H490.619V111.47H453.914C446.478 111.47 442.879 115.778 442.879 123.916C442.879 132.532 446.478 136.84 453.675 136.84H493.018V176.09H401.136Z" fill="#F5EBDC"/>
<path d="M522.961 176.09V8.79683H567.103V136.6H614.843V176.09H522.961Z" fill="#F5EBDC"/>
<path d="M635.883 176.09V8.79683H680.025V136.6H727.766V176.09H635.883Z" fill="#F5EBDC"/>
<path d="M748.806 176.09V8.79683H793.667V176.09H748.806Z" fill="#F5EBDC"/>
<path d="M923.295 176.09C923.295 176.09 889.948 132.532 870.276 92.5632V176.09H825.415V8.79683L877.953 8.55751C892.347 57.86 925.214 109.795 925.214 109.795V8.79683H970.075V176.09H923.295Z" fill="#F5EBDC"/>
<path d="M1164 176.09C1151.05 176.09 1138.33 171.543 1128.49 163.406C1099.23 181.356 1049.33 182.552 1019.82 150.96C967.281 97.3499 1003.99 0.898865 1079.55 0.898865C1104.02 0.898865 1127.53 10.4722 1144.57 31.0548L1113.62 61.6893C1095.63 34.6447 1040.45 39.4314 1040.45 89.2126C1040.45 125.591 1073.56 141.148 1104.5 126.788C1102.11 120.565 1100.19 114.103 1098.99 107.641H1073.32V71.502H1163.76L1164 107.641H1136.17C1136.17 117.693 1151.76 139.951 1164 139.951V176.09Z" fill="#F5EBDC"/>
<path d="M0 179.847V106.627H24.188C30.6243 106.627 36.1263 108.407 40.1749 111.655C48.8951 118.359 48.7912 134.385 39.5521 140.566C50.8675 143.499 52.8399 153.764 52.8399 158.897C52.8399 172.829 42.4588 179.952 28.8595 179.847H0ZM15.8831 156.907C15.8831 162.458 18.7898 165.391 24.4994 165.391H25.1223C31.0395 165.391 33.7386 162.563 33.7386 157.116C33.7386 151.46 30.9357 148.527 25.2261 148.527H24.6032C18.686 148.527 15.8831 151.355 15.8831 156.907ZM15.9869 127.681C15.9869 132.29 18.2708 134.595 22.9423 134.595H23.4613C28.2366 134.595 30.5205 132.29 30.5205 127.786C30.5205 123.282 28.2366 120.873 23.4613 120.873H23.0461C18.167 120.873 15.9869 123.177 15.9869 127.681Z" fill="#F5EBDC"/>
<path d="M63.4627 179.847V106.627H103.222V123.806H86.3011C83.1868 123.806 81.7334 125.586 81.7334 129.043C81.7334 132.605 83.2906 134.385 86.1973 134.385H102.184V151.564H86.3011C83.083 151.564 81.5258 153.45 81.5258 157.011C81.5258 160.782 83.083 162.668 86.1973 162.668H103.222V179.847H63.4627Z" fill="#F5EBDC"/>
<path d="M135.903 181.942C125.418 181.942 115.245 176.181 115.245 176.181V158.478C121.266 158.478 128.533 164.868 134.969 164.868C139.641 164.868 142.547 162.563 142.547 158.687C142.547 155.65 139.433 153.031 133.1 150.831C125.315 148.003 114.311 143.08 114.311 128.729C114.311 114.902 124.692 105.265 139.433 105.265C150.229 105.265 160.091 110.502 160.091 110.502V128.205C154.278 128.205 146.907 122.025 140.575 122.025C136.838 122.025 134.242 124.12 134.242 127.262C134.242 131.557 140.056 133.128 146.077 135.433C157.185 139.518 162.583 146.641 162.479 157.011C162.479 166.229 156.354 181.942 135.903 181.942Z" fill="#F5EBDC"/>
<path d="M183.617 179.847V123.806H169.498V106.627H217.252V123.806H203.029V179.847H183.617Z" fill="#F5EBDC"/>
<path d="M18.1034 93.5503V22.6368H0V0.898865H61.2322V22.6368H42.9957V93.5503H18.1034Z" fill="#F5EBDC"/>
<path d="M73.0637 93.5503V0.898865H97.9559V36.0242H123.647V0.898865H148.672V93.5503H123.647V56.1716H97.9559V93.5503H73.0637Z" fill="#F5EBDC"/>
<path d="M166.269 93.5503V0.898865H217.252V22.6368H195.554C191.561 22.6368 189.697 24.8902 189.697 29.2643C189.697 33.7709 191.694 36.0242 195.421 36.0242H215.92V57.7622H195.554C191.428 57.7622 189.431 60.1481 189.431 64.6547C189.431 69.4265 191.428 71.8123 195.421 71.8123H217.252V93.5503H166.269Z" fill="#F5EBDC"/>
<path d="M956.938 330.686C956.938 330.686 954.203 325.782 954.203 319.147C954.203 312.511 956.938 307.607 956.938 307.607L958.888 308.754C958.888 308.754 956.457 313.145 956.457 319.147C956.457 325.148 958.888 329.539 958.888 329.539L956.938 330.686Z" fill="#F5EBDC"/>
<path d="M966.517 327.588C962.667 327.588 960.692 324.709 960.692 321.562C960.692 316.853 964.364 315.56 966.517 315.56C969.505 315.56 970.67 317.219 970.822 317.439V315.829H973.936L973.911 324.66H974.924V327.368H974.265C972.037 327.368 971.227 326.417 970.973 325.88C970.973 325.88 969.758 327.588 966.517 327.588ZM963.731 321.562C963.731 323.635 964.972 324.831 967.175 324.831H967.352C969.581 324.831 970.847 323.66 970.847 321.611C970.847 319.512 969.581 318.317 967.378 318.317H967.2C964.997 318.317 963.731 319.488 963.731 321.562Z" fill="#F5EBDC"/>
<path d="M978.383 327.368V320.757H976.787V318.097H978.383V315.511C978.383 312.706 980.18 310.827 982.865 310.827C983.447 310.827 984.03 310.925 984.587 311.071V313.56C984.283 313.511 984.004 313.462 983.726 313.462C981.725 313.462 981.472 314.682 981.472 316.512V318.097H984.587V320.757H981.472V327.368H978.383Z" fill="#F5EBDC"/>
<path d="M991.055 327.685C988.093 327.685 987.611 326.27 987.611 322.928V318.512H985.586V315.829H987.611V312.218H990.752V315.829H993.866V318.512H990.752V325.148L993.866 323.904V327.027C993.866 327.027 992.423 327.685 991.055 327.685Z" fill="#F5EBDC"/>
<path d="M1002.41 327.685C1001.02 327.685 996.106 326.953 996.106 321.513C996.106 315.926 1000.54 315.292 1002.41 315.292C1004.46 315.292 1006.03 315.902 1007.12 317.097C1008.67 318.805 1008.74 321.415 1008.59 322.489H999.221C999.271 323.148 999.55 323.782 1000.03 324.294C1000.64 324.88 1001.5 325.221 1002.36 325.197H1002.51C1004.61 325.197 1005.3 323.733 1005.3 323.733H1008.39C1008.39 323.733 1007.32 327.685 1002.41 327.685ZM999.246 320.318H1005.58C1005.55 319.634 1005.27 318.976 1004.79 318.463C1004.29 317.927 1003.5 317.658 1002.49 317.658H1002.46C1001.47 317.658 1000.61 317.927 1000.08 318.463C999.575 318.976 999.297 319.634 999.246 320.318Z" fill="#F5EBDC"/>
<path d="M1011.25 327.368V315.829H1014.39V317.463C1014.82 316.756 1015.94 315.609 1018.44 315.609V318.561H1018.09C1014.87 318.561 1014.39 320.708 1014.39 322.733V327.368H1011.25Z" fill="#F5EBDC"/>
<path d="M1031.44 327.685C1028.48 327.685 1028 326.27 1028 322.928V318.512H1025.97V315.829H1028V312.218H1031.14V315.829H1034.25V318.512H1031.14V325.148L1034.25 323.904V327.027C1034.25 327.027 1032.81 327.685 1031.44 327.685Z" fill="#F5EBDC"/>
<path d="M1036.97 327.368V311.266H1040.06V316.609C1040.69 315.999 1042.06 315.365 1043.76 315.365C1045.38 315.365 1046.72 315.853 1047.58 316.78C1048.34 317.585 1048.77 318.707 1048.77 319.927V327.368H1045.66V320.562C1045.66 318.927 1044.67 317.975 1042.92 317.975H1042.8C1041.07 317.975 1040.06 318.903 1040.06 320.513V327.368H1036.97Z" fill="#F5EBDC"/>
<path d="M1057.56 327.685C1056.17 327.685 1051.25 326.953 1051.25 321.513C1051.25 315.926 1055.68 315.292 1057.56 315.292C1059.61 315.292 1061.18 315.902 1062.27 317.097C1063.81 318.805 1063.89 321.415 1063.74 322.489H1054.37C1054.42 323.148 1054.7 323.782 1055.18 324.294C1055.79 324.88 1056.65 325.221 1057.51 325.197H1057.66C1059.76 325.197 1060.45 323.733 1060.45 323.733H1063.54C1063.54 323.733 1062.47 327.685 1057.56 327.685ZM1054.39 320.318H1060.72C1060.7 319.634 1060.42 318.976 1059.94 318.463C1059.43 317.927 1058.65 317.658 1057.63 317.658H1057.61C1056.62 317.658 1055.76 317.927 1055.23 318.463C1054.72 318.976 1054.44 319.634 1054.39 320.318Z" fill="#F5EBDC"/>
<path d="M1080.12 327.685C1077.67 327.685 1076.38 326.514 1075.87 325.831V327.368H1072.76V311.266H1075.87V317.366C1076.38 316.731 1077.67 315.658 1080.17 315.658C1081.62 315.658 1083.21 316.195 1084.2 317.17C1085.37 318.317 1086 319.878 1085.97 321.586C1085.92 323.977 1084.94 325.416 1084.1 326.221C1083.11 327.173 1081.54 327.685 1080.12 327.685ZM1075.82 321.659C1075.82 323.733 1077.09 324.953 1079.29 324.953H1079.44C1081.67 324.953 1082.94 323.757 1082.94 321.708C1082.94 319.659 1081.64 318.415 1079.47 318.415H1079.31C1077.09 318.415 1075.82 319.61 1075.82 321.659Z" fill="#F5EBDC"/>
<path d="M1088.56 327.368V315.829H1091.67V327.368H1088.56ZM1088.1 312.267C1088.1 311.218 1088.43 310.535 1090.05 310.535H1090.23C1091.6 310.535 1092.15 311.047 1092.15 312.316C1092.15 313.755 1091.37 314.072 1090.2 314.072H1090.03C1088.63 314.072 1088.1 313.56 1088.1 312.267Z" fill="#F5EBDC"/>
<path d="M1101.38 332.101C1099.36 332.077 1097.43 331.272 1096.04 329.881L1098.62 328.49C1099.28 329.222 1100.22 329.661 1101.23 329.686H1101.41C1104.6 329.686 1104.6 327.588 1104.6 326.685V325.709C1104.6 325.709 1103.38 327.1 1100.47 327.1C1099.79 327.1 1093.91 326.929 1093.91 321.269C1093.91 316.56 1097.56 315.585 1100.19 315.585C1103.33 315.585 1104.6 317.463 1104.6 317.463V315.829H1107.59V327.027C1107.59 330.296 1105.38 332.101 1101.38 332.101ZM1097.1 321.245C1097.1 323.343 1098.37 324.538 1100.57 324.538H1100.72C1102.95 324.538 1104.22 323.367 1104.22 321.318C1104.22 319.22 1102.95 318.024 1100.75 318.024H1100.6C1098.37 318.024 1097.1 319.195 1097.1 321.245Z" fill="#F5EBDC"/>
<path d="M1110.71 327.368V315.829H1113.8V317.268C1114.29 316.609 1115.43 315.536 1117.5 315.536C1119.4 315.536 1120.64 316.17 1121.63 317.439C1122.01 316.829 1123.07 315.536 1125.76 315.536C1129.43 315.536 1130.75 318.024 1130.75 320.464V327.368H1127.66V320.708C1127.66 319.025 1126.74 318.146 1125.02 318.146C1123.28 318.146 1122.29 319.073 1122.29 320.684L1122.26 327.368H1119.17V320.708C1119.17 319.025 1118.26 318.146 1116.54 318.146C1114.82 318.146 1113.8 319.073 1113.8 320.684V327.368H1110.71Z" fill="#F5EBDC"/>
<path d="M1139.01 327.588C1135.16 327.588 1133.18 324.709 1133.18 321.562C1133.18 316.853 1136.85 315.56 1139.01 315.56C1141.99 315.56 1143.16 317.219 1143.31 317.439V315.829H1146.43L1146.4 324.66H1147.41V327.368H1146.76C1144.53 327.368 1143.72 326.417 1143.46 325.88C1143.46 325.88 1142.25 327.588 1139.01 327.588ZM1136.22 321.562C1136.22 323.635 1137.46 324.831 1139.67 324.831H1139.84C1142.07 324.831 1143.34 323.66 1143.34 321.611C1143.34 319.512 1142.07 318.317 1139.87 318.317H1139.69C1137.49 318.317 1136.22 319.488 1136.22 321.562Z" fill="#F5EBDC"/>
<path d="M1155.61 327.685C1154.04 327.685 1152.52 327.1 1151.35 326.1C1150.44 325.319 1149.38 323.904 1149.38 321.635C1149.4 318.219 1152.19 315.414 1155.68 315.389C1156.39 315.389 1157.38 315.463 1158.17 315.804V318.317C1156.42 317.878 1154.8 318 1153.78 318.781C1152.95 319.415 1152.47 320.391 1152.47 321.611C1152.47 322.708 1152.9 323.635 1153.68 324.245C1154.7 325.05 1156.34 325.197 1158.17 324.807V327.295C1157.38 327.612 1156.39 327.685 1155.61 327.685Z" fill="#F5EBDC"/>
<path d="M1159.32 329.539C1159.32 329.539 1161.75 325.148 1161.75 319.147C1161.75 313.145 1159.32 308.754 1159.32 308.754L1161.27 307.607C1161.27 307.607 1164 312.511 1164 319.147C1164 325.782 1161.27 330.686 1161.27 330.686L1159.32 329.539Z" fill="#F5EBDC"/>
</svg>
