<svg width="1164" height="252" viewBox="0 0 1164 252" fill="none" xmlns="http://www.w3.org/2000/svg">
<path d="M17.2118 148.109C-0.661644 131.363 -3.75089 106.351 3.97222 81.9928C7.28212 72.4234 13.0193 62.4189 21.8457 50.0221L54.5034 5.65467H100.621L60.9025 54.8069C71.2736 51.9795 94.8842 49.5872 111.434 67.8561C129.749 88.5174 128.866 129.84 108.786 147.674C88.9264 168.335 38.3952 169.64 17.2118 148.109ZM39.9398 106.786C39.9398 120.488 47.0009 127.448 61.3439 127.448H62.6678C77.452 127.448 84.2925 120.706 84.2925 107.221C84.2925 93.7372 77.2314 86.5601 62.8885 86.5601H61.5645C46.7803 86.5601 39.9398 93.3022 39.9398 106.786Z" fill="#F5EBDC"/>
<path d="M147.148 74.1633L172.965 5.65467H208.712L172.083 74.1633H147.148Z" fill="#F5EBDC"/>
<path d="M299.434 157.678V125.49H228.823V98.5219L284.871 5.65467H336.726V92.8672H354.379V125.49H336.947V157.678H299.434ZM269.645 92.8672H299.434V43.4975L269.645 92.8672Z" fill="#F5EBDC"/>
<path d="M394.111 149.849C369.177 130.71 372.266 90.2574 402.055 77.6431C377.783 65.0288 377.783 28.7084 397.201 12.6143C414.412 -3.47981 455.014 -4.13226 472.666 12.6143C482.155 20.6613 487.009 31.7532 487.009 44.8024C487.009 63.2889 476.418 72.2059 467.371 77.4256C475.976 81.3404 492.967 91.1273 492.967 115.921C492.967 129.188 486.789 141.584 476.197 149.631C455.676 167.248 414.633 167.03 394.111 149.849ZM417.501 111.136C417.501 122.011 423.018 127.448 434.492 127.448H435.596C447.291 127.448 452.586 122.228 452.586 111.571C452.586 100.479 447.07 95.2596 435.816 95.2596H434.713C423.018 95.2596 417.501 100.262 417.501 111.136ZM421.032 45.4549C421.032 54.1544 425.445 58.5042 434.492 58.5042H435.596C444.863 58.5042 449.276 54.3719 449.276 45.6724C449.276 36.9729 444.863 32.6231 435.596 32.6231H434.713C425.445 32.6231 421.032 36.7554 421.032 45.4549Z" fill="#F5EBDC"/>
<path d="M576.839 163.333C558.524 163.333 541.974 154.851 530.5 139.627C519.246 125.273 514.613 107.874 514.613 81.7753C514.613 55.4593 519.246 38.0603 530.5 23.7061C541.974 8.48201 558.524 0 576.839 0C595.595 0 611.703 8.26453 623.619 23.7061C634.652 38.2778 639.286 55.6768 639.286 81.7753C639.286 107.656 634.652 125.055 623.619 139.627C611.924 154.851 595.374 163.333 576.839 163.333ZM553.449 82.2103C553.449 110.484 556.538 125.708 576.397 125.708H577.721C597.36 125.708 600.67 110.484 600.67 82.2103C600.67 53.9369 597.36 38.4953 577.942 38.4953H576.177C556.538 38.4953 553.449 53.9369 553.449 82.2103Z" fill="#F5EBDC"/>
<path d="M662.812 74.1633L688.629 5.65467H724.376L687.746 74.1633H662.812Z" fill="#F5EBDC"/>
<path d="M808.92 163.333C790.605 163.333 774.055 154.851 762.581 139.627C751.327 125.273 746.694 107.874 746.694 81.7753C746.694 55.4593 751.327 38.0603 762.581 23.7061C774.055 8.48201 790.605 0 808.92 0C827.676 0 843.784 8.26453 855.7 23.7061C866.733 38.2778 871.367 55.6768 871.367 81.7753C871.367 107.656 866.733 125.055 855.7 139.627C844.005 154.851 827.455 163.333 808.92 163.333ZM785.53 82.2103C785.53 110.484 788.619 125.708 808.478 125.708H809.802C829.441 125.708 832.751 110.484 832.751 82.2103C832.751 53.9369 829.441 38.4953 810.023 38.4953H808.258C788.619 38.4953 785.53 53.9369 785.53 82.2103Z" fill="#F5EBDC"/>
<path d="M955.236 163.333C936.922 163.333 920.372 154.851 908.898 139.627C897.644 125.273 893.01 107.874 893.01 81.7753C893.01 55.4593 897.644 38.0603 908.898 23.7061C920.372 8.48201 936.922 0 955.236 0C973.992 0 990.101 8.26453 1002.02 23.7061C1013.05 38.2778 1017.68 55.6768 1017.68 81.7753C1017.68 107.656 1013.05 125.055 1002.02 139.627C990.321 154.851 973.772 163.333 955.236 163.333ZM931.846 82.2103C931.846 110.484 934.936 125.708 954.795 125.708H956.119C975.758 125.708 979.068 110.484 979.068 82.2103C979.068 53.9369 975.758 38.4953 956.34 38.4953H954.574C934.936 38.4953 931.846 53.9369 931.846 82.2103Z" fill="#F5EBDC"/>
<path d="M1101.55 163.333C1083.24 163.333 1066.69 154.851 1055.21 139.627C1043.96 125.273 1039.33 107.874 1039.33 81.7753C1039.33 55.4593 1043.96 38.0603 1055.21 23.7061C1066.69 8.48201 1083.24 0 1101.55 0C1120.31 0 1136.42 8.26453 1148.33 23.7061C1159.37 38.2778 1164 55.6768 1164 81.7753C1164 107.656 1159.37 125.055 1148.33 139.627C1136.64 154.851 1120.09 163.333 1101.55 163.333ZM1078.16 82.2103C1078.16 110.484 1081.25 125.708 1101.11 125.708H1102.44C1122.07 125.708 1125.38 110.484 1125.38 82.2103C1125.38 53.9369 1122.07 38.4953 1102.66 38.4953H1100.89C1081.25 38.4953 1078.16 53.9369 1078.16 82.2103Z" fill="#F5EBDC"/>
<path d="M3.16879 249.613V188.659H23.2935C28.6486 188.659 33.2263 190.142 36.5949 192.845C43.8501 198.426 43.7638 211.768 36.0766 216.913C45.4912 219.354 47.1323 227.9 47.1323 232.173C47.1323 243.771 38.495 249.7 27.1803 249.613H3.16879ZM16.3837 230.516C16.3837 235.138 18.8022 237.579 23.5526 237.579H24.0709C28.9941 237.579 31.2398 235.225 31.2398 230.69C31.2398 225.982 28.9077 223.54 24.1572 223.54H23.639C18.7158 223.54 16.3837 225.894 16.3837 230.516ZM16.4701 206.187C16.4701 210.024 18.3703 211.942 22.2571 211.942H22.6889C26.662 211.942 28.5622 210.024 28.5622 206.274C28.5622 202.524 26.662 200.519 22.6889 200.519H22.3434C18.2839 200.519 16.4701 202.437 16.4701 206.187Z" fill="#F5EBDC"/>
<path d="M77.8228 251.27C57.2662 251.27 55.4524 236.359 55.4524 229.034V188.659H71.2585V229.034C71.2585 233.655 73.5042 235.661 78.1683 235.661H78.6001C83.3506 235.661 85.5963 233.568 85.5963 229.034V188.659H101.489V229.034C101.489 236.359 99.9341 251.27 78.8592 251.27H77.8228Z" fill="#F5EBDC"/>
<path d="M145.996 250.398C139.518 250.398 133.559 246.125 128.203 237.754V249.613H112.484V188.659H132.349C141.332 188.659 156.447 190.229 156.447 208.716C156.447 226.33 143.319 229.034 138.482 229.557C143.146 239.672 150.228 239.759 150.747 230.254H163.702C163.702 233.481 163.011 236.62 161.802 239.585C158.952 246.474 153.165 250.398 145.996 250.398ZM125.785 209.152C125.785 214.122 128.29 216.651 133.386 216.651H133.904C139.173 216.651 141.591 214.209 141.591 209.326C141.591 204.356 139.086 201.827 133.99 201.827H133.472C128.203 201.827 125.785 204.268 125.785 209.152Z" fill="#F5EBDC"/>
<path d="M229.24 249.613C224.576 249.613 219.998 247.956 216.457 244.991C205.92 251.532 187.954 251.968 177.33 240.457C158.415 220.924 171.63 185.782 198.837 185.782C207.647 185.782 216.112 189.27 222.244 196.769L211.102 207.931C204.624 198.077 184.758 199.821 184.758 217.959C184.758 231.214 196.678 236.882 207.82 231.65C206.956 229.382 206.265 227.028 205.833 224.674H196.591V211.506H229.154L229.24 224.674H219.221C219.221 228.336 224.835 236.446 229.24 236.446V249.613Z" fill="#F5EBDC"/>
<path d="M238.837 249.613V188.659H271.917V202.96H257.839C255.248 202.96 254.038 204.443 254.038 207.32C254.038 210.285 255.334 211.768 257.752 211.768H271.054V226.069H257.839C255.161 226.069 253.866 227.638 253.866 230.603C253.866 233.742 255.161 235.312 257.752 235.312H271.917V249.613H238.837Z" fill="#F5EBDC"/>
<path d="M316.21 250.398C309.732 250.398 303.773 246.125 298.418 237.754V249.613H282.698V188.659H302.563C311.546 188.659 326.661 190.229 326.661 208.716C326.661 226.33 313.533 229.034 308.696 229.557C313.36 239.672 320.442 239.759 320.961 230.254H333.917C333.917 233.481 333.226 236.62 332.016 239.585C329.166 246.474 323.379 250.398 316.21 250.398ZM295.999 209.152C295.999 214.122 298.504 216.651 303.6 216.651H304.118C309.387 216.651 311.805 214.209 311.805 209.326C311.805 204.356 309.3 201.827 304.205 201.827H303.686C298.418 201.827 295.999 204.268 295.999 209.152Z" fill="#F5EBDC"/>
<path d="M390.841 251.27C390.841 251.27 369.852 224.674 361.129 188.659H376.416C380.13 202.786 385.486 215.517 390.841 225.022C396.282 215.517 401.637 202.786 405.351 188.659H420.639C411.829 224.674 390.841 251.27 390.841 251.27Z" fill="#F5EBDC"/>
<path d="M427.861 249.613V188.659H460.941V202.96H446.862C444.271 202.96 443.062 204.443 443.062 207.32C443.062 210.285 444.358 211.768 446.776 211.768H460.077V226.069H446.862C444.185 226.069 442.889 227.638 442.889 230.603C442.889 233.742 444.185 235.312 446.776 235.312H460.941V249.613H427.861Z" fill="#F5EBDC"/>
<path d="M506.961 249.613C506.961 249.613 494.956 233.742 487.873 219.18V249.613H471.722V188.659L490.637 188.572C495.819 206.536 507.652 225.458 507.652 225.458V188.659H523.804V249.613H506.961Z" fill="#F5EBDC"/>
<path d="M551.819 249.613H535.235V188.659H551.473C572.98 188.659 584.381 198.775 584.381 218.744C584.381 239.062 572.635 249.613 551.819 249.613ZM551.733 235.312C562.961 235.312 568.402 229.731 568.402 218.918C568.402 208.367 562.961 202.96 551.733 202.96V235.312Z" fill="#F5EBDC"/>
<path d="M615.372 251.27C594.816 251.27 593.002 236.359 593.002 229.034V188.659H608.808V229.034C608.808 233.655 611.053 235.661 615.718 235.661H616.149C620.9 235.661 623.146 233.568 623.146 229.034V188.659H639.038V229.034C639.038 236.359 637.483 251.27 616.409 251.27H615.372Z" fill="#F5EBDC"/>
<path d="M672.838 249.362V185.85H692.382C703.149 185.85 718.892 187.485 718.892 206.748C718.892 226.283 703.059 228.736 696.454 228.736H689.306V249.362H672.838ZM686.772 207.202C686.772 212.381 689.396 215.016 694.734 215.016H695.277C700.797 215.016 703.33 212.472 703.33 207.384C703.33 202.205 700.525 199.57 695.368 199.57H694.825C689.306 199.57 686.772 202.114 686.772 207.202Z" fill="#EEE5D7"/>
<path d="M717.267 249.362L740.34 185.85H757.893L780.512 249.362H762.959L760.878 243.546C760.245 241.911 759.612 240.548 758.435 239.458C756.083 237.277 752.826 236.459 749.388 236.368H748.664C745.225 236.459 741.878 237.186 739.525 239.185C738.349 240.275 737.625 241.638 736.992 243.274L734.73 249.362H717.267ZM743.416 224.738H754.545L749.026 207.475L743.416 224.738Z" fill="#EEE5D7"/>
<path d="M823.164 250.179C816.378 250.179 810.135 245.727 804.526 237.004V249.362H788.058V185.85H808.869C818.278 185.85 834.112 187.485 834.112 206.748C834.112 225.102 820.359 227.918 815.293 228.464C820.178 239.003 827.598 239.094 828.141 229.19H841.713C841.713 232.552 840.989 235.823 839.722 238.913C836.736 246.091 830.674 250.179 823.164 250.179ZM801.992 207.202C801.992 212.381 804.616 215.016 809.954 215.016H810.497C816.016 215.016 818.55 212.472 818.55 207.384C818.55 202.205 815.926 199.57 810.588 199.57H810.045C804.526 199.57 801.992 202.114 801.992 207.202Z" fill="#EEE5D7"/>
<path d="M895.01 250.725C873.476 250.725 872.3 235.369 872.3 227.737V209.655H887.319V228.191C887.319 233.007 889.762 235.369 894.557 235.369C899.534 235.369 901.886 233.097 901.886 228.373V185.85H918.534V228.282C918.534 235.823 916.996 250.725 895.01 250.725Z" fill="#EEE5D7"/>
<path d="M960.723 251.27C917.203 251.27 915.936 183.669 960.633 183.669C1005.33 183.669 1004.24 251.27 960.723 251.27ZM943.804 217.288C943.804 228.191 948.961 233.824 960.542 233.824H960.904C972.214 233.824 977.643 228.191 977.643 217.288C977.643 206.566 972.305 201.114 960.723 201.114C949.413 201.114 943.804 206.566 943.804 217.288Z" fill="#EEE5D7"/>
<path d="M1026.19 251.088C1004.66 251.088 1002.76 235.551 1002.76 227.918V185.85H1019.32V227.918C1019.32 232.734 1021.67 234.824 1026.55 234.824H1027.01C1031.98 234.824 1034.33 232.643 1034.33 227.918V185.85H1050.98V227.918C1050.98 235.551 1049.35 251.088 1027.28 251.088H1026.19Z" fill="#EEE5D7"/>
<path d="M1097.61 250.179C1090.82 250.179 1084.58 245.727 1078.97 237.004V249.362H1062.5V185.85H1083.31C1092.72 185.85 1108.55 187.485 1108.55 206.748C1108.55 225.102 1094.8 227.918 1089.73 228.464C1094.62 239.003 1102.04 239.094 1102.58 229.19H1116.15C1116.15 232.552 1115.43 235.823 1114.16 238.913C1111.18 246.091 1105.12 250.179 1097.61 250.179ZM1076.43 207.202C1076.43 212.381 1079.06 215.016 1084.4 215.016H1084.94C1090.46 215.016 1092.99 212.472 1092.99 207.384C1092.99 202.205 1090.37 199.57 1085.03 199.57H1084.49C1078.97 199.57 1076.43 202.114 1076.43 207.202Z" fill="#EEE5D7"/>
<path d="M1140.84 251.179C1131.7 251.179 1122.83 246.181 1122.83 246.181V230.826C1128.08 230.826 1134.41 236.368 1140.02 236.368C1144.09 236.368 1146.63 234.369 1146.63 231.008C1146.63 228.373 1143.91 226.101 1138.39 224.193C1131.61 221.74 1122.02 217.469 1122.02 205.021C1122.02 193.028 1131.06 184.668 1143.91 184.668C1153.32 184.668 1161.92 189.211 1161.92 189.211V204.567C1156.85 204.567 1150.43 199.206 1144.91 199.206C1141.65 199.206 1139.39 201.023 1139.39 203.749C1139.39 207.475 1144.46 208.837 1149.7 210.836C1159.38 214.38 1164.09 220.559 1164 229.554C1164 237.55 1158.66 251.179 1140.84 251.179Z" fill="#EEE5D7"/>
</svg>
