<svg width="307" height="95" viewBox="0 0 307 95" fill="none" xmlns="http://www.w3.org/2000/svg">
<path d="M5.05958 90.3276C-0.194497 85.3156 -1.10261 77.83 1.16767 70.5397C2.14065 67.6756 3.82715 64.6814 6.42175 60.9712L16.0218 47.6924H29.5786L17.9029 62.4032C20.9516 61.557 27.8921 60.841 32.757 66.3087C38.1408 72.4924 37.8814 84.8599 31.9786 90.1975C26.1408 96.3812 11.2866 96.7717 5.05958 90.3276ZM11.7407 77.9602C11.7407 82.061 13.8164 84.1439 18.0326 84.1439H18.4218C22.7678 84.1439 24.7786 82.1261 24.7786 78.0903C24.7786 74.0546 22.7029 71.9066 18.4867 71.9066H18.0975C13.7515 71.9066 11.7407 73.9245 11.7407 77.9602Z" fill="#FF8732"/>
<path d="M64.0773 93.1917V83.5581H43.3204V75.4867L59.7962 47.6924H75.0395V73.7943H80.2287V83.5581H75.1044V93.1917H64.0773ZM55.3205 73.7943H64.0773V59.0184L55.3205 73.7943Z" fill="#FF8732"/>
<path d="M105.082 94.8841C99.6984 94.8841 94.8335 92.3455 91.4605 87.7891C88.1524 83.493 86.7902 78.2856 86.7902 70.4746C86.7902 62.5985 88.1524 57.3911 91.4605 53.095C94.8335 48.5386 99.6984 46 105.082 46C110.596 46 115.331 48.4735 118.834 53.095C122.077 57.4562 123.439 62.6635 123.439 70.4746C123.439 78.2205 122.077 83.4279 118.834 87.7891C115.396 92.3455 110.531 94.8841 105.082 94.8841ZM98.2065 70.6048C98.2065 79.0667 99.1146 83.6232 104.952 83.6232H105.342C111.115 83.6232 112.088 79.0667 112.088 70.6048C112.088 62.1428 111.115 57.5213 105.407 57.5213H104.888C99.1146 57.5213 98.2065 62.1428 98.2065 70.6048Z" fill="#FF8732"/>
<path d="M176.881 79.5224C172.924 80.1733 167.605 80.694 161.832 79.5224V93.1266H149.702V47.6273H161.832V64.0305L174.611 47.6273H187.584L170.784 69.6284C179.93 69.2378 187.454 65.2021 187.454 65.2021V93.1917H176.881V79.5224Z" fill="#FF8732"/>
<path d="M226.835 91.8248C208.997 100.026 193.495 85.8363 193.495 70.3444C193.495 54.2016 208.997 41.053 226.835 48.9291V62.0777C217.949 55.1129 205.754 59.0184 205.754 70.3444C205.754 82.1911 217.949 85.4457 226.835 79.0016V91.8248Z" fill="#FF8732"/>
<path d="M231.406 93.1917L247.947 47.6924H260.531L276.747 93.1917H264.163L262.671 89.0258C262.217 87.8541 261.763 86.8778 260.92 86.0967C259.233 84.5345 256.898 83.9486 254.433 83.8835H253.914C251.45 83.9486 249.05 84.4694 247.363 85.9014C246.52 86.6825 246.001 87.6589 245.547 88.8305L243.925 93.1917H231.406ZM250.152 75.5518H258.131L254.174 63.1843L250.152 75.5518Z" fill="#FF8732"/>
<path d="M282.157 93.1917V47.6924H294.092V82.4515H307V93.1917H282.157Z" fill="#FF8732"/>
<path d="M88.6822 34.9839V9.09678H82V1.16129H104.602V9.09678H97.8703V34.9839H88.6822Z" fill="#FF8732"/>
<path d="M125.625 36C101.992 36 101.304 0 125.576 0C149.849 0 149.259 36 125.625 36ZM116.437 17.9032C116.437 23.7097 119.238 26.7097 125.527 26.7097H125.724C131.865 26.7097 134.813 23.7097 134.813 17.9032C134.813 12.1936 131.915 9.29032 125.625 9.29032C119.484 9.29032 116.437 12.1936 116.437 17.9032Z" fill="#FF8732"/>
<path d="M153.267 34.9839V9.09678H146.585V1.16129H169.186V9.09678H162.455V34.9839H153.267Z" fill="#FF8732"/>
<path d="M167.739 34.9839L180.268 1.16129H189.8L202.084 34.9839H192.552L191.422 31.8871C191.078 31.0161 190.734 30.2903 190.095 29.7097C188.818 28.5484 187.049 28.1129 185.182 28.0645H184.789C182.922 28.1129 181.104 28.5 179.826 29.5645C179.187 30.1452 178.794 30.871 178.45 31.7419L177.222 34.9839H167.739ZM181.939 21.871H187.982L184.985 12.6774L181.939 21.871Z" fill="#FF8732"/>
<path d="M206.182 34.9839V1.16129H215.222V27H225V34.9839H206.182Z" fill="#FF8732"/>
</svg>
